<?xml version="1.0" encoding="utf-8"?>
<!-- Generator: Adobe Illustrator 23.0.3, SVG Export Plug-In . SVG Version: 6.00 Build 0)  -->
<svg version="1.1" id="Слой_1" xmlns="http://www.w3.org/2000/svg" xmlns:xlink="http://www.w3.org/1999/xlink" x="0px" y="0px"
	 viewBox="0 0 145 30" style="enable-background:new 0 0 145 30;" xml:space="preserve">
<style type="text/css">
	.st0{fill:#9A5C33;}
	.st1{fill:#8D5233;}
	.st2{fill:#DA9157;}
	.st3{fill:#FFD888;}
	.st4{fill:#A26339;}
	.st5{fill:#AB6B39;}
	.st6{fill:#B6703E;}
	.st7{fill:#F8C479;}
</style>
<g>
	<path class="st0" d="M142.58,25.84c-2.12,3.53-24.63,0.38-35.13,0c-10.5-0.38-30.09-1.53-37.17,0c-7.08,1.53-23.36,1.59-29.32,1.02
		c-2.48-0.24-5.77-0.28-9.02-0.17c-4.24,0.15-8.42,0.55-10.69,1.12c-0.17,0.04-0.34,0.09-0.49,0.13c-3.63,1.08-14.5,1.87-14.5,1.87
		l-0.7-18.38c0,0,10.22,1.66,16.73,1.92c1.07,0.04,2.05,0.05,2.86,0c3.65-0.22,8.78-0.56,13.75-0.53c2.83,0.02,5.61,0.16,8.04,0.53
		c5.35,0.8,14.47,0.32,17.9,0.1c0.23-0.02,0.27-0.35,0.05-0.41c-3-0.87-6.26-2.82-8.79-4.52c-0.6-0.4-1.16-0.79-1.66-1.15
		C51.7,5.42,44.35,4.62,44.35,4.62l2.44-4.59c1.09,0.11,2.41,0.46,3.87,0.96c3.82,1.31,8.52,3.65,12.01,5.31
		c4.81,2.29,18.82,5.67,24.16,6.05c2.56,0.18,5.98,0.32,9.72,0.56c4.08,0.26,8.53,0.65,12.62,1.35c2.19,0.38,4.65,0.46,7.15,0.38
		c6.4-0.19,13.03-1.43,15.95-1.49c4.12-0.09,9.01-1.56,11.69,3.4C146.63,21.51,143.16,24.88,142.58,25.84z"/>
	<path class="st1" d="M11.28,15.45c2.03,1.48,6.43,2.22,4.9,2.9c-1.53,0.68-5.03,1.06-4.9,3.74c0.13,2.67-3.48,4.11-4.5,4.91
		c-1.02,0.79,3.29,2.41,6.72,0.95c1.92-0.82,5.21-0.54,7.74-0.13c-0.17,0.04-0.34,0.09-0.49,0.13c-3.63,1.08-14.5,1.87-14.5,1.87
		l-0.7-18.38c0,0,10.22,1.66,16.73,1.92c-1.63,0.94-3.32,1.69-4.4,1.57C15.23,14.64,9.25,13.97,11.28,15.45z"/>
	<path class="st1" d="M142.58,25.84c-2.12,3.53-24.63,0.38-35.13,0c-10.5-0.38-30.09-1.53-37.17,0c-7.08,1.53-23.36,1.59-29.32,1.02
		c-2.48-0.24-5.77-0.28-9.02-0.17c4.92-1.19,10.99-2.48,13.44-2.28c4.41,0.35,11.74,2.32,16,1.43c4.26-0.89,12.59-3.18,15.96-3.18
		c3.38,0,15.74,1.6,18.44,1.75c2.7,0.16,10.25-1.18,14.4-1.18c4.15,0,11.98,2.35,16.75,2.61c4.77,0.26,14.5-0.31,13.56-7.39
		c-0.38-2.86-7.06-3.25-9.55-3.53c-2.18-0.25-7.31,2.15-14.62-0.28c6.4-0.19,13.03-1.43,15.95-1.49c4.12-0.09,9.01-1.56,11.69,3.4
		C146.63,21.51,143.16,24.88,142.58,25.84z"/>
	<g>
		<path class="st1" d="M10.19,22.39c-0.08,0.45-0.55,1.51-1.5,3.64c-1.27,2.87-1.72,3.47-2.42,3.78c-0.96,0.41-1.92,0.05-2.27-0.11
			c-1.42-0.65-2.06-2.22-2.95-4.43c-0.52-1.29-0.9-2.23-1.01-3.62c-0.04-0.47-0.16-2.29,0.61-4.3c0.42-1.1,0.91-1.74,1.9-3.03
			c1.48-1.93,2.21-2.89,3.02-2.89c1.64-0.01,2.92,2.93,3.54,4.37C9.63,17,10.72,19.51,10.19,22.39z"/>
		<path class="st2" d="M8.85,21.96c-0.07,0.35-0.44,1.19-1.18,2.86c-1,2.26-1.35,2.73-1.9,2.97c-0.75,0.32-1.51,0.04-1.78-0.08
			c-1.12-0.51-1.62-1.74-2.32-3.48c-0.41-1.02-0.71-1.75-0.8-2.84c-0.03-0.37-0.12-1.8,0.48-3.38c0.33-0.87,0.72-1.37,1.49-2.38
			c1.16-1.51,1.74-2.27,2.37-2.27c1.29-0.01,2.29,2.3,2.79,3.44C8.41,17.73,9.27,19.7,8.85,21.96z"/>
		<path class="st3" d="M7.27,20.67c-0.06,1.25-0.17,3.41-1.54,4.54c-0.22,0.18-1.06,0.87-1.93,0.55c-0.53-0.2-0.87-0.69-0.98-0.85
			c-0.25-0.37-0.32-0.65-0.57-1.58c-0.5-1.8-0.52-1.64-0.55-1.96c-0.09-0.91,0.12-1.61,0.33-2.33c0.16-0.53,0.4-1.31,0.98-2.1
			c0.51-0.7,1.13-1.53,1.94-1.47C6,15.53,6.67,17.07,6.86,17.5C7.36,18.65,7.32,19.69,7.27,20.67z"/>
	</g>
	<g>
		<path class="st1" d="M46.51,3.35c-0.08,0.1-0.33,0.3-0.85,0.71c-0.69,0.55-0.88,0.64-1.09,0.62c-0.29-0.02-0.48-0.24-0.55-0.32
			c-0.27-0.35-0.22-0.82-0.15-1.48c0.04-0.39,0.07-0.67,0.22-1.03c0.05-0.12,0.26-0.59,0.71-0.99c0.25-0.22,0.45-0.31,0.86-0.5
			c0.62-0.28,0.93-0.43,1.13-0.32c0.41,0.21,0.34,1.11,0.31,1.55C47.07,1.94,47.02,2.71,46.51,3.35z"/>
		<path class="st2" d="M46.23,3.07c-0.06,0.08-0.26,0.24-0.67,0.56c-0.54,0.43-0.69,0.5-0.86,0.49c-0.23-0.02-0.38-0.19-0.43-0.25
			c-0.21-0.27-0.17-0.64-0.12-1.17c0.03-0.31,0.05-0.53,0.17-0.81c0.04-0.1,0.2-0.46,0.56-0.78c0.19-0.17,0.36-0.25,0.68-0.4
			c0.48-0.22,0.73-0.34,0.88-0.25c0.32,0.17,0.27,0.87,0.24,1.21C46.68,1.97,46.63,2.57,46.23,3.07z"/>
		<path class="st3" d="M46.01,2.55c-0.18,0.3-0.49,0.82-0.97,0.92c-0.08,0.02-0.38,0.08-0.55-0.12c-0.11-0.12-0.13-0.28-0.13-0.34
			c-0.01-0.12,0.01-0.2,0.06-0.47c0.11-0.51,0.09-0.47,0.12-0.56c0.1-0.24,0.24-0.38,0.39-0.54c0.11-0.11,0.27-0.27,0.52-0.39
			c0.22-0.11,0.48-0.23,0.67-0.11c0.25,0.16,0.22,0.63,0.21,0.76C46.3,2.06,46.15,2.31,46.01,2.55z"/>
	</g>
	<path class="st1" d="M68.57,13.44c-3.41,2.11-16.49,3.68-20.09,2.01c-1.79-0.83-5.9-1.83-9.58-2.63c2.83,0.02,5.61,0.16,8.04,0.53
		c5.35,0.8,14.47,0.32,17.9,0.1c0.23-0.02,0.27-0.35,0.05-0.41c-3-0.87-6.26-2.82-8.79-4.52C60.59,10.94,69.83,12.66,68.57,13.44z"
		/>
	<path class="st1" d="M96.55,12.91c-3.8,0.24-7.5,0.5-8.69,0.69c-2.72,0.42-8.14-1.27-10.94-1.27c-2.8,0-16.12-4.33-18.18-6.37
		c-1.23-1.22-5.14-3.4-8.09-4.97c3.82,1.31,8.52,3.65,12.01,5.31c4.81,2.29,18.82,5.67,24.16,6.05
		C89.39,12.53,92.81,12.67,96.55,12.91z"/>
	<path class="st4" d="M38.9,15.45c-3.82-0.73-6.36-1.33-9.93-0.53c-3.56,0.8-8.02,3.47-9.8,3.35c-1.78-0.13-5.22,3.18,0,3.06
		c5.22-0.13,14,1.91,9.67,2.29c-4.33,0.38-5.35,3.44,8.66,0.25c14-3.18,14.99,0.51,21.24-0.89c6.25-1.4,20.69-2.04,29.7-0.76
		c9.01,1.27,25.05-1.91,29.89-0.64c4.84,1.27,8.78,2.04,11.97,1.78s10.17-1.66,2.67-2.74c-7.5-1.08-6.32-2.86-9.84-3.37
		c-3.52-0.51-9.4,0-12.95-0.64c-3.55-0.64-10.73-2.24-14.4-2.08c-3.67,0.17-13.21-0.38-16.01-0.87c-2.8-0.49-5.98,0.74-9.29,1.78
		c-3.31,1.04-11.96,2.44-17.37,1.8C47.69,16.61,41.77,15.99,38.9,15.45z"/>
	<path class="st4" d="M48.51,2.34c0.25,1.02,0.45,1.94,1.91,1.78c1.46-0.17,3.56,0.4,4.96,1.87c1.4,1.46,5.66,4.46,5.35,3.25
		c-0.32-1.21-1.27-1.02-2.67-2.48s-1.34-2.08-2.86-2.63c-1.53-0.55-3.47-0.42-4.54-1.38C49.6,1.78,48.26,1.31,48.51,2.34z"/>
	<path class="st5" d="M32.54,17.08c-2.47,0.04-7.04,0.93-4.5,1.7c2.55,0.76,3.06,1.19,5.69,2.46c2.63,1.27,3.56-0.4,7.13-1.05
		c3.56-0.65,11.63,1.56,14.94,1.05s9.17-2.97,14.6-2.63c5.43,0.34,16.55-0.32,10.95-1.56c-5.6-1.24-8.15-1.06-9.33-0.89
		c-1.19,0.16-4.41,1.01-7.17,1.52c-2.76,0.51-7.49,2.04-9.75,1.1c-2.26-0.93-4.55,0.95-9.22,0.09
		C41.19,18.01,34.42,17.05,32.54,17.08z"/>
	<path class="st5" d="M91.28,17.38c-1.93,0.34-3.31,0.63-4.96,1.49c-1.65,0.86-2.35,2.96,0.57,2.26c2.93-0.7,3.12-2.08,6.75-0.94
		c3.63,1.14,13.24-2.18,17.18-1.32c3.95,0.86,9.23,1.36,7.13,0c-2.1-1.36-9.29-1.94-11.9-2.19C103.44,16.42,95.93,16.55,91.28,17.38
		z"/>
	<path class="st6" d="M24.39,20.19c-0.89,0.11-3.41,2.03-5.78,2.66c-2.37,0.64-4.28,2.61-1.73,2.45c2.55-0.16,4.46-1.56,6.49-1.69
		c2.04-0.13,8.15,0.51,9.29-0.13C33.81,22.85,28.47,19.69,24.39,20.19z"/>
	<path class="st6" d="M83.71,16.03c-2.07-0.27-6.05-0.42-4.81,0.52c1.24,0.94,9.51,2.15,13.84,2.31c4.33,0.16,9.31,1.04,7.89-0.6
		s-9.29-2.48-11.58-2.51C86.77,15.72,85.5,16.27,83.71,16.03z"/>
	<path class="st6" d="M132.17,16.56c-1.56-0.42-3.48,0.09-2.12,0.94c1.36,0.85,5.67,2.98,6.27,1.75
		C136.92,18.01,133.69,16.97,132.17,16.56z"/>
	<path class="st7" d="M4.17,24.41c-0.41,0.04-0.71-0.31-0.8-0.42c-0.22-0.29-0.17-0.46-0.46-0.84c-0.18-0.24-0.26-0.25-0.37-0.49
		c-0.04-0.08-0.16-0.35-0.21-0.79c-0.04-0.38,0-0.67,0.06-1.17c0.09-0.71,0.24-1.23,0.29-1.42c0.18-0.63,0.27-0.96,0.48-1.27
		c0.12-0.17,0.13-0.13,0.75-0.64c0.44-0.36,0.46-0.41,0.6-0.46c0.32-0.1,0.58,0.06,0.69,0.14c0.23,0.16,0.22,0.28,0.53,0.5
		c0.23,0.16,0.27,0.11,0.36,0.25c0.13,0.19,0.12,0.38,0.25,0.84c0.13,0.45,0.17,0.36,0.23,0.65c0.12,0.52,0.06,1.05,0.02,1.45
		c-0.04,0.33-0.07,0.69-0.22,1.09c-0.08,0.22-0.1,0.22-0.39,0.75c-0.38,0.71-0.4,0.84-0.59,1.05c-0.1,0.11-0.21,0.19-0.45,0.35
		C4.55,24.26,4.35,24.4,4.17,24.41z M4.74,17.72c-0.31-0.07-0.58,0.1-0.66,0.15c-0.12,0.08-0.36,0.24-0.55,0.62
		c-0.14,0.28-0.1,0.38-0.3,0.81c-0.16,0.36-0.22,0.36-0.27,0.59c-0.06,0.25-0.01,0.31-0.04,0.8c-0.03,0.5-0.09,0.52-0.07,0.77
		c0.01,0.18,0.1,0.37,0.26,0.73c0.1,0.23,0.19,0.4,0.37,0.73c0.22,0.41,0.25,0.45,0.3,0.49c0.1,0.08,0.23,0.08,0.49,0.08
		c0.12,0,0.26-0.04,0.43-0.12c0,0,0,0,0,0c0.16-0.11,0.18-0.2,0.49-0.59c0.35-0.43,0.4-0.43,0.52-0.68c0.05-0.11,0.1-0.29,0.21-0.65
		c0.12-0.38,0.17-0.58,0.19-0.74c0.02-0.16,0-0.2-0.05-0.78c-0.06-0.66-0.05-0.69-0.09-0.87c-0.03-0.13-0.09-0.41-0.23-0.65
		c-0.13-0.22-0.28-0.31-0.56-0.49C4.95,17.82,4.85,17.75,4.74,17.72z"/>
	<path class="st2" d="M5.29,20.39c0.01,0.22-0.06,0.42-0.09,0.5c-0.02,0.05-0.06,0.17-0.17,0.32c-0.12,0.17-0.37,0.52-0.68,0.48
		c-0.19-0.03-0.32-0.18-0.43-0.32c-0.09-0.11-0.25-0.3-0.28-0.61c-0.02-0.15,0.01-0.26,0.05-0.49c0.07-0.33,0.11-0.52,0.24-0.64
		c0.11-0.1,0.22-0.1,0.44-0.11c0.15-0.01,0.24-0.01,0.35,0.03C4.99,19.66,5.27,19.98,5.29,20.39z"/>
</g>
</svg>
