<?xml version="1.0" encoding="utf-8"?>
<!-- Generator: Adobe Illustrator 23.0.3, SVG Export Plug-In . SVG Version: 6.00 Build 0)  -->
<svg version="1.1" id="Слой_1" xmlns="http://www.w3.org/2000/svg" xmlns:xlink="http://www.w3.org/1999/xlink" x="0px" y="0px"
	 viewBox="0 0 100 86" style="enable-background:new 0 0 100 86;" xml:space="preserve">
<style type="text/css">
	.st0{fill:#FDE0CA;}
	.st1{fill:#E29078;}
	.st2{opacity:0.5;fill:#E49078;}
	.st3{opacity:0.5;}
	.st4{opacity:0.5;fill:#E29078;}
	.st5{opacity:0.7;}
	.st6{fill:#FFFFFF;}
	.st7{fill:#D2D3D6;}
	.st8{fill:#E71900;}
	.st9{fill:#89211E;}
	.st10{fill:#C96833;}
	.st11{fill:#72370A;}
	.st12{fill:#FFD54C;}
	.st13{fill:#D3A116;}
	.st14{fill:#7CD54C;}
	.st15{fill:#3E8E10;}
	.st16{opacity:0.6;fill:#FFF4F0;}
	.st17{fill:#FFF4F0;}
	.st18{fill:#A26531;}
	.st19{fill:#68330B;}
	.st20{opacity:0.5;fill:#A26531;}
	.st21{opacity:0.4;fill:#A26531;}
	.st22{opacity:0.5;fill:#C96833;}
	.st23{fill:none;}
</style>
<g>
	<g>
		<g>
			<g>
				<path class="st0" d="M90.93,56.91c0,0-0.11-1.95,1.14-2.81c1.26-0.86,1.72-1.95,2.41-1.78c0.69,0.17-0.06,2.07-0.98,2.53
					c1.2,1.66,2.06,1.84,3.1,1.72c1.03-0.12,2.12-0.97,2.98-0.46c0.86,0.52,0.8,1.03-0.52,1.21c-1.32,0.17-1.32,0.75-1.32,0.75
					s0.69,0.98-0.52,1.95c0.52,1.15,0.63,0.92-0.4,1.84c-1.03,0.92-1.84,1.2-3.79,1.09c-1.95-0.11-2.07-0.63-2.07-0.63L90.93,56.91z
					"/>
				<g>
					<path class="st1" d="M97.93,57.82c0,0-0.12,0.26-0.46,0.52c-0.09,0.05-0.19,0.13-0.3,0.17c-0.12,0.06-0.25,0.08-0.38,0.1
						c-0.14,0.02-0.26,0.01-0.4,0.02c-0.13,0-0.27,0-0.41,0c-0.55,0-1.09-0.02-1.5-0.05c-0.41-0.03-0.68-0.06-0.68-0.06
						s0.27-0.04,0.68-0.07c0.41-0.03,0.95-0.05,1.5-0.05c0.14,0,0.27,0,0.41,0c0.13,0,0.27,0.01,0.39,0
						c0.12-0.01,0.23-0.01,0.34-0.05c0.11-0.02,0.2-0.08,0.29-0.12c0.08-0.05,0.17-0.09,0.23-0.15c0.07-0.05,0.12-0.09,0.17-0.14
						C97.88,57.88,97.93,57.82,97.93,57.82z"/>
					<path class="st1" d="M97.24,60c0,0-0.06,0.02-0.16,0.06c-0.1,0.03-0.24,0.08-0.42,0.11c-0.18,0.03-0.39,0.07-0.61,0.1
						c-0.22,0.01-0.47,0.01-0.71,0.02c-0.12,0-0.24,0-0.35,0c-0.12,0-0.23-0.01-0.35-0.01c-0.22-0.02-0.43,0-0.6,0
						c-0.35,0-0.59,0.02-0.59,0.02s0.06-0.03,0.15-0.05c0.1-0.02,0.25-0.08,0.43-0.1c0.18-0.02,0.39-0.07,0.61-0.07
						c0.12,0,0.23,0,0.35-0.01c0.12,0,0.24,0,0.36,0c0.23,0,0.47,0.01,0.69,0.01c0.22-0.01,0.43-0.01,0.6-0.02
						C97,60.02,97.24,60,97.24,60z"/>
					<path class="st1" d="M97.18,61.56c0-0.01-0.04,0.04-0.13,0.1c-0.09,0.05-0.21,0.16-0.38,0.21c-0.08,0.03-0.18,0.07-0.27,0.1
						c-0.1,0.02-0.21,0.04-0.32,0.06c-0.11,0.01-0.22,0.03-0.34,0.04c-0.11,0.01-0.23,0.02-0.35,0.03
						c-0.24,0.02-0.47,0.03-0.69,0.04c-0.22,0.01-0.43,0-0.6,0.02c-0.35,0.02-0.59,0.02-0.59,0.02s0.23-0.07,0.58-0.15
						c0.35-0.08,0.82-0.12,1.29-0.16c0.23-0.02,0.47-0.03,0.68-0.05c0.11-0.01,0.21-0.01,0.31-0.02c0.1-0.02,0.19-0.04,0.27-0.06
						c0.17-0.03,0.3-0.09,0.4-0.12C97.13,61.58,97.18,61.56,97.18,61.56z"/>
				</g>
				<path class="st2" d="M94.34,52.07c0.07,0,0.13,0.01,0.2,0.03c0.24,0.06,0.4,0.26,0.44,0.56c0.07,0.64-0.45,1.75-1.13,2.25
					c1.1,1.44,1.85,1.53,2.74,1.43c0.34-0.04,0.71-0.17,1.07-0.3c0.44-0.16,0.89-0.32,1.32-0.32c0.28,0,0.52,0.07,0.74,0.2
					c0.51,0.31,0.74,0.63,0.67,0.94c-0.07,0.36-0.49,0.58-1.28,0.69c-0.84,0.11-1.05,0.38-1.1,0.48c0.15,0.29,0.48,1.17-0.48,2.04
					c0.04,0.09,0.07,0.16,0.11,0.23c0.38,0.78,0.3,0.9-0.43,1.53l-0.21,0.19c-1.15,1.02-2.03,1.26-3.95,1.15
					c-1.97-0.11-2.24-0.65-2.27-0.81l-0.01-0.05l-0.06-5.39c0-0.07-0.11-2.08,1.25-3c0.5-0.34,0.87-0.72,1.19-1.05
					C93.57,52.42,93.91,52.07,94.34,52.07z M96.15,56.82c-1.06,0-1.88-0.53-2.83-1.85l-0.16-0.22l0.24-0.12
					c0.61-0.3,1.17-1.4,1.12-1.93c-0.02-0.14-0.07-0.16-0.09-0.16c-0.28-0.07-0.57,0.23-0.96,0.64c-0.32,0.33-0.72,0.74-1.26,1.11
					c-1.14,0.78-1.05,2.59-1.05,2.61l0.06,5.36c0.04,0.04,0.36,0.36,1.85,0.45c1.96,0.11,2.69-0.21,3.62-1.03l0.21-0.19
					c0.56-0.49,0.56-0.49,0.32-0.99c-0.05-0.11-0.12-0.24-0.18-0.39l-0.07-0.16l0.14-0.11c1.02-0.83,0.49-1.61,0.47-1.64l-0.04-0.06
					v-0.07c0-0.08,0.05-0.78,1.52-0.97c0.84-0.11,0.89-0.32,0.89-0.33c0.01-0.04-0.06-0.21-0.46-0.45
					c-0.42-0.25-1.02-0.07-1.67,0.16c-0.38,0.14-0.77,0.28-1.17,0.33C96.47,56.81,96.31,56.82,96.15,56.82z"/>
			</g>
			<g>
				<path class="st0" d="M90.93,56.91l0.06,5.39c0,0,0.11,0.52,2.07,0.63c1.95,0.11,2.75-0.17,3.79-1.09
					c1.03-0.92,0.92-0.69,0.4-1.84c1.21-0.97,0.52-1.95,0.52-1.95s0-0.57,1.32-0.75c1.32-0.17,1.38-0.69,0.52-1.21
					c-0.86-0.51-1.95,0.35-2.98,0.46c-1.03,0.11-1.9-0.06-3.1-1.72c0.92-0.46,1.66-2.35,0.98-2.53c-0.69-0.17-1.15,0.92-2.41,1.78
					C90.82,54.96,90.93,56.91,90.93,56.91z M92.78,54.18c0.88-0.74,1.23-0.71,0.93-0.22c-0.3,0.49-1.04,0.41-0.55,1.18
					c0.49,0.77,1.62,2.25,2.58,2.08c0.96-0.17,1.81-0.55,2.57-0.58c0.77-0.03,0.49,0.35-0.16,0.52c-0.66,0.16-0.68,1.01-1.56,1.01
					c-0.88,0-2.77,0.19-3.07,0.22c-0.3,0.03,1.37,0.19,2.3,0.3c0.74,0.08,0.93,0.93-0.44,1.07c-1.37,0.14-3.29,0.66-1.67,0.63
					c1.61-0.03,2.08,0.3,2.05,0.77c-0.02,0.47-1.21,0.74-2,0.82c-0.79,0.08-1.01-0.63-0.93-1.56c0.08-0.93,0.36-2.47-0.03-3.35
					c0,0-0.14-0.49-0.6-0.96C91.74,55.66,91.9,54.92,92.78,54.18z"/>
			</g>
		</g>
		<g>
			<path class="st0" d="M11.53,36.89c0,0,0.52-1.61-0.4-2.18c-0.92-0.57-2.24-1.43-2.75-2.76C7.86,30.63,7.86,30.23,7,30.92
				c-0.86,0.69-0.06,1.84,0.34,2.64c0.4,0.8-0.57,1.6-1.6,1.43c-1.03-0.17-2.47-0.51-3.16-1.49c-0.69-0.98-1.49-1.49-1.89-1.03
				c-0.4,0.46,1.09,2.24,1.09,2.24s-0.46,3.96,0.69,5.45c1.15,1.49,1.84,1.95,2.87,2.35c1.03,0.4,1.43,0.46,1.43,0.46L11.53,36.89z"
				/>
			<g class="st3">
				<path class="st1" d="M5.74,37.4c0,0-0.31-0.08-0.76-0.24c-0.22-0.09-0.48-0.18-0.76-0.3c-0.27-0.13-0.56-0.27-0.83-0.45
					c-0.13-0.09-0.28-0.2-0.37-0.32c-0.1-0.12-0.21-0.23-0.31-0.34c-0.2-0.22-0.37-0.43-0.53-0.62c-0.29-0.39-0.46-0.65-0.46-0.65
					s0.23,0.22,0.55,0.56c0.17,0.17,0.37,0.36,0.58,0.57c0.1,0.11,0.21,0.21,0.32,0.33c0.1,0.12,0.22,0.19,0.35,0.29
					c0.25,0.17,0.53,0.32,0.79,0.45c0.27,0.13,0.51,0.26,0.72,0.37C5.46,37.26,5.74,37.4,5.74,37.4z"/>
				<path class="st1" d="M3.1,39.81c0,0-0.12-0.06-0.28-0.18c-0.16-0.12-0.36-0.29-0.53-0.49c-0.09-0.1-0.17-0.2-0.24-0.31
					c-0.08-0.1-0.12-0.22-0.17-0.3c-0.05-0.09-0.06-0.18-0.08-0.23c-0.01-0.06-0.02-0.09-0.02-0.09s0.02,0.03,0.06,0.07
					c0.04,0.05,0.08,0.11,0.15,0.18c0.13,0.14,0.3,0.33,0.47,0.52c0.17,0.19,0.33,0.4,0.45,0.55C3.03,39.69,3.1,39.81,3.1,39.81z"/>
				<path class="st1" d="M4.25,39.58c0,0-0.21-0.14-0.49-0.38c-0.28-0.24-0.65-0.57-0.98-0.94c-0.34-0.36-0.64-0.76-0.83-1.09
					c-0.1-0.16-0.15-0.31-0.19-0.41c-0.02-0.11-0.04-0.17-0.04-0.17s0.03,0.05,0.08,0.15c0.05,0.09,0.14,0.21,0.26,0.36
					c0.11,0.14,0.26,0.3,0.4,0.47c0.15,0.17,0.32,0.35,0.48,0.53c0.33,0.36,0.66,0.72,0.9,1C4.09,39.39,4.25,39.58,4.25,39.58z"/>
			</g>
			<path class="st4" d="M7.61,30.36L7.61,30.36c0.41,0,0.56,0.41,0.81,1.08c0.05,0.13,0.1,0.27,0.16,0.43
				c0.47,1.2,1.62,1.99,2.66,2.64c1.05,0.66,0.52,2.37,0.5,2.44l-0.04,0.07l-4.84,6.18l-0.13-0.02c-0.02,0-0.44-0.07-1.49-0.47
				c-1.06-0.41-1.78-0.88-2.97-2.43c-1.1-1.43-0.81-4.88-0.74-5.52c-0.51-0.62-1.49-1.94-1.02-2.46c0.14-0.16,0.33-0.25,0.55-0.25
				c0.5,0,1.12,0.47,1.71,1.3c0.64,0.91,2.02,1.23,3.01,1.4c0.55,0.09,1.1-0.14,1.33-0.5c0.08-0.14,0.15-0.35,0.03-0.6
				c-0.05-0.1-0.11-0.21-0.18-0.33c-0.42-0.79-1-1.88-0.11-2.59C7.2,30.47,7.41,30.36,7.61,30.36z M11.32,36.78
				c0.07-0.23,0.37-1.45-0.32-1.88c-0.8-0.5-2.28-1.43-2.85-2.86C8.1,31.88,8.05,31.73,8,31.6c-0.14-0.37-0.29-0.78-0.38-0.78
				c-0.05,0-0.18,0.05-0.47,0.28c-0.55,0.44-0.24,1.14,0.23,2.02c0.06,0.12,0.12,0.23,0.18,0.34C7.72,33.8,7.7,34.17,7.5,34.5
				c-0.33,0.53-1.06,0.84-1.8,0.72c-1.06-0.18-2.56-0.54-3.31-1.59c-0.58-0.81-1.08-1.1-1.33-1.1c-0.09,0-0.15,0.03-0.2,0.09
				c-0.12,0.14,0.34,1.04,1.09,1.94l0.06,0.07l-0.01,0.1c0,0.04-0.43,3.89,0.64,5.29c1.12,1.46,1.78,1.89,2.77,2.28
				c0.67,0.26,1.07,0.37,1.26,0.42L11.32,36.78z"/>
			<g class="st5">
				<path class="st0" d="M1.78,34.71c0,0-0.46,3.96,0.69,5.45c1.15,1.49,1.84,1.95,2.87,2.35c1.03,0.4,1.43,0.46,1.43,0.46
					l4.76-6.08c0,0,0.52-1.61-0.4-2.18c-0.92-0.57-2.24-1.43-2.75-2.76C7.86,30.63,7.86,30.23,7,30.92
					c-0.86,0.69-0.06,1.84,0.34,2.64c0.4,0.8-0.57,1.6-1.6,1.43c-1.03-0.17-2.47-0.51-3.16-1.49c-0.69-0.98-1.49-1.49-1.89-1.03
					C0.29,32.93,1.78,34.71,1.78,34.71z M3.82,38.7c-0.73-0.9-0.57-1.81,0.06-1.58c0.62,0.23,1.98,0.73,2.09,0.39
					c0.11-0.34-0.11-0.68-1.41-1.19c-1.3-0.51-1.75-1.19-1.41-1.47c0.34-0.28,1.92,0.68,2.94,0.74c1.02,0.06,2.49-0.9,1.98-1.75
					C7.55,33,7.83,32.03,8.34,32.94c0.51,0.91,1.64,1.7,1.64,1.7c0.85,0.62,0.17,1.07-1.53,1.52c-1.69,0.45-2.2,1.81-2.6,2.54
					c-0.39,0.73-0.34,1.98-0.11,2.77c0.23,0.79-1.86-0.85-2.43-1.75c-0.56-0.9-0.28-0.79,0.45-0.34C4.5,39.83,4.56,39.61,3.82,38.7z
					"/>
			</g>
		</g>
		<g>
			<g>
				<g>
					<path class="st6" d="M40.98,17.83c-0.32-2.36-1.43-4.6-3.64-4.7c-2.52-0.11-3.15,1.95-3.27,4.07c0,0.01,0,0.02,0,0.02
						C37.02,16.36,39.54,17.14,40.98,17.83z"/>
					<path class="st7" d="M37.15,12.9c0.07,0,0.14,0,0.21,0c2,0.09,3.44,1.92,3.85,4.9l0.06,0.42l-0.38-0.18
						c-0.92-0.44-2.39-0.96-4.16-0.96c-0.87,0-1.74,0.13-2.58,0.38l-0.31,0.09l0.02-0.32C34,14.31,35.09,12.9,37.15,12.9z
						 M40.69,17.45c-0.24-1.31-1.03-3.98-3.35-4.08c-1.86-0.08-2.81,1.04-3.01,3.56c0.79-0.2,1.59-0.31,2.4-0.31
						C38.34,16.62,39.72,17.03,40.69,17.45z"/>
				</g>
				<g>
					<path class="st8" d="M34.08,17.23c-0.11,2.13,0.11,6.11,0.11,6.11l7.34,0.23c0,0-0.34-2.01-0.46-4.7
						c-0.02-0.35-0.05-0.69-0.09-1.04C39.54,17.14,37.02,16.36,34.08,17.23z"/>
					<path class="st9" d="M36.73,16.62L36.73,16.62c1.85,0,3.39,0.55,4.36,1.01l0.11,0.06l0.02,0.12c0.05,0.35,0.08,0.7,0.1,1.06
						c0.11,2.65,0.45,4.66,0.46,4.67l0.05,0.28l-7.83-0.24l-0.01-0.21c0-0.04-0.23-4.02-0.12-6.14l0.01-0.16l0.15-0.05
						C34.9,16.75,35.81,16.62,36.73,16.62z M40.77,17.99c-0.92-0.43-2.35-0.91-4.05-0.91l0,0c-0.82,0-1.63,0.11-2.43,0.33
						c-0.08,1.84,0.07,4.89,0.11,5.72l6.85,0.21c-0.09-0.65-0.33-2.35-0.42-4.46C40.83,18.58,40.81,18.28,40.77,17.99z"/>
				</g>
				<g class="st3">
					<path class="st9" d="M36.08,19c0,1.1,0.37,1.98-0.31,2.5c-0.35,0.27-1.04,0.6-1.62,0.85c0.03,0.6,0.05,1,0.05,1l7.34,0.23
						c0,0-0.08-0.46-0.17-1.24c-0.84-0.38-1.88-0.95-1.94-1.51c-0.11-0.94,0-1.72,0-2.3c0-0.34,0.86-0.55,1.57-0.66
						c0-0.01,0-0.02,0-0.03c-1.44-0.69-3.96-1.47-6.91-0.6c-0.01,0.11-0.01,0.24-0.02,0.35C35.04,17.92,36.08,18.41,36.08,19z"/>
				</g>
			</g>
			<g>
				<path class="st6" d="M38.9,19.79c0,0-0.2-0.06-0.47-0.2c-0.27-0.14-0.61-0.35-0.93-0.59c-0.31-0.24-0.61-0.52-0.81-0.75
					c-0.2-0.23-0.32-0.41-0.32-0.41s0.21,0.06,0.48,0.2c0.27,0.14,0.61,0.35,0.93,0.59c0.31,0.25,0.61,0.52,0.81,0.75
					C38.79,19.61,38.9,19.79,38.9,19.79z"/>
				<path class="st6" d="M36.72,19.96c0,0,0.05-0.19,0.18-0.42c0.12-0.24,0.31-0.54,0.53-0.81c0.22-0.27,0.47-0.52,0.69-0.69
					c0.21-0.17,0.38-0.26,0.38-0.26s-0.05,0.19-0.18,0.42c-0.12,0.24-0.31,0.53-0.54,0.81c-0.22,0.27-0.47,0.52-0.69,0.69
					C36.89,19.87,36.72,19.96,36.72,19.96z"/>
				<path class="st6" d="M38.9,21.8c0,0-0.17-0.02-0.39-0.1c-0.22-0.07-0.5-0.21-0.76-0.37c-0.26-0.16-0.49-0.36-0.66-0.54
					c-0.16-0.17-0.25-0.31-0.25-0.31s0.17,0.02,0.39,0.09c0.22,0.07,0.5,0.21,0.76,0.37c0.26,0.16,0.49,0.36,0.66,0.53
					C38.81,21.65,38.9,21.8,38.9,21.8z"/>
				<path class="st6" d="M38.73,20.42c0,0-0.08,0.15-0.23,0.32c-0.15,0.18-0.37,0.38-0.61,0.56c-0.25,0.17-0.51,0.31-0.73,0.39
					c-0.21,0.09-0.38,0.11-0.38,0.11s0.08-0.15,0.23-0.33c0.15-0.17,0.37-0.38,0.61-0.55c0.25-0.17,0.51-0.31,0.73-0.39
					C38.56,20.44,38.73,20.42,38.73,20.42z"/>
			</g>
			<g>
				<path class="st7" d="M40.98,17.83c-0.32-2.36-1.43-4.6-3.64-4.7c-2.52-0.11-3.15,1.95-3.27,4.07c0,0.01,0,0.02,0,0.02
					C37.02,16.36,39.54,17.14,40.98,17.83z M36.89,13.92c1.61-0.1,3.48,2.68,2.52,2.58c0,0-1.97-0.56-3.38-0.35
					C34.72,16.34,35.27,14.02,36.89,13.92z"/>
			</g>
		</g>
		<g>
			<g>
				<g>
					<path class="st6" d="M55.05,3.82c-0.1-0.23-0.21-0.45-0.33-0.67C52.55-0.12,50.71,0,49.68,0.92c-0.95,0.84-1.6,2.31-1.4,4.79
						C50.52,4.33,53.43,3.93,55.05,3.82z"/>
					<path class="st7" d="M51.1,0.13L51.1,0.13c0.86,0,2.23,0.5,3.83,2.9c0.13,0.24,0.24,0.47,0.35,0.71l0.13,0.3l-0.33,0.02
						c-1.54,0.1-4.46,0.48-6.66,1.85l-0.32,0.2l-0.03-0.37c-0.19-2.27,0.31-3.95,1.47-4.99C49.98,0.34,50.52,0.13,51.1,0.13z
						 M54.71,3.62c-0.06-0.12-0.12-0.24-0.18-0.36c-1.47-2.21-2.68-2.67-3.43-2.67l0,0c-0.46,0-0.89,0.17-1.26,0.5
						c-0.99,0.88-1.44,2.3-1.34,4.24C50.58,4.15,53.15,3.75,54.71,3.62z"/>
				</g>
				<g>
					<path class="st8" d="M48.36,6.42c0.4,2.93,1.84,5.51,1.84,5.51l6.43-1.03c0,0-0.15-3.89-1.57-7.07
						c-1.62,0.11-4.54,0.5-6.77,1.88C48.3,5.94,48.33,6.17,48.36,6.42z"/>
					<path class="st9" d="M55.2,3.59l0.07,0.14c1.42,3.18,1.58,7,1.59,7.16l0.01,0.2l-6.79,1.09L50,12.04
						c-0.06-0.11-1.46-2.65-1.86-5.59c-0.03-0.25-0.06-0.49-0.08-0.72l-0.01-0.14l0.12-0.08c2.29-1.42,5.29-1.81,6.87-1.92
						L55.2,3.59z M56.38,10.7c-0.05-0.82-0.33-3.98-1.47-6.64c-1.54,0.12-4.27,0.5-6.38,1.77c0.02,0.18,0.03,0.37,0.06,0.56
						c0.34,2.47,1.44,4.71,1.73,5.29L56.38,10.7z"/>
				</g>
				<g class="st3">
					<path class="st9" d="M50.33,6.52c0.31,0.99,1.1,1.93,0.47,2.77c-0.31,0.41-0.73,1.11-1.06,1.7c0.27,0.59,0.46,0.94,0.46,0.94
						l6.43-1.03c0,0-0.03-0.6-0.14-1.51c-0.56-0.38-1.26-0.83-1.77-1.04c-0.99-0.42-0.58-0.94-0.73-2.25
						c-0.12-1.03,0.44-1.58,1.18-2.02c-0.04-0.09-0.07-0.17-0.11-0.26c-1.62,0.11-4.54,0.5-6.77,1.88c0.01,0.11,0.02,0.23,0.04,0.35
						C49.13,5.94,50.14,5.93,50.33,6.52z"/>
				</g>
			</g>
			<g>
				<path class="st6" d="M54.33,8.95c0,0-0.21,0-0.51-0.06c-0.3-0.05-0.69-0.16-1.06-0.3c-0.37-0.14-0.73-0.32-0.99-0.48
					c-0.26-0.16-0.42-0.3-0.42-0.3s0.21,0,0.51,0.06c0.3,0.05,0.69,0.16,1.06,0.3c0.38,0.14,0.73,0.32,0.99,0.48
					C54.17,8.81,54.33,8.95,54.33,8.95z"/>
				<path class="st6" d="M51.69,9.35c0,0,0.06-0.18,0.2-0.4c0.13-0.22,0.34-0.49,0.58-0.74c0.24-0.24,0.5-0.46,0.72-0.6
					c0.21-0.15,0.39-0.21,0.39-0.21s-0.07,0.18-0.2,0.4c-0.14,0.22-0.35,0.49-0.58,0.74c-0.24,0.24-0.5,0.46-0.72,0.6
					C51.86,9.28,51.69,9.35,51.69,9.35z"/>
				<path class="st6" d="M53.36,6.71c0,0-0.2,0.01-0.47-0.03c-0.28-0.04-0.64-0.12-0.98-0.24c-0.34-0.12-0.68-0.28-0.91-0.43
					c-0.24-0.14-0.39-0.28-0.39-0.28s0.2-0.01,0.47,0.03C51.35,5.8,51.71,5.89,52.05,6c0.34,0.12,0.68,0.28,0.92,0.43
					C53.21,6.58,53.36,6.71,53.36,6.71z"/>
				<path class="st6" d="M51.52,7.23c0,0,0.04-0.19,0.16-0.43c0.11-0.24,0.28-0.55,0.49-0.83c0.21-0.28,0.45-0.53,0.65-0.71
					c0.2-0.18,0.37-0.27,0.37-0.27s-0.04,0.19-0.16,0.43c-0.11,0.25-0.29,0.55-0.49,0.83c-0.21,0.28-0.45,0.54-0.65,0.71
					C51.68,7.13,51.52,7.23,51.52,7.23z"/>
			</g>
			<g>
				<path class="st7" d="M48.29,5.71c2.23-1.38,5.15-1.78,6.77-1.88c-0.1-0.23-0.21-0.45-0.33-0.67C52.55-0.12,50.71,0,49.68,0.92
					C48.74,1.76,48.08,3.22,48.29,5.71z M51.02,1c1.87-0.3,3.18,2.37,1.97,2.42c0,0-1.67,0.1-2.88,0.7C48.9,4.74,49.15,1.3,51.02,1z
					"/>
			</g>
		</g>
		<g>
			<path class="st10" d="M67.71,38.05c0,0,2.37-2.43-0.26-5.31c-0.96-7.68-2.11-9.15-3.39-10.62c-1.41-2.05-2.63-4.48-3.52-6.98
				c-0.89-2.5-2.56-3.39-3.65-4.41s-2.69-1.28-4.86-0.9c-2.18,0.38-1.98,1.79-2.88,4.22c-0.9,2.43-1.99,9.98-1.99,14.01
				c-1.98-1.02-2.94-3.58-4.61-4.61c-1.66-1.02-5.38-2.05-7.68-1.02c-2.3,1.02-3.71,2.63-5.25,6.14c-1.53,3.52-3.52,7.1-2.3,10.18
				c3.27-2.75,15.89-7.13,22.01-7.2C55.46,31.47,67.71,38.05,67.71,38.05z"/>
			<path class="st11" d="M53.79,9.48c1.37,0,2.43,0.37,3.22,1.11c0.23,0.21,0.48,0.42,0.75,0.64c0.99,0.82,2.22,1.83,2.94,3.84
				c0.91,2.53,2.12,4.93,3.5,6.94c1.19,1.36,2.43,2.79,3.41,10.65c2.64,2.95,0.24,5.48,0.21,5.51l-0.09,0.09l-0.12-0.06
				c-0.12-0.06-12.15-6.48-18.18-6.48l-0.11,0c-6.18,0.08-18.7,4.46-21.9,7.16l-0.18,0.15l-0.09-0.22c-1.09-2.76,0.34-5.93,1.72-9
				c0.2-0.43,0.39-0.87,0.58-1.3c1.52-3.49,2.97-5.18,5.33-6.23c0.66-0.29,1.45-0.44,2.37-0.44c2.11,0,4.31,0.76,5.47,1.47
				c0.79,0.49,1.41,1.29,2.07,2.14c0.67,0.87,1.37,1.77,2.28,2.33c0.05-4.04,1.1-11.36,1.99-13.78c0.2-0.55,0.35-1.05,0.48-1.49
				c0.45-1.52,0.74-2.53,2.53-2.84C52.65,9.54,53.25,9.48,53.79,9.48z M67.67,37.83c0.39-0.46,1.88-2.53-0.34-4.98l-0.04-0.04
				l-0.01-0.05c-0.97-7.8-2.18-9.19-3.35-10.53c-1.41-2.05-2.64-4.48-3.55-7.03c-0.69-1.92-1.83-2.86-2.84-3.69
				c-0.28-0.23-0.53-0.43-0.76-0.66c-1.03-0.96-2.54-1.23-4.72-0.85c-1.58,0.28-1.82,1.11-2.26,2.6c-0.13,0.45-0.28,0.95-0.49,1.51
				c-0.9,2.45-1.97,10.02-1.97,13.96v0.28l-0.25-0.13c-1.1-0.57-1.89-1.58-2.65-2.56c-0.63-0.82-1.23-1.6-1.97-2.05
				c-1.15-0.71-3.33-1.42-5.29-1.42c-0.87,0-1.62,0.14-2.23,0.41c-2.3,1.03-3.65,2.61-5.16,6.06c-0.19,0.44-0.39,0.87-0.58,1.31
				c-1.31,2.92-2.68,5.93-1.8,8.51c3.51-2.74,15.81-7.01,21.93-7.09l0.11,0C55.32,31.38,66.33,37.12,67.67,37.83z"/>
		</g>
		<g class="st3">
			<path class="st10" d="M27.33,38.75c3.27-2.75,15.89-7.13,22.01-7.2c6.12-0.08,18.37,6.5,18.37,6.5s2.37-2.43-0.26-5.31
				c-0.96-7.68-2.11-9.15-3.39-10.62c-1.41-2.05-2.63-4.48-3.52-6.98c-0.89-2.5-2.56-3.39-3.65-4.41s-2.69-1.28-4.86-0.9
				c-2.18,0.38-1.98,1.79-2.88,4.22c-0.9,2.43-1.99,9.98-1.99,14.01c-1.98-1.02-2.94-3.58-4.61-4.61c-1.66-1.02-5.38-2.05-7.68-1.02
				c-2.3,1.02-3.71,2.63-5.25,6.14C28.1,32.1,26.11,35.68,27.33,38.75z M57.91,16.4c5.2,2.29,3.82,4.74,5.81,6.73
				c1.99,1.99,2.6,5.66,0.3,4.59c-2.29-1.07-2.44,0.3-0.61,2.6c1.84,2.29,2.45,3.21,0.61,2.44c0,0-4.28-2.9-8.87-3.82
				c-4.59-0.92,0.31-1.68,3.98-3.21c3.67-1.53,1.84-1.68-2.75-0.92c-4.59,0.76-6.12,1.99-6.12-2.6
				C50.25,17.63,52.7,14.11,57.91,16.4z M31.74,27.42c0.77-1.84,2.75-1.99,6.73-2.14c3.98-0.15,4.9,1.22,2.29,2.45
				c-2.6,1.22-3.67,2.6,1.53,1.83c5.2-0.76,8.41,0.77,5.97,0.62c0,0-7.04,0-13.92,2.6c-4.59,1.84-1.84-0.61-0.77-1.68
				c1.07-1.07,0.61-0.46-1.84-0.15C29.3,31.24,30.98,29.26,31.74,27.42z"/>
		</g>
		<g>
			<path class="st12" d="M90.44,62.59c0,0,1.67-0.34,1.86-1.4c0.19-1.06,0.46-4.06-1.25-4.97C90.17,55.91,90.44,62.59,90.44,62.59z"
				/>
			<path class="st13" d="M90.99,55.97L90.99,55.97c0.05,0,0.09,0.01,0.13,0.02c2.08,1.1,1.48,4.81,1.4,5.23
				c-0.21,1.2-1.97,1.57-2.04,1.59l-0.27,0.06l-0.01-0.27c-0.04-0.96-0.19-5.79,0.48-6.49C90.8,55.99,90.91,55.97,90.99,55.97z
				 M90.66,62.29c0.44-0.13,1.3-0.48,1.42-1.15c0.07-0.38,0.61-3.72-1.08-4.7C90.67,56.84,90.57,59.69,90.66,62.29z"/>
		</g>
		<g>
			<path class="st12" d="M11.86,37.29c0,0,0.31-1.15-1.76-1c-2.06,0.16-4.51,2.07-3.59,4.59C7.88,38.89,11.86,37.29,11.86,37.29z"/>
			<path class="st13" d="M10.46,36.05L10.46,36.05c0.7,0,1.19,0.17,1.45,0.51c0.22,0.29,0.21,0.63,0.17,0.79l-0.03,0.11l-0.11,0.04
				c-0.04,0.02-3.93,1.6-5.25,3.51l-0.25,0.37l-0.15-0.42c-0.37-1.01-0.26-2.01,0.31-2.89c0.71-1.1,2.11-1.91,3.48-2.01
				C10.22,36.06,10.34,36.05,10.46,36.05z M11.64,37.13c0-0.08-0.02-0.19-0.1-0.29c-0.17-0.21-0.54-0.32-1.08-0.32l0,0
				c-0.11,0-0.22,0-0.35,0.01c-1.23,0.09-2.49,0.82-3.13,1.8c-0.41,0.64-0.54,1.34-0.39,2.06C8.03,38.72,10.98,37.41,11.64,37.13z"
				/>
		</g>
		<g>
			<path class="st14" d="M7.46,47.85c-0.58-0.81-1.49-1.61-0.69-3.79c-0.11-1.84-0.57-3.9,0.69-5.16c1.26-1.26,4.13-2.87,5.05-0.8
				c0.92,0,1.6-0.69,4.24,2.87c1.95,0.46,2.3,0.8,4.13,4.25c1.61,0.23,3.1,1.26,3.1,1.26s0.34-0.57,1.95-3.33
				c0.46-2.41,1.14-5.51,4.24-7.34c3.1-1.83,12.62-4.59,19.96-4.7c7.34-0.12,15.95,3.67,18.01,6.08c2.07,2.41,4.7,7.92,5.85,9.75
				c1.14,1.84,2.75,3.1,3.44,3.21c0.69,0.11,1.72-0.12,2.41,0.69c0.69,0.8,0.69,1.38,2.64,1.38c1.95,0,4.7,1.15,6.77,2.18
				c2.06,1.03,2.06,2.75,2.06,5.74c0,2.98-1.84,3.21-8.03,7.8c-1.31,0.97-1.72,0.46-5.97-0.92c-1.84,2.06-5.39,2.87-5.39,2.87
				s-33.62,1.84-38.78,0C28,68.04,21.23,65.4,20.2,64.71c-1.03-0.69-2.3-4.13-3.56-6.08c-1.26-1.95-2.87-1.61-4.93-4.02
				C9.64,52.2,7.46,47.85,7.46,47.85z"/>
			<path class="st15" d="M50.47,30.86c7.3,0,15.73,3.68,17.86,6.16c1.44,1.68,3.18,4.89,4.44,7.23c0.58,1.07,1.08,1.99,1.43,2.55
				c1.11,1.77,2.66,3,3.28,3.11c0.16,0.03,0.35,0.03,0.55,0.04c0.63,0.02,1.42,0.05,2,0.72c0.13,0.15,0.23,0.29,0.33,0.42
				c0.42,0.56,0.65,0.88,2.14,0.88c2.04,0,4.86,1.2,6.87,2.2c2.19,1.1,2.19,2.92,2.19,5.94c0,2.34-1.14,3.12-4.19,5.21
				c-1.05,0.72-2.35,1.61-3.94,2.78c-0.44,0.33-0.85,0.55-1.4,0.55c-0.6,0-1.31-0.25-2.61-0.7c-0.56-0.19-1.22-0.42-2.03-0.69
				c-1.89,2.01-5.27,2.79-5.41,2.83c-0.19,0.01-15.12,0.82-26.48,0.82c-6.7,0-10.88-0.28-12.43-0.83
				c-5.29-1.88-11.98-4.5-13.02-5.19c-0.67-0.45-1.39-1.9-2.15-3.43c-0.48-0.97-0.98-1.96-1.47-2.72c-0.6-0.93-1.29-1.31-2.08-1.76
				c-0.83-0.47-1.77-1-2.83-2.23c-2.06-2.4-4.25-6.77-4.28-6.82c-0.04-0.06-0.11-0.14-0.18-0.23c-0.57-0.74-1.27-1.67-0.54-3.69
				c-0.02-0.28-0.04-0.57-0.07-0.86c-0.15-1.62-0.3-3.3,0.83-4.43c0.9-0.9,2.44-1.86,3.7-1.86c0.75,0,1.31,0.34,1.65,0.99
				c0.07-0.01,0.14-0.01,0.21-0.02c0.13-0.02,0.27-0.03,0.41-0.03c0.85,0,1.79,0.5,3.62,2.95c1.94,0.46,2.36,0.9,4.14,4.24
				c1.26,0.21,2.42,0.86,2.87,1.15c0.2-0.34,0.7-1.2,1.81-3.09c0.53-2.79,1.32-5.66,4.35-7.46c3.05-1.81,12.62-4.62,20.08-4.74
				C50.25,30.86,50.36,30.86,50.47,30.86z M82.04,68.19c0.37,0,0.67-0.12,1.12-0.46c1.59-1.18,2.9-2.07,3.95-2.79
				c3.06-2.09,3.99-2.73,3.99-4.83c0-2.94,0-4.56-1.94-5.53c-1.97-0.98-4.72-2.16-6.67-2.16c-1.64,0-2-0.38-2.51-1.06
				c-0.09-0.13-0.19-0.26-0.31-0.39c-0.45-0.52-1.07-0.55-1.66-0.57c-0.22-0.01-0.42-0.01-0.61-0.05c-0.82-0.14-2.46-1.5-3.6-3.32
				c-0.36-0.58-0.86-1.5-1.44-2.58c-1.26-2.33-2.98-5.51-4.39-7.15c-2.06-2.4-10.7-6.12-17.84-6c-7.39,0.11-16.84,2.89-19.85,4.67
				c-2.88,1.7-3.62,4.49-4.14,7.19l-0.03,0.08c-1.61,2.75-1.95,3.33-1.95,3.33l-0.13,0.21l-0.2-0.14c-0.02-0.01-1.47-1.01-3-1.23
				l-0.12-0.02l-0.05-0.1c-1.8-3.38-2.1-3.69-3.98-4.13l-0.08-0.02l-0.05-0.07c-2.22-2.99-2.96-2.88-3.66-2.8
				c-0.13,0.01-0.26,0.03-0.4,0.03h-0.15l-0.06-0.14c-0.26-0.58-0.68-0.86-1.3-0.86c-1.08,0-2.52,0.87-3.37,1.73
				c-0.98,0.98-0.84,2.55-0.7,4.06c0.03,0.31,0.06,0.62,0.08,0.92l0,0.05l-0.01,0.05c-0.67,1.82-0.1,2.57,0.46,3.3
				c0.07,0.09,0.14,0.19,0.2,0.27c0.04,0.07,2.21,4.39,4.23,6.75c1.01,1.18,1.91,1.68,2.71,2.13c0.82,0.46,1.58,0.89,2.24,1.91
				c0.5,0.78,1.01,1.79,1.49,2.77c0.7,1.41,1.43,2.87,2,3.25c1,0.67,7.65,3.26,12.92,5.14c1.5,0.53,5.63,0.8,12.27,0.8
				c11.35,0,26.27-0.81,26.42-0.82c0,0,3.47-0.81,5.23-2.79l0.1-0.11l0.14,0.05c0.87,0.28,1.59,0.53,2.18,0.74
				C80.83,67.96,81.52,68.19,82.04,68.19z"/>
		</g>
		<g>
			<path class="st14" d="M7.46,47.85c0,0,2.18,4.36,4.24,6.77c2.06,2.41,3.67,2.06,4.93,4.02c1.26,1.95,2.53,5.39,3.56,6.08
				c1.03,0.69,7.8,3.33,12.96,5.16c5.16,1.84,38.78,0,38.78,0s3.56-0.8,5.39-2.87c4.24,1.38,4.65,1.89,5.97,0.92
				c6.19-4.59,8.03-4.82,8.03-7.8c0-2.98,0-4.7-2.06-5.74c-2.06-1.03-4.82-2.18-6.77-2.18c-1.95,0-1.95-0.57-2.64-1.38
				c-0.69-0.81-1.72-0.57-2.41-0.69c-0.69-0.12-2.29-1.38-3.44-3.21c-1.15-1.83-3.79-7.34-5.85-9.75
				c-2.06-2.41-10.67-6.2-18.01-6.08c-7.34,0.11-16.86,2.87-19.96,4.7c-3.1,1.84-3.78,4.94-4.24,7.34
				c-1.61,2.75-1.95,3.33-1.95,3.33s-1.49-1.03-3.1-1.26c-1.84-3.44-2.18-3.79-4.13-4.25c-2.64-3.56-3.33-2.87-4.24-2.87
				c-0.92-2.07-3.79-0.46-5.05,0.8c-1.26,1.26-0.8,3.33-0.69,5.16C5.97,46.24,6.88,47.04,7.46,47.85z M80.39,60
				c1.22-2.3,1.07-6.27,3.52-4.28c2.45,1.99,4.59,4.59,3.98,2.6c-0.61-1.99-0.31-4.13,1.38-1.84c1.68,2.29,0,6.27-3.06,8.41
				c-3.06,2.14-5.35,1.07-2.9-0.61c2.45-1.68,3.36-4.29,0.3-2.3c0,0-3.67,3.37-6.12,3.21s-2.29-1.68-2.45-2.91
				C74.89,61.08,79.37,61.92,80.39,60z M31.28,44.86c4.74-3.98,3.83-4.74,1.22-3.06c-2.6,1.68-2.91-0.31-2.91-1.99
				c0-1.68,8.87-5.97,16.83-6.73c7.96-0.76,11.47,0.92,16.83,3.82c5.35,2.91,0.46,1.23-3.82,0c-4.29-1.22,0.15,1.38,5.05,4.13
				c4.9,2.75,13.46,14.38,10.71,15.3c0,0-2.91,0-3.67-1.53c-0.77-1.53-2.3-3.67-6.27-6.43c-3.98-2.75-10.4-3.52-11.47-5.05
				c-1.07-1.53-2.91-2.6-4.28-0.61c-1.38,1.99-4.28,1.69-7.8,3.21c-3.52,1.53-7.8,6.27-9.33,9.79c-1.53,3.52-3.37,2.6-6.42,1.84
				C22.87,56.79,23.18,50.21,31.28,44.86z M25.24,61.15c2.07,0.57,4.7,0.92,4.59,2.53c-0.11,1.61,0.8,4.02-1.49,2.98
				c0,0-3.9-0.92-5.85-2.06c-1.95-1.15-2.29-2.41-2.87-3.67C19.05,59.66,23.18,60.58,25.24,61.15z M12.72,42.44
				c4.07,0.29,5.43,1.74,1.55,1.74c-3.87,0-0.39,1.55,2.33,2.43c2.71,0.87,4.94,3.97,4.65,5.91c-0.29,1.94-1.07,5.24-1.07,5.24
				c-0.19,2.62-5.81-2.91-7.75-5.91c-1.94-3-3.59-3.1-3.59-4.85C8.84,45.25,8.65,42.15,12.72,42.44z"/>
		</g>
		<g>
			<path class="st11" d="M55.53,30.02c0,0-0.24-0.05-0.67-0.14c-0.43-0.1-1.04-0.21-1.77-0.38c-0.73-0.17-1.58-0.33-2.49-0.54
				c-0.46-0.09-0.92-0.22-1.4-0.3c-0.48-0.09-0.96-0.18-1.45-0.27c-0.24-0.04-0.49-0.11-0.72-0.13c-0.25-0.02-0.5-0.04-0.74-0.07
				c-0.48,0-0.94-0.03-1.4,0.02c-0.46,0.02-0.9,0.07-1.33,0.12c-0.42,0.05-0.82,0.12-1.18,0.19c-1.47,0.29-2.44,0.48-2.44,0.48
				s0.24-0.08,0.65-0.22c0.42-0.12,1.01-0.33,1.74-0.51c0.36-0.09,0.76-0.18,1.18-0.27c0.42-0.08,0.87-0.17,1.35-0.2
				c0.23-0.03,0.47-0.05,0.72-0.04c0.25-0.01,0.5-0.02,0.75-0.01c0.25,0.02,0.49,0.04,0.74,0.06c0.27,0.02,0.5,0.09,0.75,0.12
				c0.49,0.09,0.98,0.19,1.47,0.28c0.49,0.09,0.95,0.23,1.4,0.34c0.91,0.23,1.75,0.47,2.47,0.68
				C54.59,29.68,55.53,30.02,55.53,30.02z"/>
			<path class="st11" d="M67.45,32.74c0,0-0.34-0.25-0.81-0.66c-0.24-0.2-0.51-0.45-0.79-0.71c-0.28-0.26-0.58-0.55-0.89-0.83
				c-0.59-0.57-1.19-1.14-1.63-1.57c-0.22-0.22-0.42-0.37-0.55-0.51c-0.13-0.12-0.21-0.2-0.21-0.2s0.09,0.04,0.26,0.12
				c0.16,0.09,0.41,0.19,0.66,0.37c0.26,0.18,0.57,0.38,0.87,0.64c0.3,0.25,0.62,0.52,0.92,0.81c0.61,0.57,1.16,1.2,1.55,1.68
				C67.23,32.38,67.45,32.74,67.45,32.74z"/>
			<path class="st11" d="M27.15,37.06c0,0-0.01-0.11,0.01-0.32c0.03-0.2,0.05-0.49,0.14-0.82c0.04-0.17,0.1-0.35,0.17-0.54
				c0.08-0.18,0.15-0.38,0.26-0.57c0.1-0.2,0.21-0.4,0.34-0.59c0.12-0.2,0.27-0.37,0.41-0.56c0.15-0.18,0.32-0.34,0.47-0.51
				c0.16-0.16,0.34-0.3,0.51-0.44c0.17-0.13,0.35-0.25,0.51-0.36c0.16-0.11,0.34-0.19,0.49-0.28c0.3-0.18,0.58-0.26,0.76-0.33
				c0.19-0.07,0.3-0.11,0.3-0.11s-0.09,0.07-0.26,0.19c-0.08,0.06-0.18,0.12-0.29,0.2c-0.12,0.07-0.23,0.18-0.37,0.28
				c-0.13,0.1-0.28,0.2-0.43,0.33c-0.14,0.12-0.29,0.26-0.45,0.39c-0.15,0.15-0.3,0.29-0.46,0.45c-0.14,0.16-0.29,0.32-0.43,0.49
				c-0.14,0.17-0.28,0.34-0.4,0.52c-0.13,0.18-0.25,0.35-0.35,0.53c-0.22,0.35-0.39,0.7-0.53,1c-0.14,0.3-0.24,0.57-0.3,0.76
				C27.19,36.95,27.15,37.06,27.15,37.06z"/>
			<path class="st11" d="M49.34,28.49c0,0,0.13-0.12,0.38-0.32c0.25-0.19,0.6-0.47,1.05-0.76c0.45-0.3,1-0.61,1.6-0.92
				c0.31-0.15,0.62-0.31,0.95-0.44c0.33-0.14,0.66-0.27,1-0.39c0.34-0.13,0.69-0.23,1.03-0.33c0.34-0.11,0.68-0.17,1.01-0.25
				c0.33-0.09,0.65-0.13,0.96-0.18c0.3-0.06,0.6-0.09,0.86-0.1c0.54-0.06,0.99-0.06,1.3-0.06c0.31,0,0.49,0,0.49,0
				s-0.18,0.04-0.48,0.09c-0.16,0.02-0.34,0.05-0.56,0.09c-0.21,0.03-0.45,0.09-0.71,0.14c-0.26,0.05-0.54,0.11-0.84,0.18
				c-0.3,0.08-0.61,0.14-0.93,0.23c-0.64,0.18-1.32,0.38-1.98,0.62c-0.67,0.23-1.32,0.51-1.93,0.76c-0.61,0.27-1.17,0.53-1.64,0.78
				c-0.47,0.24-0.87,0.45-1.14,0.61C49.49,28.4,49.34,28.49,49.34,28.49z"/>
			<path class="st11" d="M61.27,17.02c0,0-0.09-0.08-0.24-0.21c-0.15-0.14-0.38-0.31-0.65-0.52c-0.27-0.21-0.6-0.44-0.96-0.67
				c-0.37-0.22-0.75-0.46-1.16-0.65c-0.4-0.21-0.83-0.37-1.23-0.52c-0.2-0.08-0.4-0.13-0.58-0.19c-0.19-0.06-0.36-0.1-0.53-0.14
				c-0.17-0.04-0.32-0.08-0.46-0.11c-0.14-0.03-0.26-0.05-0.36-0.06c-0.2-0.04-0.32-0.06-0.32-0.06s0.11-0.01,0.32-0.03
				c0.2-0.01,0.5-0.03,0.85,0c0.18,0.01,0.37,0.03,0.57,0.07c0.2,0.04,0.42,0.06,0.63,0.14c0.21,0.07,0.44,0.11,0.66,0.21
				c0.22,0.09,0.44,0.17,0.65,0.28c0.22,0.1,0.42,0.22,0.62,0.35c0.21,0.11,0.39,0.26,0.57,0.38c0.35,0.27,0.67,0.54,0.91,0.8
				c0.25,0.25,0.42,0.49,0.55,0.66C61.22,16.91,61.27,17.02,61.27,17.02z"/>
			<path class="st11" d="M57.31,11.37c0,0-0.43-0.06-1.06-0.11c-0.32-0.02-0.68-0.05-1.08-0.05c-0.39,0-0.81,0.01-1.22,0.05
				c-0.2,0.03-0.41,0.04-0.61,0.08c-0.2,0.04-0.4,0.07-0.59,0.12c-0.19,0.04-0.37,0.09-0.54,0.15c-0.17,0.06-0.34,0.1-0.48,0.17
				c-0.15,0.06-0.28,0.12-0.4,0.17c-0.11,0.06-0.21,0.11-0.3,0.15c-0.17,0.08-0.27,0.13-0.27,0.13s0.08-0.08,0.22-0.2
				c0.07-0.06,0.16-0.14,0.26-0.23c0.11-0.07,0.23-0.16,0.37-0.25c0.14-0.1,0.3-0.17,0.47-0.25c0.17-0.09,0.35-0.16,0.56-0.22
				c0.39-0.14,0.83-0.22,1.26-0.27c0.44-0.04,0.88-0.04,1.29,0c0.41,0.04,0.79,0.11,1.1,0.19C56.92,11.16,57.31,11.37,57.31,11.37z"
				/>
		</g>
		<g>
			<path class="st15" d="M84.79,62.53c0,0-0.08,0.11-0.23,0.3c-0.17,0.17-0.39,0.44-0.68,0.74c-0.31,0.28-0.68,0.6-1.08,0.94
				c-0.43,0.3-0.9,0.61-1.37,0.91c-0.26,0.15-0.5,0.25-0.74,0.38c-0.25,0.11-0.53,0.21-0.78,0.28c-0.26,0.08-0.51,0.13-0.74,0.17
				c-0.23,0.05-0.45,0.08-0.63,0.15c-0.19,0.05-0.36,0.13-0.51,0.2c-0.15,0.06-0.27,0.14-0.37,0.21C77.46,66.94,77.33,67,77.33,67
				s0.09-0.1,0.27-0.27c0.09-0.08,0.2-0.19,0.34-0.28c0.14-0.1,0.3-0.22,0.5-0.3c0.19-0.1,0.42-0.17,0.65-0.24
				c0.23-0.06,0.46-0.14,0.7-0.22c0.24-0.08,0.46-0.19,0.7-0.29c0.24-0.13,0.5-0.25,0.72-0.38c0.46-0.29,0.92-0.58,1.36-0.84
				c0.41-0.3,0.8-0.58,1.14-0.81c0.32-0.26,0.6-0.46,0.79-0.61C84.68,62.61,84.79,62.53,84.79,62.53z"/>
			<path class="st15" d="M79.74,59.31c0,0-0.1,0.08-0.3,0.21c-0.2,0.12-0.49,0.29-0.86,0.45c-0.19,0.08-0.39,0.15-0.61,0.23
				c-0.22,0.06-0.46,0.12-0.71,0.18c-0.25,0.03-0.51,0.07-0.78,0.09c-0.27-0.01-0.54-0.01-0.81-0.02c-1.05-0.07-2.1-0.19-2.89-0.3
				c-0.39-0.03-0.72-0.08-0.94-0.11C71.61,60.03,71.48,60,71.48,60s0.13-0.02,0.36-0.04c0.23-0.02,0.57-0.05,0.96-0.07
				c0.79-0.01,1.85,0.03,2.9,0.1c0.26,0.01,0.51,0.02,0.76,0.04c0.25-0.02,0.5-0.04,0.74-0.05c0.24-0.04,0.47-0.08,0.68-0.11
				c0.22-0.05,0.42-0.1,0.61-0.15c0.19-0.05,0.36-0.11,0.51-0.15c0.15-0.05,0.28-0.1,0.39-0.13C79.62,59.36,79.74,59.31,79.74,59.31
				z"/>
			<path class="st15" d="M78.83,55.19c0,0-0.21-0.31-0.59-0.85c-0.18-0.27-0.41-0.6-0.67-0.98c-0.26-0.38-0.53-0.82-0.82-1.3
				c-0.59-0.96-1.29-2.08-2.01-3.29c-0.09-0.15-0.18-0.32-0.27-0.44c-0.1-0.15-0.19-0.3-0.29-0.46c-0.2-0.3-0.38-0.63-0.61-0.91
				c-0.23-0.28-0.46-0.56-0.69-0.84c-0.11-0.15-0.24-0.28-0.38-0.4l-0.4-0.39c-0.5-0.54-1.09-1-1.66-1.46
				c-0.28-0.24-0.58-0.44-0.88-0.65c-0.29-0.2-0.59-0.41-0.87-0.61c-0.58-0.38-1.17-0.72-1.71-1.07c-0.54-0.35-1.09-0.61-1.58-0.89
				c-0.5-0.27-0.94-0.53-1.35-0.73c-0.41-0.21-0.76-0.39-1.05-0.54c-0.58-0.31-0.92-0.48-0.92-0.48s0.35,0.15,0.95,0.4
				c0.3,0.13,0.67,0.29,1.09,0.47c0.43,0.17,0.89,0.41,1.4,0.66c0.5,0.26,1.06,0.5,1.62,0.83c0.56,0.32,1.17,0.64,1.76,1.03
				c0.29,0.2,0.59,0.4,0.9,0.6c0.3,0.2,0.61,0.4,0.9,0.65c0.58,0.47,1.19,0.93,1.72,1.48l0.41,0.4c0.14,0.13,0.27,0.27,0.38,0.42
				c0.24,0.3,0.48,0.6,0.71,0.89c0.24,0.29,0.4,0.62,0.6,0.93c0.1,0.15,0.19,0.3,0.29,0.46c0.11,0.17,0.18,0.31,0.27,0.47
				c0.7,1.22,1.33,2.37,1.88,3.35c0.28,0.49,0.51,0.95,0.75,1.35c0.23,0.39,0.44,0.74,0.6,1.02C78.64,54.86,78.83,55.19,78.83,55.19
				z"/>
			<path class="st15" d="M33.85,41.76c0,0-0.07,0.05-0.2,0.13c-0.14,0.08-0.32,0.22-0.56,0.38c-0.24,0.16-0.53,0.36-0.85,0.61
				c-0.32,0.24-0.69,0.52-1.09,0.81c-0.78,0.62-1.69,1.34-2.66,2.12c-0.48,0.39-0.98,0.8-1.49,1.21c-0.5,0.42-1.01,0.84-1.48,1.29
				c-0.25,0.21-0.46,0.46-0.68,0.69c-0.11,0.12-0.2,0.25-0.3,0.38c-0.1,0.13-0.2,0.25-0.27,0.39l-0.24,0.4
				c-0.07,0.14-0.13,0.29-0.19,0.43c-0.14,0.28-0.2,0.57-0.3,0.88c-0.1,0.3-0.15,0.59-0.23,0.88c-0.07,0.28-0.14,0.57-0.2,0.85
				c-0.13,0.56-0.24,1.09-0.33,1.57c-0.38,1.96-0.63,3.27-0.63,3.27s0.03-0.33,0.08-0.91c0.06-0.58,0.14-1.41,0.29-2.39
				c0.07-0.5,0.16-1.03,0.26-1.6c0.09-0.56,0.21-1.18,0.38-1.78c0.09-0.29,0.16-0.62,0.3-0.92c0.07-0.15,0.12-0.31,0.2-0.46
				l0.25-0.44c0.08-0.15,0.19-0.28,0.28-0.42c0.1-0.14,0.2-0.28,0.32-0.41c0.23-0.25,0.45-0.52,0.7-0.74
				c0.49-0.46,1.02-0.89,1.53-1.3c0.52-0.4,1.02-0.8,1.51-1.19c0.49-0.39,0.98-0.74,1.45-1.07c0.47-0.33,0.9-0.65,1.31-0.94
				c0.84-0.55,1.53-1.01,2.05-1.29C33.55,41.9,33.85,41.76,33.85,41.76z"/>
			<path class="st15" d="M30.63,61.15c0,0-0.11,0.01-0.32,0.01c-0.2-0.01-0.49,0.01-0.84-0.02c-0.34-0.01-0.74-0.05-1.18-0.1
				c-0.21-0.03-0.44-0.05-0.66-0.09c-0.22-0.04-0.45-0.08-0.68-0.12c-0.45-0.08-0.9-0.21-1.32-0.33c-0.21-0.05-0.4-0.14-0.59-0.2
				c-0.19-0.07-0.36-0.14-0.52-0.2c-0.17-0.06-0.3-0.15-0.43-0.22c-0.12-0.07-0.23-0.13-0.32-0.18c-0.17-0.1-0.27-0.16-0.27-0.16
				s0.11,0.03,0.31,0.08c0.1,0.03,0.21,0.07,0.34,0.1c0.14,0.03,0.28,0.09,0.45,0.12c0.17,0.04,0.35,0.08,0.54,0.12
				c0.19,0.04,0.38,0.1,0.6,0.14c0.42,0.07,0.86,0.19,1.31,0.27c0.45,0.09,0.89,0.18,1.31,0.26c0.42,0.09,0.81,0.17,1.15,0.24
				c0.33,0.08,0.61,0.14,0.81,0.19C30.52,61.13,30.63,61.15,30.63,61.15z"/>
			<path class="st15" d="M20.65,44.97c0,0-0.38,0.05-0.94,0.07c-0.56,0.03-1.31,0.01-2.05-0.02c-0.37-0.02-0.74-0.04-1.09-0.07
				c-0.35-0.04-0.67-0.05-0.95-0.08c-0.55-0.05-0.93-0.12-0.93-0.12s0.37-0.08,0.93-0.14c0.28-0.03,0.61-0.07,0.96-0.06
				c0.35,0,0.73,0.01,1.1,0.02c0.37,0.02,0.75,0.04,1.1,0.09c0.35,0.04,0.67,0.08,0.95,0.13C20.29,44.87,20.65,44.97,20.65,44.97z"
				/>
			<path class="st15" d="M16.75,41.07c0,0-0.06,0.01-0.18,0.02c-0.11,0.01-0.27,0.02-0.46,0.04c-0.19,0.01-0.41,0.02-0.65,0.01
				c-0.23,0-0.48,0-0.73-0.01c-0.25-0.01-0.5-0.03-0.73-0.05c-0.23,0-0.45-0.01-0.63-0.03c-0.38-0.03-0.64-0.09-0.64-0.09
				s0.24-0.09,0.62-0.17c0.19-0.04,0.41-0.08,0.65-0.11c0.24-0.01,0.49,0,0.75,0c0.25,0.02,0.51,0.02,0.74,0.07
				c0.24,0.04,0.46,0.08,0.64,0.13C16.51,40.96,16.75,41.07,16.75,41.07z"/>
			<path class="st15" d="M86.86,56.45c0,0-0.08-0.09-0.21-0.23c-0.12-0.15-0.33-0.34-0.56-0.58c-0.12-0.12-0.26-0.23-0.39-0.36
				c-0.14-0.13-0.28-0.27-0.44-0.39c-0.16-0.13-0.33-0.26-0.49-0.4c-0.16-0.15-0.35-0.26-0.53-0.39c-0.17-0.13-0.35-0.26-0.52-0.39
				c-0.18-0.11-0.37-0.23-0.54-0.34c-0.17-0.11-0.34-0.22-0.5-0.32c-0.16-0.11-0.32-0.18-0.47-0.27c-0.29-0.16-0.53-0.31-0.71-0.4
				c-0.17-0.1-0.26-0.17-0.26-0.17s0.11,0.02,0.3,0.08c0.19,0.06,0.46,0.13,0.78,0.25c0.16,0.06,0.34,0.1,0.51,0.2
				c0.17,0.09,0.36,0.18,0.55,0.28c0.18,0.1,0.38,0.2,0.57,0.31c0.18,0.13,0.37,0.26,0.56,0.39c0.18,0.14,0.38,0.26,0.54,0.42
				c0.17,0.15,0.32,0.31,0.48,0.45c0.16,0.14,0.29,0.31,0.41,0.45c0.13,0.15,0.25,0.29,0.35,0.43c0.2,0.28,0.35,0.52,0.44,0.7
				C86.82,56.34,86.86,56.45,86.86,56.45z"/>
			<path class="st15" d="M16.18,57.94c0,0-0.1-0.04-0.27-0.13c-0.17-0.1-0.41-0.23-0.68-0.43c-0.55-0.39-1.21-0.99-1.76-1.71
				c-0.27-0.36-0.52-0.73-0.71-1.11c-0.11-0.18-0.19-0.37-0.26-0.55c-0.08-0.17-0.14-0.35-0.19-0.51c-0.11-0.31-0.16-0.59-0.2-0.78
				c-0.04-0.19-0.05-0.3-0.05-0.3s0.05,0.1,0.14,0.27c0.04,0.09,0.09,0.19,0.15,0.31c0.06,0.12,0.13,0.25,0.21,0.39
				c0.15,0.29,0.34,0.61,0.56,0.95c0.22,0.33,0.46,0.69,0.73,1.03c0.25,0.35,0.54,0.67,0.8,0.98c0.27,0.3,0.53,0.58,0.76,0.81
				c0.23,0.23,0.42,0.43,0.57,0.56C16.1,57.86,16.18,57.94,16.18,57.94z"/>
		</g>
		<g>
			<g>
				<g>
					<g>
						<path class="st0" d="M38.69,53.07c0.34,1.76,2.48,2.85,4.07,3.7c4,2.15,8.71,2.59,13.12,1.18c2.31-0.74,4.85-1.46,6.83-2.79
							c0.8-0.54,1.47-1.58,1.53-2.81c0.03-0.54-0.06-1.22-0.38-1.68c-0.2-0.27-0.53-0.47-0.82-0.7c0.02-0.01,0.03-0.03,0.02-0.05
							c-0.86-1.48-2.17-2.56-3.74-3.31c-1.62-0.79-3.29-1.1-4.95-1.28c-0.52-0.27-0.91-0.78-1.28-1.23
							c-0.33-0.4-0.81-0.91-1.33-0.96c-0.59-0.06-1.07,0.33-1.49,0.74c-0.36,0.35-0.69,0.73-1.04,1.1
							c-0.71,0.25-1.45,0.26-2.16,0.32c-0.76,0.06-1.53,0.31-2.27,0.61c-1.12,0.46-2.06,1.14-2.94,1.9
							C40.19,49.06,38.31,51.08,38.69,53.07z"/>
						<path class="st16" d="M51.05,46.1c1.84-0.04,3.69,0.2,5.49,0.57c0.34,0.07,0.71,0.13,1.09,0.2c-1.47-0.63-2.98-1-4.68-1.18
							c-1.17-0.13-2.45,0.03-3.68,0.3c-0.71,0.15-1.45,0.32-2.17,0.57C48.41,46.35,49.73,46.13,51.05,46.1z"/>
						<path class="st2" d="M38.69,53.07c0.34,1.76,2.48,2.85,4.07,3.7c4,2.15,8.71,2.59,13.12,1.18c2.31-0.74,4.85-1.46,6.83-2.79
							c0.8-0.54,1.47-1.58,1.53-2.81c0.03-0.54-0.06-1.22-0.38-1.68c-0.2-0.27-0.53-0.47-0.82-0.7c0.02-0.01,0.03-0.03,0.02-0.05
							c-0.86-1.48-2.17-2.56-3.74-3.31c-1.46-0.71-2.95-1.03-4.45-1.22c-0.17-0.04-0.34-0.06-0.51-0.06
							c-0.52-0.27-0.9-0.78-1.27-1.22c-0.33-0.4-0.81-0.91-1.33-0.96c-0.59-0.06-1.07,0.33-1.49,0.74c-0.36,0.35-0.69,0.73-1.04,1.1
							c-0.22,0.08-0.44,0.13-0.66,0.17c-0.18,0.02-0.36,0.03-0.54,0.06c-0.02,0-0.04,0.01-0.05,0.02c-0.3,0.03-0.6,0.04-0.9,0.07
							c-0.76,0.06-1.53,0.31-2.27,0.61c-1.12,0.46-2.06,1.14-2.94,1.9C40.19,49.06,38.31,51.08,38.69,53.07z M39.22,51.35
							c0.32-0.91,0.99-1.64,1.71-2.34c0.03-0.01,0.05-0.02,0.07-0.04c0.64-0.55,1.23-1.17,1.93-1.7c0.68-0.51,1.48-0.89,2.25-1.19
							c0.79-0.31,1.55-0.44,2.34-0.5c0.36-0.03,0.98-0.05,1.37-0.14c0.73-0.08,1.47-0.26,2.19-0.31c-0.52-0.03-1.04-0.04-1.56-0.03
							c0.21-0.17,0.33-0.37,0.63-0.72c0.54-0.64,1.22-1.25,2.02-0.73c0.63,0.41,1.1,1.27,1.77,1.67c-0.07,0-0.13,0-0.2-0.01
							c-0.37-0.02-0.73-0.14-1.09-0.05c-0.04,0.01,0.66,0.09,0.7,0.09c1.85,0.1,3.68,0.56,5.4,1.21c1.25,0.47,2.6,1.55,3.52,2.52
							c-0.03,0.01-0.05,0.03-0.04,0.08c0.08,0.32,0.27,0.55,0.51,0.78c0.45,0.41,0.9,0.67,1.09,1.26c0.27,0.84,0.14,1.72-0.2,2.46
							c-0.76,1.66-2.49,2.12-4.04,2.7c-3.89,1.44-8.12,2.79-12.09,1.85c-2.54-0.6-5.07-1.7-7.22-3.34
							C39.28,54.12,38.67,52.9,39.22,51.35z"/>
						<path class="st17" d="M51.4,43.7c0.04,0.24,0.1,0.46,0.1,0.71c0.01,0.22,0.03,0.44,0.03,0.66c0,0.02,0.03,0.02,0.04,0
							c0.02-0.22,0.06-0.44,0.09-0.66c0.04-0.24,0.11-0.47,0.17-0.7C51.91,43.37,51.35,43.35,51.4,43.7z"/>
					</g>
				</g>
				<path class="st0" d="M54.36,45.33c-0.52-0.27-0.9-0.78-1.27-1.22c-0.27-0.32-0.63-0.71-1.03-0.88c0.04,0.06,0.06,0.13,0.06,0.23
					c-0.01,0.63,0.11,1.21-0.57,1.52c-0.17,0.08-0.39-0.03-0.48-0.17c-0.27-0.4-0.27-0.91-0.19-1.37c0.01-0.04,0.03-0.06,0.04-0.09
					c-0.23,0.14-0.45,0.33-0.65,0.52c-0.36,0.35-0.69,0.73-1.04,1.1c-0.24,0.09-0.48,0.14-0.72,0.18c-0.04,0.06-0.08,0.11-0.12,0.17
					C50.51,44.98,53.25,45.21,54.36,45.33z"/>
				<path class="st0" d="M38.69,53.07c0.34,1.76,2.48,2.85,4.07,3.7c4,2.15,8.71,2.59,13.12,1.18c2.31-0.74,4.85-1.46,6.83-2.79
					c0.8-0.54,1.47-1.58,1.53-2.81c0.03-0.54-0.06-1.22-0.38-1.68c-0.2-0.27-0.53-0.47-0.82-0.7c0.02-0.01,0.03-0.03,0.02-0.05
					c-0.85-1.47-2.16-2.54-3.71-3.3c0.51,0.6,0.61,1.23-0.68,1.56c-2.93,0.74-5.49,0.87-8.57,2.4c-2.41,1.11-2.14,0.6-2.2-0.58
					c-0.06-1.18-0.68-1.74-1.9-2.47c-1.22-0.72-0.21-1.59,1.51-1.96c0.02-0.11,0.02-0.2,0.03-0.31c-0.16,0.01-0.33,0.02-0.48,0.04
					c-0.76,0.06-1.53,0.31-2.27,0.61c-1.12,0.46-2.06,1.14-2.94,1.9C40.19,49.06,38.31,51.08,38.69,53.07z"/>
			</g>
			<g>
				<path class="st18" d="M42.85,81.2c-2.36,1.22-2.76,2.19-0.49,1.79c1.3,1.54,3.25-1.22,3.25-1.22s3.17,5.28,10.24,2.6
					c2.11-1.22,3.66-0.32,3.66-0.32s0.49-1.87-0.98-2.03c0,0,8.78-1.71,12.11-7.8c-1.46,1.22-2.35,1.54-2.35,1.54
					s3.9-3.33,4.14-6.83c0.81-1.22,1.71-0.97,1.71-0.97s-0.73-1.79-2.2-1.22c2.2-2.6,1.87-4.96,0.24-6.01
					c0,1.38-0.41,1.54-0.41,1.54s0.57-3.65-1.63-4.63c0.65-4.55-1.87-5.93-3.25-6.42c-1.63-1.3-2.52-2-3.54-1.59
					c0.21-1.23-1.85-2.19-3.7-0.82c-0.62-0.41-1.58-0.07-1.58-0.07c-0.27-1.37-3.91-1.58-5.69-0.55c-0.34-1.1-2.06-0.48-2.4,0
					c-1.03-0.89-4.93-0.55-5.55,0.21c-0.14-1.92-1.99-0.41-3.02,0.75c-0.41-2.06-4.8,0.89-5,4.04c-1.51-0.41-3.36,4.73-3.43,7.06
					c-1.16,0.07-2.53,6.78,1.1,10.42C34.09,72.45,36.73,79.4,42.85,81.2z"/>
				<path class="st19" d="M43.79,47.3c0.3,0,0.65,0.14,0.78,0.76c0.63-0.38,1.96-0.58,3.06-0.58c0.63,0,1.72,0.06,2.34,0.47
					c0.3-0.28,0.92-0.55,1.49-0.55c0.48,0,0.83,0.19,1.02,0.54c0.73-0.37,1.72-0.58,2.76-0.58c1.19,0,2.62,0.3,2.96,1.15
					c0.16-0.04,0.41-0.09,0.69-0.09c0.29,0,0.55,0.06,0.76,0.17c0.75-0.53,1.45-0.64,1.91-0.64c0.69,0,1.31,0.25,1.68,0.68
					c0.19,0.22,0.29,0.48,0.31,0.74c0.99-0.25,1.94,0.48,3.44,1.68c1.85,0.66,3.9,2.32,3.35,6.47c1.28,0.65,1.62,2.16,1.67,3.32
					c0-0.04,0-0.08,0-0.13v-0.32l0.26,0.17c0.74,0.48,1.22,1.23,1.35,2.1c0.17,1.15-0.27,2.48-1.25,3.78c0.04,0,0.08-0.01,0.12-0.01
					c1.19,0,1.77,1.38,1.79,1.44l0.13,0.32l-0.34-0.09l0,0c0,0-0.06-0.01-0.15-0.01c-0.28,0-0.82,0.12-1.34,0.88
					c-0.19,2.43-2.06,4.74-3.24,5.97c0.33-0.22,0.72-0.51,1.17-0.88l0.69-0.58l-0.43,0.79c-2.83,5.17-9.59,7.23-11.63,7.75
					c0.13,0.08,0.24,0.19,0.33,0.32c0.46,0.66,0.2,1.68,0.18,1.72l-0.05,0.22l-0.2-0.11c-0.01,0-0.52-0.29-1.35-0.29
					c-0.71,0-1.43,0.21-2.14,0.62c-1.37,0.52-2.68,0.78-3.9,0.78c-3.8,0-5.89-2.49-6.43-3.24c-0.36,0.46-1.34,1.57-2.33,1.57
					c-0.37,0-0.7-0.15-0.98-0.45c-0.98,0.16-1.52,0.07-1.61-0.29c-0.12-0.51,0.9-1.19,1.72-1.65c-5.76-1.96-8.42-8.56-8.48-10.5
					c-2.7-2.76-2.71-7.34-1.86-9.58c0.16-0.42,0.41-0.91,0.76-1.05c0.12-2.32,1.79-7.12,3.42-7.12l0,0c0,0,0.01,0,0.02,0
					c0.28-2.45,2.86-4.7,4.34-4.7c0.42,0,0.73,0.18,0.89,0.52C41.97,48.31,43.02,47.3,43.79,47.3z M44.3,48.83l-0.03-0.43
					c-0.05-0.76-0.38-0.76-0.48-0.76c-0.56,0-1.53,0.81-2.24,1.61l-0.23,0.26l-0.07-0.34c-0.07-0.37-0.29-0.54-0.65-0.54
					c-1.36,0-3.86,2.26-4.01,4.57l-0.01,0.21l-0.2-0.06c-0.04-0.01-0.09-0.02-0.13-0.02c-1.3,0-3.02,4.63-3.08,6.92l-0.01,0.16
					l-0.15,0.01c-0.14,0.01-0.38,0.24-0.62,0.86c-0.64,1.69-1.08,6.37,1.83,9.27l0.05,0.05v0.07c0,1.82,2.69,8.62,8.63,10.37
					l0.41,0.12l-0.38,0.2c-1.51,0.78-1.94,1.32-1.9,1.46c0.01,0.03,0.11,0.1,0.46,0.1c0.22,0,0.51-0.03,0.84-0.09l0.1-0.02
					l0.06,0.08c0.23,0.28,0.49,0.41,0.79,0.41c1.04,0,2.18-1.6,2.19-1.62l0.15-0.21l0.14,0.23c0.02,0.03,2.02,3.28,6.27,3.28
					c1.19,0,2.45-0.25,3.76-0.75c0.74-0.43,1.51-0.65,2.29-0.65c0.6,0,1.06,0.14,1.31,0.24c0.04-0.3,0.08-0.86-0.18-1.24
					c-0.15-0.22-0.38-0.34-0.69-0.37l-1.12-0.13l1.1-0.21c0.08-0.02,7.96-1.6,11.51-6.91c-1.03,0.75-1.63,0.98-1.66,0.99l-0.89,0.33
					l0.72-0.62c0.04-0.03,3.85-3.33,4.08-6.71l0-0.05l0.03-0.04c0.57-0.85,1.19-1.04,1.56-1.07c-0.2-0.36-0.66-0.97-1.34-0.97
					c-0.16,0-0.33,0.03-0.5,0.1l-0.63,0.24l0.44-0.51c1.13-1.34,1.65-2.72,1.48-3.9c-0.1-0.68-0.42-1.25-0.94-1.68
					c-0.06,1.13-0.43,1.34-0.51,1.37l-0.28,0.11l0.05-0.3c0.01-0.03,0.52-3.54-1.52-4.45l-0.12-0.05l0.02-0.13
					c0.46-3.19-0.63-5.35-3.14-6.23l-0.05-0.03c-1.55-1.24-2.43-1.94-3.37-1.57l-0.28,0.12l0.05-0.3c0.04-0.26-0.03-0.52-0.22-0.74
					c-0.3-0.35-0.83-0.56-1.41-0.56c-0.43,0-1.09,0.11-1.8,0.64l-0.09,0.07l-0.1-0.07c-0.17-0.11-0.4-0.18-0.67-0.18
					c-0.4,0-0.74,0.13-0.75,0.13l-0.19,0.07l-0.04-0.2c-0.12-0.62-1.22-1.06-2.67-1.06c-1.05,0-2.09,0.23-2.76,0.62l-0.19,0.11
					l-0.07-0.2c-0.1-0.33-0.36-0.49-0.76-0.49c-0.57,0-1.18,0.32-1.33,0.54l-0.11,0.16l-0.14-0.13c-0.35-0.3-1.19-0.49-2.25-0.49
					c-1.38,0-2.75,0.3-3.06,0.67L44.3,48.83z"/>
			</g>
			<g>
				<path class="st11" d="M46.36,77.14c0,0,0.05,0.03,0.15,0.06c0.1,0.04,0.25,0.09,0.44,0.15c0.2,0.05,0.43,0.13,0.71,0.17
					c0.28,0.06,0.59,0.09,0.93,0.13c0.17,0.02,0.35,0.01,0.54,0.02c0.19,0.01,0.38,0.01,0.57-0.02c0.19-0.02,0.4-0.03,0.6-0.06
					c0.2-0.04,0.41-0.08,0.61-0.12c0.21-0.03,0.41-0.11,0.62-0.18c0.21-0.08,0.42-0.13,0.62-0.22c0.2-0.09,0.41-0.19,0.61-0.29
					c0.1-0.05,0.21-0.09,0.31-0.15l0.29-0.19l0.58-0.36c0.2-0.11,0.36-0.27,0.54-0.41c0.17-0.14,0.35-0.28,0.53-0.41
					c0.18-0.13,0.32-0.3,0.48-0.45c0.16-0.15,0.31-0.3,0.46-0.44c0.15-0.14,0.3-0.28,0.42-0.44c0.26-0.3,0.5-0.59,0.73-0.85
					c0.24-0.26,0.41-0.52,0.59-0.75c0.17-0.23,0.31-0.43,0.44-0.59c0.25-0.33,0.39-0.51,0.39-0.51s-0.11,0.2-0.31,0.56
					c-0.11,0.18-0.23,0.39-0.37,0.64c-0.15,0.25-0.3,0.53-0.52,0.81c-0.21,0.28-0.44,0.59-0.68,0.91c-0.23,0.33-0.55,0.62-0.85,0.95
					c-0.3,0.33-0.65,0.63-1.02,0.92c-0.19,0.14-0.35,0.31-0.56,0.43l-0.61,0.38l-0.3,0.19c-0.1,0.06-0.21,0.1-0.32,0.15
					c-0.22,0.1-0.43,0.2-0.65,0.29c-0.22,0.09-0.45,0.14-0.67,0.21c-0.22,0.07-0.44,0.14-0.66,0.16c-0.22,0.04-0.44,0.07-0.65,0.1
					c-0.22,0.01-0.43,0.01-0.63,0.02c-0.21,0.01-0.4,0-0.59-0.02c-0.19-0.02-0.38-0.02-0.56-0.06c-0.17-0.03-0.34-0.06-0.5-0.09
					c-0.16-0.03-0.3-0.09-0.44-0.12c-0.28-0.08-0.51-0.18-0.7-0.26C46.55,77.27,46.36,77.14,46.36,77.14z"/>
				<path class="st11" d="M45.74,75.07c0,0-0.02-0.19-0.01-0.52c0.01-0.33,0.02-0.81,0.11-1.38c0.04-0.29,0.09-0.59,0.16-0.91
					c0.06-0.33,0.14-0.66,0.24-1.01c0.1-0.35,0.21-0.7,0.34-1.06c0.14-0.35,0.27-0.72,0.44-1.06c0.16-0.35,0.34-0.69,0.54-1.02
					c0.09-0.16,0.19-0.33,0.29-0.48c0.11-0.15,0.21-0.3,0.32-0.45c0.11-0.15,0.2-0.3,0.31-0.43c0.12-0.13,0.23-0.26,0.34-0.38
					c0.22-0.25,0.42-0.48,0.64-0.67c0.21-0.2,0.4-0.38,0.58-0.53c0.19-0.14,0.35-0.26,0.49-0.36c0.27-0.19,0.43-0.3,0.43-0.3
					s-0.14,0.13-0.37,0.37c-0.12,0.11-0.26,0.25-0.43,0.41c-0.15,0.17-0.32,0.36-0.51,0.58c-0.19,0.2-0.38,0.44-0.56,0.7
					c-0.2,0.26-0.39,0.53-0.58,0.83c-0.09,0.15-0.19,0.29-0.29,0.45c-0.09,0.16-0.17,0.32-0.26,0.48c-0.19,0.31-0.35,0.65-0.51,0.99
					c-0.18,0.33-0.3,0.68-0.44,1.02c-0.13,0.34-0.26,0.68-0.37,1.02c-0.09,0.34-0.22,0.66-0.3,0.97c-0.09,0.31-0.17,0.61-0.23,0.88
					c-0.12,0.55-0.22,1.02-0.28,1.34C45.77,74.89,45.74,75.07,45.74,75.07z"/>
				<path class="st11" d="M42.53,74.84c0,0-0.1-0.04-0.27-0.15c-0.16-0.11-0.4-0.26-0.66-0.48c-0.26-0.21-0.54-0.5-0.82-0.82
					c-0.13-0.17-0.27-0.34-0.4-0.52c-0.12-0.19-0.25-0.38-0.36-0.58c-0.11-0.2-0.21-0.4-0.3-0.61c-0.1-0.2-0.16-0.42-0.22-0.62
					c-0.07-0.2-0.11-0.41-0.14-0.6c-0.02-0.1-0.04-0.19-0.05-0.28c-0.01-0.09-0.01-0.18-0.02-0.26c-0.01-0.17-0.03-0.33-0.02-0.46
					c0.01-0.14,0.02-0.26,0.02-0.36c0.01-0.2,0.03-0.3,0.03-0.3s0.03,0.11,0.06,0.3c0.02,0.09,0.04,0.21,0.06,0.34
					c0.03,0.13,0.07,0.28,0.11,0.44c0.03,0.16,0.08,0.33,0.14,0.5c0.06,0.18,0.12,0.37,0.2,0.55c0.07,0.19,0.15,0.38,0.24,0.57
					c0.09,0.19,0.19,0.38,0.3,0.57c0.2,0.38,0.44,0.74,0.67,1.07c0.13,0.16,0.23,0.32,0.35,0.47c0.12,0.15,0.23,0.29,0.34,0.41
					c0.21,0.25,0.39,0.46,0.53,0.6C42.45,74.76,42.53,74.84,42.53,74.84z"/>
				<path class="st11" d="M41.92,75.46c0,0-0.05,0.03-0.15,0.05c-0.1,0.03-0.24,0.03-0.41,0.03c-0.09-0.01-0.18-0.03-0.28-0.06
					c-0.1-0.01-0.19-0.06-0.29-0.11c-0.09-0.06-0.21-0.09-0.29-0.17c-0.09-0.08-0.17-0.15-0.26-0.22c-0.09-0.08-0.17-0.16-0.23-0.25
					c-0.07-0.09-0.12-0.18-0.18-0.27c-0.06-0.09-0.12-0.17-0.15-0.26c-0.03-0.09-0.06-0.17-0.09-0.25c-0.1-0.32-0.13-0.54-0.13-0.54
					s0.17,0.16,0.36,0.41c0.05,0.06,0.1,0.13,0.15,0.2c0.05,0.07,0.13,0.13,0.18,0.21c0.06,0.07,0.13,0.14,0.19,0.22
					c0.06,0.08,0.13,0.15,0.21,0.21l0.21,0.2c0.07,0.07,0.15,0.11,0.22,0.17c0.08,0.05,0.14,0.12,0.22,0.15
					c0.07,0.04,0.14,0.08,0.21,0.12c0.14,0.05,0.26,0.12,0.34,0.14C41.86,75.45,41.92,75.46,41.92,75.46z"/>
				<path class="st11" d="M51.17,79.2c0,0-0.3,0.19-0.81,0.34c-0.25,0.07-0.56,0.15-0.89,0.18c-0.33,0.04-0.7,0.02-1.05-0.02
					c-0.18-0.04-0.36-0.06-0.53-0.12c-0.17-0.06-0.34-0.11-0.49-0.19c-0.16-0.07-0.3-0.15-0.42-0.25c-0.12-0.09-0.25-0.18-0.34-0.28
					c-0.09-0.1-0.18-0.19-0.25-0.27c-0.06-0.09-0.11-0.17-0.15-0.24c-0.08-0.13-0.12-0.21-0.12-0.21s0.07,0.05,0.19,0.15
					c0.06,0.05,0.13,0.11,0.2,0.17c0.09,0.06,0.18,0.12,0.29,0.19c0.1,0.07,0.23,0.13,0.35,0.19c0.12,0.07,0.26,0.12,0.4,0.17
					c0.14,0.07,0.3,0.09,0.45,0.14c0.15,0.05,0.32,0.06,0.48,0.09c0.16,0.02,0.32,0.05,0.49,0.05c0.16,0,0.32,0.02,0.48,0.01
					c0.31,0.01,0.61-0.01,0.86-0.03C50.82,79.25,51.17,79.2,51.17,79.2z"/>
				<path class="st11" d="M44.59,70.49c0,0-0.05-0.06-0.11-0.19c-0.03-0.06-0.07-0.14-0.1-0.24c-0.03-0.09-0.07-0.2-0.09-0.32
					c-0.01-0.12-0.03-0.25-0.04-0.39c-0.02-0.14,0-0.29,0.01-0.44c0.03-0.16,0.02-0.32,0.07-0.47c0.05-0.15,0.1-0.31,0.15-0.46
					c0.05-0.16,0.1-0.31,0.19-0.45c0.08-0.14,0.16-0.27,0.23-0.41c0.08-0.13,0.15-0.26,0.24-0.37c0.09-0.1,0.18-0.2,0.26-0.29
					c0.33-0.35,0.57-0.56,0.57-0.56s-0.12,0.3-0.35,0.71c-0.06,0.1-0.12,0.21-0.19,0.32c-0.06,0.11-0.1,0.25-0.17,0.38
					c-0.06,0.13-0.12,0.26-0.19,0.4c-0.08,0.13-0.12,0.27-0.16,0.42c-0.05,0.14-0.1,0.28-0.15,0.42c-0.05,0.14-0.06,0.28-0.09,0.41
					c-0.02,0.14-0.08,0.27-0.08,0.4c-0.01,0.12-0.02,0.25-0.04,0.36c0,0.11,0,0.21,0,0.31c0,0.09,0,0.17,0.01,0.24
					C44.58,70.4,44.59,70.49,44.59,70.49z"/>
				<path class="st11" d="M60.89,74.69c0,0,0.16-0.07,0.44-0.2c0.28-0.12,0.67-0.31,1.14-0.54c0.94-0.45,2.18-1.05,3.37-1.76
					c0.3-0.18,0.59-0.36,0.87-0.55c0.28-0.19,0.56-0.37,0.81-0.57c0.5-0.39,0.94-0.8,1.26-1.2c0.16-0.2,0.28-0.39,0.39-0.58
					c0.09-0.18,0.17-0.35,0.2-0.5c0.05-0.14,0.06-0.26,0.08-0.34c0.01-0.08,0.02-0.12,0.02-0.12s0,0.05,0,0.13
					c0,0.08,0.01,0.21-0.02,0.36c-0.02,0.16-0.07,0.34-0.13,0.55c-0.04,0.1-0.09,0.21-0.14,0.32c-0.06,0.11-0.12,0.22-0.19,0.34
					c-0.15,0.22-0.32,0.46-0.53,0.69c-0.21,0.23-0.43,0.46-0.69,0.67c-0.5,0.44-1.09,0.84-1.69,1.2c-1.22,0.72-2.51,1.26-3.51,1.6
					c-0.49,0.18-0.92,0.29-1.21,0.38C61.06,74.65,60.89,74.69,60.89,74.69z"/>
				<path class="st11" d="M54.23,64.14c0,0-0.02-0.08-0.03-0.23c-0.02-0.15,0-0.36,0.01-0.62c0.02-0.13,0.04-0.26,0.07-0.41
					c0.02-0.15,0.06-0.3,0.11-0.45c0.05-0.15,0.1-0.31,0.15-0.47c0.06-0.16,0.14-0.31,0.21-0.46c0.08-0.15,0.15-0.31,0.24-0.45
					c0.09-0.14,0.19-0.27,0.28-0.41c0.09-0.13,0.18-0.26,0.27-0.37c0.09-0.11,0.19-0.21,0.28-0.3c0.36-0.36,0.62-0.57,0.62-0.57
					s-0.15,0.31-0.41,0.73c-0.06,0.11-0.14,0.21-0.21,0.34c-0.06,0.13-0.13,0.26-0.21,0.39c-0.08,0.13-0.15,0.27-0.23,0.41
					c-0.08,0.14-0.14,0.29-0.21,0.44c-0.07,0.14-0.15,0.28-0.21,0.43c-0.06,0.15-0.13,0.29-0.18,0.43
					c-0.06,0.14-0.12,0.28-0.16,0.41c-0.05,0.13-0.1,0.26-0.14,0.37c-0.07,0.23-0.15,0.43-0.18,0.57
					C54.25,64.05,54.23,64.14,54.23,64.14z"/>
				<path class="st11" d="M51.56,66.73c0,0,0-0.11,0.01-0.31c0.02-0.2,0.04-0.49,0.1-0.83c0.06-0.34,0.14-0.73,0.27-1.15
					c0.12-0.42,0.29-0.85,0.47-1.27c0.2-0.42,0.41-0.83,0.65-1.2c0.12-0.18,0.24-0.36,0.37-0.51c0.13-0.15,0.25-0.3,0.37-0.42
					c0.24-0.25,0.47-0.44,0.64-0.55c0.16-0.12,0.26-0.18,0.26-0.18s-0.07,0.09-0.2,0.25c-0.06,0.08-0.15,0.16-0.22,0.28
					c-0.08,0.12-0.17,0.24-0.27,0.38c-0.1,0.14-0.18,0.3-0.29,0.45c-0.11,0.16-0.19,0.35-0.3,0.52c-0.11,0.18-0.19,0.38-0.3,0.57
					c-0.1,0.19-0.19,0.4-0.28,0.6c-0.37,0.82-0.67,1.66-0.9,2.3c-0.11,0.32-0.21,0.59-0.27,0.78
					C51.59,66.63,51.56,66.73,51.56,66.73z"/>
				<path class="st11" d="M38.47,67.81c0,0-0.35-0.3-0.76-0.85c-0.21-0.27-0.43-0.62-0.64-0.99c-0.21-0.38-0.4-0.8-0.55-1.24
					c-0.07-0.22-0.15-0.44-0.2-0.67c-0.07-0.22-0.1-0.44-0.13-0.66c-0.04-0.21-0.06-0.42-0.07-0.62c-0.01-0.2-0.02-0.39-0.01-0.56
					c0.01-0.18,0.02-0.33,0.03-0.47c0.02-0.14,0.04-0.26,0.06-0.36c0.04-0.2,0.06-0.31,0.06-0.31s0.01,0.11,0.02,0.31
					c0,0.1,0.01,0.22,0.02,0.36c0.02,0.14,0.05,0.29,0.06,0.46c0.02,0.17,0.05,0.35,0.09,0.53c0.03,0.19,0.07,0.38,0.13,0.59
					c0.04,0.2,0.1,0.41,0.16,0.62c0.05,0.21,0.13,0.42,0.21,0.63c0.06,0.21,0.15,0.42,0.23,0.62c0.09,0.2,0.17,0.4,0.25,0.59
					c0.18,0.38,0.34,0.73,0.5,1.03c0.16,0.3,0.29,0.55,0.39,0.72C38.42,67.71,38.47,67.81,38.47,67.81z"/>
				<path class="st11" d="M36.03,68.65c0,0-0.03-0.25-0.12-0.68c-0.04-0.21-0.09-0.47-0.17-0.76c-0.09-0.29-0.14-0.63-0.29-0.97
					c-0.14-0.35-0.26-0.71-0.43-1.12c-0.16-0.41-0.29-0.86-0.39-1.32c-0.1-0.46-0.2-0.94-0.26-1.44c-0.07-0.49-0.11-1-0.14-1.5
					l-0.02-0.76c0.01-0.25,0.01-0.51,0.02-0.75c0.03-0.49,0.06-0.99,0.14-1.46c0.06-0.47,0.17-0.92,0.27-1.34
					c0.13-0.42,0.23-0.82,0.38-1.17c0.14-0.35,0.27-0.67,0.43-0.94c0.15-0.27,0.27-0.51,0.41-0.68c0.26-0.36,0.4-0.56,0.4-0.56
					s-0.12,0.22-0.33,0.61c-0.11,0.19-0.21,0.44-0.32,0.71c-0.13,0.27-0.22,0.6-0.34,0.95c-0.13,0.35-0.19,0.75-0.3,1.16
					c-0.07,0.42-0.15,0.86-0.19,1.32c-0.06,0.46-0.07,0.94-0.1,1.42c0,0.24-0.01,0.49-0.01,0.73l0.03,0.74
					c0.04,0.99,0.16,1.97,0.33,2.88c0.09,0.46,0.18,0.88,0.31,1.28c0.13,0.39,0.25,0.81,0.36,1.17c0.13,0.36,0.15,0.71,0.21,1.01
					c0.05,0.3,0.08,0.57,0.09,0.79C36.04,68.4,36.03,68.65,36.03,68.65z"/>
				<path class="st11" d="M57.68,57.48c0,0-0.04-0.16-0.06-0.44c-0.01-0.28-0.02-0.69,0.06-1.17c0.05-0.24,0.09-0.5,0.18-0.77
					c0.04-0.13,0.08-0.27,0.13-0.41c0.06-0.13,0.11-0.28,0.17-0.42c0.11-0.28,0.28-0.56,0.43-0.84c0.18-0.27,0.35-0.55,0.55-0.8
					c0.22-0.24,0.41-0.51,0.64-0.73c0.23-0.22,0.45-0.45,0.69-0.64c0.24-0.19,0.47-0.37,0.69-0.53c0.24-0.15,0.46-0.29,0.66-0.41
					c0.1-0.06,0.2-0.12,0.3-0.18c0.1-0.05,0.19-0.09,0.28-0.13c0.18-0.08,0.33-0.16,0.46-0.22c0.26-0.12,0.4-0.18,0.4-0.18
					s-0.13,0.1-0.35,0.26c-0.11,0.08-0.26,0.17-0.41,0.29c-0.16,0.11-0.33,0.24-0.52,0.39c-0.19,0.15-0.39,0.3-0.6,0.47
					c-0.2,0.18-0.41,0.37-0.63,0.57c-0.23,0.19-0.41,0.43-0.64,0.64c-0.22,0.21-0.4,0.47-0.6,0.7c-0.2,0.24-0.36,0.5-0.54,0.75
					c-0.14,0.27-0.33,0.51-0.44,0.78c-0.06,0.13-0.13,0.26-0.19,0.38c-0.05,0.13-0.1,0.26-0.16,0.38c-0.1,0.25-0.17,0.49-0.24,0.72
					c-0.12,0.45-0.19,0.84-0.22,1.12C57.68,57.32,57.68,57.48,57.68,57.48z"/>
				<path class="st11" d="M61.42,59.47c0,0,0.13-0.11,0.36-0.3c0.11-0.09,0.25-0.21,0.39-0.35c0.15-0.14,0.31-0.3,0.49-0.47
					c0.17-0.19,0.37-0.37,0.55-0.58c0.19-0.21,0.38-0.44,0.57-0.68c0.2-0.24,0.37-0.51,0.56-0.77c0.18-0.27,0.34-0.56,0.49-0.84
					l0.21-0.44l0.1-0.22l0.07-0.23c0.1-0.3,0.22-0.6,0.26-0.9c0.03-0.15,0.06-0.3,0.09-0.44c0.02-0.14,0.02-0.29,0.03-0.43
					c0.02-0.28,0.05-0.55,0.02-0.79c-0.02-0.25-0.02-0.48-0.04-0.68c-0.04-0.2-0.07-0.37-0.1-0.52c-0.06-0.29-0.08-0.46-0.08-0.46
					s0.07,0.16,0.17,0.43c0.05,0.14,0.11,0.31,0.19,0.5c0.05,0.2,0.09,0.43,0.14,0.68c0.02,0.13,0.06,0.26,0.06,0.4
					c0,0.14,0,0.28,0,0.43c0,0.15,0.01,0.3,0,0.46c-0.02,0.15-0.05,0.31-0.07,0.47c-0.04,0.32-0.13,0.65-0.24,0.97l-0.08,0.24
					l-0.1,0.24l-0.21,0.47c-0.17,0.3-0.34,0.6-0.54,0.88c-0.2,0.27-0.39,0.55-0.61,0.78c-0.2,0.25-0.43,0.46-0.64,0.66
					c-0.21,0.21-0.43,0.38-0.62,0.54c-0.4,0.31-0.76,0.55-1.01,0.7C61.58,59.4,61.42,59.47,61.42,59.47z"/>
				<path class="st11" d="M62.49,53.81c0,0,0.18-0.24,0.39-0.61c0.1-0.19,0.22-0.4,0.31-0.64c0.06-0.12,0.09-0.25,0.14-0.38
					c0.05-0.13,0.07-0.27,0.11-0.4c0.03-0.13,0.05-0.27,0.08-0.4c0.01-0.13,0.04-0.27,0.06-0.4c0-0.13,0.02-0.26,0.03-0.38
					c0.01-0.12,0-0.23,0.01-0.34c0.01-0.22,0-0.4,0-0.53c0-0.13,0.01-0.21,0.01-0.21s0.03,0.07,0.08,0.19
					c0.05,0.12,0.13,0.3,0.17,0.52c0.06,0.22,0.09,0.48,0.1,0.77c-0.01,0.14-0.01,0.29-0.02,0.44c-0.02,0.15-0.05,0.3-0.08,0.45
					c-0.05,0.15-0.08,0.3-0.14,0.44c-0.05,0.14-0.12,0.28-0.19,0.4c-0.14,0.25-0.31,0.47-0.47,0.63
					C62.78,53.69,62.49,53.81,62.49,53.81z"/>
				<path class="st11" d="M62.49,62.61c0,0,0.17-0.13,0.46-0.37c0.29-0.23,0.69-0.58,1.15-1.01c0.47-0.43,0.98-0.97,1.48-1.57
					c0.26-0.3,0.49-0.63,0.73-0.96c0.23-0.34,0.46-0.69,0.64-1.06c0.2-0.36,0.36-0.75,0.49-1.13c0.12-0.38,0.23-0.77,0.27-1.15
					c0.06-0.38,0.07-0.75,0.05-1.11c-0.02-0.35-0.06-0.69-0.14-0.99c-0.03-0.15-0.07-0.3-0.12-0.43c-0.05-0.13-0.08-0.27-0.12-0.39
					c-0.1-0.24-0.18-0.45-0.26-0.61c-0.17-0.33-0.26-0.52-0.26-0.52s0.12,0.17,0.34,0.48c0.11,0.15,0.21,0.36,0.34,0.59
					c0.1,0.24,0.25,0.51,0.33,0.82c0.1,0.31,0.18,0.66,0.23,1.03c0.05,0.38,0.07,0.78,0.02,1.19c-0.03,0.41-0.13,0.83-0.25,1.25
					c-0.13,0.41-0.3,0.82-0.5,1.21c-0.41,0.77-0.92,1.48-1.47,2.08c-0.54,0.6-1.12,1.1-1.62,1.5c-0.5,0.4-0.95,0.69-1.27,0.89
					C62.69,62.51,62.49,62.61,62.49,62.61z"/>
				<path class="st11" d="M63.1,65.82c0,0,0.42-0.39,1.02-0.99c0.3-0.3,0.65-0.65,1.01-1.03c0.36-0.39,0.75-0.79,1.1-1.23
					c0.37-0.42,0.7-0.87,1-1.3c0.16-0.21,0.27-0.44,0.4-0.64c0.12-0.2,0.21-0.41,0.31-0.6c0.09-0.19,0.15-0.37,0.22-0.53
					c0.07-0.16,0.1-0.31,0.13-0.42c0.06-0.24,0.09-0.38,0.09-0.38s0,0.14-0.01,0.39c0,0.13,0,0.28-0.05,0.45
					c-0.04,0.17-0.06,0.38-0.13,0.58c-0.08,0.2-0.14,0.43-0.25,0.66c-0.11,0.22-0.21,0.47-0.36,0.69c-0.15,0.23-0.28,0.48-0.46,0.7
					c-0.17,0.23-0.34,0.46-0.53,0.68c-0.18,0.22-0.38,0.43-0.57,0.64c-0.19,0.21-0.4,0.39-0.59,0.58c-0.4,0.37-0.78,0.69-1.13,0.94
					c-0.34,0.26-0.64,0.46-0.85,0.59C63.23,65.75,63.1,65.82,63.1,65.82z"/>
				<path class="st11" d="M66.47,66.89c0,0,0.12-0.11,0.32-0.31c0.2-0.2,0.47-0.5,0.76-0.88c0.3-0.37,0.62-0.83,0.93-1.34
					c0.15-0.26,0.3-0.52,0.43-0.8c0.07-0.14,0.14-0.28,0.2-0.42l0.17-0.44c0.13-0.28,0.21-0.59,0.31-0.89
					c0.1-0.29,0.15-0.6,0.22-0.89c0.07-0.29,0.09-0.57,0.14-0.84c0.05-0.27,0.05-0.53,0.07-0.76c0.01-0.24,0.05-0.46,0.04-0.65
					c0-0.19,0-0.37-0.01-0.51c0-0.28,0.01-0.45,0.01-0.45s0.04,0.16,0.08,0.44c0.02,0.14,0.06,0.31,0.09,0.51
					c0.05,0.2,0.04,0.42,0.05,0.66c0.01,0.24,0.04,0.51,0.01,0.79c-0.02,0.28-0.02,0.58-0.09,0.89c-0.06,0.3-0.09,0.62-0.19,0.93
					c-0.1,0.31-0.17,0.63-0.31,0.94l-0.19,0.46c-0.07,0.15-0.15,0.29-0.22,0.44c-0.14,0.29-0.32,0.56-0.49,0.82
					c-0.17,0.26-0.35,0.49-0.53,0.71c-0.18,0.21-0.36,0.41-0.54,0.58c-0.34,0.35-0.67,0.6-0.9,0.77
					C66.62,66.81,66.47,66.89,66.47,66.89z"/>
				<path class="st11" d="M40.16,59.47c0,0-0.09-0.15-0.22-0.42c-0.07-0.13-0.13-0.3-0.22-0.5c-0.07-0.2-0.17-0.42-0.24-0.67
					c-0.08-0.25-0.15-0.52-0.21-0.81c-0.07-0.29-0.11-0.6-0.16-0.93c-0.02-0.32-0.07-0.66-0.07-1.01c0.01-0.34,0-0.69,0.05-1.04
					l0.06-0.52c0.03-0.17,0.07-0.34,0.11-0.51c0.05-0.34,0.18-0.66,0.28-0.97c0.09-0.32,0.24-0.6,0.37-0.87
					c0.07-0.13,0.12-0.27,0.19-0.39c0.07-0.12,0.15-0.23,0.22-0.34c0.14-0.22,0.26-0.42,0.4-0.59c0.14-0.16,0.25-0.3,0.35-0.42
					c0.2-0.23,0.31-0.35,0.31-0.35s-0.09,0.15-0.24,0.41c-0.08,0.13-0.18,0.28-0.28,0.46c-0.11,0.18-0.19,0.4-0.31,0.62
					c-0.12,0.22-0.24,0.47-0.33,0.74c-0.1,0.27-0.22,0.55-0.29,0.85c-0.09,0.3-0.18,0.61-0.23,0.94c-0.03,0.16-0.06,0.32-0.09,0.49
					l-0.05,0.5c-0.05,0.33-0.05,0.67-0.06,0.99c-0.01,0.33,0.01,0.66,0.02,0.97c0.04,0.31,0.04,0.62,0.1,0.9
					c0.04,0.29,0.08,0.56,0.13,0.81c0.1,0.5,0.19,0.92,0.28,1.2C40.1,59.31,40.16,59.47,40.16,59.47z"/>
				<path class="st11" d="M55.23,54.11c0,0-0.01-0.11,0.01-0.31c0.02-0.2,0.05-0.49,0.14-0.83c0.08-0.34,0.22-0.73,0.42-1.12
					c0.1-0.19,0.2-0.4,0.33-0.59c0.12-0.2,0.27-0.38,0.41-0.57c0.14-0.19,0.32-0.34,0.48-0.51c0.16-0.17,0.35-0.29,0.52-0.44
					c0.17-0.14,0.36-0.24,0.53-0.35c0.16-0.11,0.34-0.18,0.5-0.26c0.16-0.07,0.3-0.15,0.44-0.18c0.13-0.04,0.25-0.08,0.35-0.11
					c0.19-0.06,0.3-0.09,0.3-0.09s-0.1,0.07-0.27,0.17c-0.09,0.05-0.19,0.11-0.31,0.18c-0.12,0.06-0.24,0.17-0.38,0.25
					c-0.14,0.1-0.3,0.19-0.44,0.31c-0.15,0.12-0.31,0.24-0.46,0.38c-0.15,0.14-0.32,0.28-0.46,0.44c-0.15,0.16-0.31,0.31-0.44,0.49
					c-0.29,0.33-0.53,0.7-0.75,1.06c-0.21,0.36-0.39,0.7-0.52,1.02c-0.14,0.31-0.24,0.57-0.3,0.76C55.26,54,55.23,54.11,55.23,54.11
					z"/>
				<path class="st11" d="M54.23,51.13c0,0,0.02-0.07,0.08-0.19c0.05-0.13,0.16-0.28,0.29-0.47c0.15-0.17,0.31-0.39,0.54-0.56
					c0.11-0.09,0.22-0.19,0.34-0.28c0.13-0.08,0.25-0.16,0.38-0.24c0.13-0.07,0.26-0.16,0.4-0.22c0.13-0.06,0.27-0.11,0.4-0.16
					c0.13-0.05,0.26-0.1,0.38-0.14c0.12-0.03,0.25-0.06,0.36-0.08c0.44-0.09,0.74-0.11,0.74-0.11s-0.26,0.17-0.65,0.36
					c-0.1,0.05-0.21,0.1-0.32,0.15c-0.11,0.06-0.22,0.13-0.34,0.19c-0.12,0.06-0.24,0.13-0.37,0.19c-0.13,0.06-0.24,0.15-0.37,0.22
					c-0.12,0.07-0.25,0.14-0.37,0.21c-0.12,0.08-0.23,0.15-0.34,0.23c-0.11,0.08-0.22,0.14-0.32,0.22c-0.1,0.08-0.19,0.14-0.28,0.21
					c-0.16,0.14-0.31,0.25-0.4,0.34C54.29,51.08,54.23,51.13,54.23,51.13z"/>
				<path class="st11" d="M49.41,55.8c0,0-0.14-0.54-0.15-1.37c-0.01-0.41,0.02-0.9,0.09-1.42c0.04-0.26,0.09-0.52,0.15-0.79
					c0.08-0.26,0.14-0.54,0.25-0.8c0.1-0.26,0.2-0.52,0.33-0.77c0.11-0.25,0.26-0.48,0.4-0.7c0.13-0.23,0.29-0.43,0.44-0.61
					c0.08-0.09,0.15-0.18,0.22-0.27c0.08-0.08,0.16-0.15,0.23-0.23c0.15-0.14,0.29-0.28,0.42-0.38c0.14-0.1,0.25-0.18,0.36-0.25
					c0.19-0.14,0.31-0.21,0.31-0.21s-0.09,0.1-0.25,0.28c-0.08,0.09-0.18,0.19-0.3,0.31c-0.1,0.13-0.22,0.27-0.34,0.43
					c-0.13,0.15-0.25,0.33-0.38,0.53c-0.13,0.19-0.26,0.39-0.37,0.61c-0.06,0.11-0.12,0.22-0.19,0.33c-0.05,0.12-0.1,0.24-0.16,0.36
					c-0.12,0.23-0.21,0.48-0.3,0.73c-0.11,0.25-0.17,0.51-0.25,0.76c-0.06,0.25-0.13,0.5-0.19,0.75c-0.1,0.49-0.18,0.96-0.23,1.36
					c-0.04,0.4-0.08,0.74-0.09,0.98C49.42,55.66,49.41,55.8,49.41,55.8z"/>
				<path class="st11" d="M47.12,56.79c0,0-0.17-0.57-0.23-1.46c-0.03-0.44-0.03-0.96,0.02-1.52c0.03-0.28,0.07-0.56,0.11-0.85
					c0.07-0.28,0.11-0.58,0.21-0.87c0.09-0.28,0.18-0.57,0.3-0.84c0.06-0.14,0.11-0.27,0.17-0.4c0.07-0.13,0.14-0.25,0.2-0.38
					c0.07-0.12,0.13-0.25,0.2-0.36c0.08-0.11,0.15-0.22,0.23-0.32c0.15-0.21,0.29-0.41,0.45-0.57c0.15-0.16,0.29-0.31,0.42-0.44
					c0.14-0.12,0.26-0.22,0.36-0.3c0.2-0.16,0.32-0.25,0.32-0.25s-0.09,0.12-0.26,0.31c-0.09,0.1-0.19,0.22-0.3,0.35
					c-0.1,0.14-0.21,0.31-0.34,0.49c-0.13,0.17-0.25,0.38-0.37,0.59c-0.06,0.11-0.13,0.22-0.19,0.33c-0.06,0.12-0.11,0.24-0.17,0.36
					c-0.06,0.12-0.11,0.24-0.17,0.37c-0.05,0.13-0.1,0.26-0.15,0.39c-0.11,0.26-0.19,0.54-0.27,0.81c-0.09,0.27-0.14,0.55-0.21,0.83
					c-0.05,0.28-0.11,0.55-0.15,0.82c-0.08,0.53-0.13,1.04-0.15,1.47c-0.03,0.44-0.04,0.8-0.04,1.06
					C47.12,56.65,47.12,56.79,47.12,56.79z"/>
				<path class="st11" d="M42.61,54.5c0,0-0.13-0.4-0.18-1.03c-0.02-0.32-0.04-0.68-0.01-1.08c0.02-0.4,0.1-0.81,0.19-1.23
					c0.06-0.2,0.11-0.41,0.19-0.61c0.08-0.2,0.15-0.39,0.25-0.57c0.09-0.18,0.18-0.35,0.29-0.5c0.11-0.15,0.19-0.3,0.31-0.41
					c0.11-0.12,0.21-0.23,0.3-0.32c0.1-0.09,0.19-0.15,0.26-0.21c0.15-0.11,0.23-0.17,0.23-0.17s-0.06,0.09-0.17,0.24
					c-0.06,0.07-0.12,0.16-0.19,0.26c-0.06,0.11-0.14,0.22-0.22,0.36c-0.09,0.12-0.15,0.28-0.23,0.43
					c-0.09,0.15-0.15,0.32-0.22,0.49c-0.08,0.17-0.13,0.36-0.2,0.54c-0.07,0.18-0.11,0.38-0.17,0.57c-0.05,0.19-0.1,0.39-0.13,0.59
					c-0.03,0.19-0.08,0.38-0.1,0.57c-0.06,0.38-0.1,0.73-0.13,1.04C42.63,54.08,42.61,54.5,42.61,54.5z"/>
				<path class="st11" d="M69.76,72.51c0,0-0.04-0.07-0.07-0.21c-0.02-0.07-0.03-0.15-0.02-0.25c0-0.1-0.01-0.22,0.02-0.33
					c0.02-0.12,0.05-0.25,0.08-0.39c0.05-0.13,0.11-0.26,0.18-0.4c0.03-0.07,0.06-0.14,0.1-0.21c0.04-0.07,0.09-0.13,0.13-0.19
					c0.09-0.13,0.19-0.25,0.29-0.38c0.09-0.13,0.22-0.23,0.33-0.34c0.11-0.11,0.23-0.2,0.34-0.3c0.22-0.2,0.47-0.33,0.67-0.44
					c0.41-0.23,0.7-0.34,0.7-0.34s-0.21,0.25-0.54,0.55c-0.09,0.08-0.17,0.16-0.27,0.25c-0.1,0.08-0.19,0.19-0.29,0.29
					c-0.1,0.1-0.19,0.21-0.3,0.31c-0.1,0.1-0.22,0.2-0.3,0.32c-0.09,0.12-0.18,0.23-0.27,0.34l-0.14,0.17
					c-0.03,0.06-0.07,0.12-0.1,0.18c-0.07,0.12-0.15,0.23-0.21,0.33c-0.05,0.11-0.1,0.22-0.14,0.32c-0.05,0.1-0.07,0.2-0.1,0.28
					c-0.03,0.09-0.05,0.16-0.06,0.23C69.76,72.43,69.76,72.51,69.76,72.51z"/>
				<path class="st11" d="M46.13,60.81c0,0-0.17-0.26-0.32-0.7c-0.04-0.11-0.07-0.23-0.1-0.35c-0.03-0.13-0.07-0.26-0.09-0.41
					c-0.03-0.28-0.09-0.59-0.07-0.89c0.01-0.16,0.01-0.31,0.02-0.46c0-0.15,0.04-0.3,0.06-0.44c0.02-0.14,0.05-0.28,0.08-0.41
					c0.02-0.13,0.07-0.24,0.11-0.35c0.16-0.43,0.31-0.7,0.31-0.7s0,0.32-0.05,0.75c-0.04,0.22-0.03,0.48-0.05,0.75
					c0,0.13-0.03,0.28-0.02,0.42c0,0.14,0,0.29,0,0.43c-0.02,0.29,0.02,0.58,0.01,0.85c0.02,0.28,0.03,0.53,0.04,0.75
					C46.1,60.51,46.13,60.81,46.13,60.81z"/>
				<path class="st11" d="M51.17,60.46c0,0-0.04-0.33,0.03-0.8c0.03-0.24,0.09-0.51,0.16-0.81c0.09-0.28,0.18-0.59,0.31-0.89
					c0.07-0.15,0.13-0.29,0.2-0.44c0.06-0.15,0.15-0.27,0.23-0.41c0.08-0.13,0.16-0.25,0.23-0.36c0.07-0.12,0.15-0.22,0.23-0.31
					c0.32-0.37,0.56-0.58,0.56-0.58s-0.12,0.31-0.34,0.72c-0.12,0.2-0.2,0.46-0.33,0.72c-0.13,0.26-0.24,0.55-0.37,0.83
					c-0.13,0.28-0.22,0.57-0.34,0.84c-0.1,0.27-0.2,0.53-0.29,0.74C51.29,60.16,51.17,60.46,51.17,60.46z"/>
				<path class="st11" d="M43.37,60.46c0,0,0.02-0.24,0.06-0.57c0.03-0.17,0.04-0.37,0.07-0.57c0.01-0.1,0.01-0.21,0.03-0.31
					c0.01-0.11,0.03-0.22,0.03-0.33c0.01-0.11,0.01-0.22,0.02-0.32c0.01-0.1,0.02-0.21,0.01-0.31c-0.01-0.2,0.02-0.4,0.01-0.56
					c-0.02-0.33,0-0.57,0-0.57s0.13,0.19,0.26,0.53c0.08,0.16,0.09,0.37,0.13,0.59c0.05,0.22,0.02,0.46,0.02,0.69
					c0,0.12-0.04,0.23-0.05,0.35c-0.02,0.11-0.04,0.23-0.07,0.33c-0.07,0.21-0.13,0.41-0.21,0.56
					C43.53,60.29,43.37,60.46,43.37,60.46z"/>
				<path class="st11" d="M33.96,65.51c0,0-0.07-0.06-0.17-0.19c-0.11-0.13-0.23-0.32-0.37-0.56c-0.07-0.12-0.12-0.26-0.19-0.41
					c-0.07-0.15-0.14-0.3-0.18-0.47c-0.05-0.17-0.1-0.34-0.14-0.52c-0.05-0.18-0.06-0.37-0.09-0.55c-0.02-0.19-0.04-0.37-0.06-0.55
					c0-0.18,0.01-0.36,0.02-0.54c0-0.18,0.02-0.34,0.03-0.5c0.01-0.16,0.06-0.3,0.09-0.44c0.12-0.54,0.25-0.89,0.25-0.89
					s0.03,0.37,0.02,0.91c0,0.14-0.02,0.28-0.01,0.43c0.01,0.15,0.02,0.31,0.03,0.48c0,0.17,0.02,0.34,0.02,0.51
					c0.02,0.17,0.05,0.35,0.07,0.52c0.02,0.18,0.03,0.35,0.07,0.52c0.04,0.17,0.06,0.34,0.1,0.5c0.03,0.17,0.07,0.32,0.11,0.47
					c0.04,0.15,0.07,0.29,0.11,0.42c0.09,0.25,0.15,0.47,0.21,0.62C33.92,65.43,33.96,65.51,33.96,65.51z"/>
				<path class="st11" d="M58.29,81.92c0,0-0.37,0.32-0.99,0.69c-0.62,0.37-1.51,0.79-2.47,1.01c-0.48,0.11-0.97,0.17-1.44,0.15
					c-0.23,0-0.46-0.04-0.67-0.09c-0.21-0.04-0.4-0.11-0.57-0.19c-0.35-0.15-0.59-0.37-0.74-0.51c-0.08-0.07-0.12-0.14-0.16-0.19
					c-0.04-0.04-0.05-0.06-0.05-0.06s0.1,0.06,0.27,0.19c0.09,0.05,0.19,0.12,0.32,0.18c0.13,0.06,0.28,0.11,0.44,0.16
					c0.33,0.09,0.73,0.14,1.16,0.12c0.43-0.01,0.89-0.08,1.34-0.19c0.91-0.2,1.79-0.54,2.46-0.8c0.33-0.13,0.61-0.24,0.8-0.33
					C58.18,81.97,58.29,81.92,58.29,81.92z"/>
			</g>
			<g class="st3">
				<path class="st18" d="M42.36,82.99c1.3,1.54,3.25-1.22,3.25-1.22s3.17,5.28,10.24,2.6c2.11-1.22,3.66-0.32,3.66-0.32
					s0.23-0.91-0.12-1.52c-4.18,0.94-8.93,1.26-10.81-1.41c-1.23-2.29,2.14,0.46,3.52-2.14c-2.45,0.46-3.82-0.31-3.82-0.31
					s9.03-0.15,10.55-8.26c-3.21,4.74-9.18,7.5-11.32,5.81c-2.14-1.68,0.46-6.88,2.3-8.72c1.83-1.84,0.46,2.14,0.46,2.14
					s2.45-4.28,3.37-5.81c0.92-1.53,0,2.6,0.61,2.45c0.61-0.15,0.46-3.82,3.06-7.19c-0.15-1.83-1.99,0.16-2.91,2.14
					c1.22-3.82-2.14-1.38-2.9,2.14c-1.99-1.53-2.91,0.61-3.98,2.29c-1.07,1.68-1.22-0.61-0.76-2.29c0.46-1.68-3.06-0.76-3.67,3.36
					c-0.61,4.13-4.13,1.07-5.81-4.13c-0.77-2.91-1.84,3.36,1.68,9.02c1.07,2.3,0.77,3.21-1.07,0.92c-1.84-2.3-0.3,3.98,3.83,4.43
					c3.71,0.41,1.74,4.52-1.8,2.81c0.88,0.59,1.86,1.08,2.96,1.41C40.49,82.42,40.08,83.4,42.36,82.99z"/>
			</g>
			<g>
				<g>
					<path class="st18" d="M65.22,60.22c-0.52,0.62-0.89,1.32-0.89,1.32S64.72,60.99,65.22,60.22z"/>
					<path class="st11" d="M65.04,60.07l0.37,0.27c-0.49,0.78-0.89,1.33-0.9,1.33l-0.39-0.24C64.14,61.4,64.51,60.7,65.04,60.07z"/>
				</g>
				<path class="st20" d="M34.09,70.67c0,0.26,0.06,0.63,0.17,1.07c0.05-0.65,0.18-1.21,0.39-1.64c-2.75-2.76-2.3-6.12-1.07-6.12
					c-0.92-3.37,0.15-6.73,1.22-3.21c0-6.43,4.59-10.56,3.89-7.7c-0.7,2.86,0.24,4.33,0.55,1.42c0.31-2.91,2.45-4.28,2.6-2.91
					c0.16,1.38,0.31,4.44,0.92,1.38c0.61-3.06,2.6-3.36,2.75-1.53c0.15,1.84,1.22,2.45,1.38,1.23c0.16-1.23,2.14-4.13,1.84-2.6
					c-0.3,1.53,0.31,3.67,0.46,3.21c0.15-0.46,2.6-5.2,1.99-2.3c-0.61,2.91,0.15,4.74,0.92,2.91c0.76-1.83,3.52-3.36,2.75-1.68
					c-0.76,1.68,0.15,2.29,0.92,0.61c0.76-1.69,3.98-3.52,2.6-0.61c-1.38,2.91-0.61,5.51-0.15,3.83c0.46-1.69,3.21-4.74,3.67-3.67
					c0.46,1.07-1.22,3.36,0.3,2.91c1.53-0.46,2.45-4.43,2.6-1.68c0.15,2.75-1.84,5.05-1.84,5.05s1.99-0.61,3.82-3.98
					c1.16,0.85-0.45,3.81-1.56,5.57c0.54-0.65,1.24-1.21,1.87-0.82c1.22,0.77-2.6,6.42-2.6,6.42s3.52-4.43,3.83-2.91
					c0.3,1.53-3.06,6.28-3.06,6.28s4.13-3.21,3.21-0.15c-0.92,3.06-7.34,6.58-2.91,4.89c3.52-1.38,3.67,0.61-0.3,3.52
					c3.52-1.07-1.38,2.6-1.38,2.6l0.02,0.09c2.47-1.2,5.2-3.09,6.75-5.92c-1.46,1.22-2.35,1.54-2.35,1.54s3.9-3.33,4.14-6.83
					c0.81-1.22,1.71-0.97,1.71-0.97s-0.73-1.79-2.2-1.22c2.2-2.6,1.87-4.96,0.24-6.01c0,1.38-0.41,1.54-0.41,1.54
					s0.57-3.65-1.63-4.63c0.65-4.55-1.87-5.93-3.25-6.42c-1.63-1.3-2.52-2-3.54-1.59c0.21-1.23-1.85-2.19-3.7-0.82
					c-0.62-0.41-1.58-0.07-1.58-0.07c-0.27-1.37-3.91-1.58-5.69-0.55c-0.34-1.1-2.06-0.48-2.4,0c-1.03-0.89-4.93-0.55-5.55,0.21
					c-0.14-1.92-1.99-0.41-3.02,0.75c-0.41-2.06-4.8,0.89-5,4.04c-1.51-0.41-3.36,4.73-3.43,7.06
					C31.83,60.32,30.46,67.03,34.09,70.67z"/>
			</g>
			<path class="st21" d="M60.48,79.88c0,0-3.3,2.07-5.46,1.5c-2.17-0.56,3.48-2.36,0.28-2.17c-3.2,0.19,1.79-1.88,3.49-4.43
				c1.7-2.54,1.88-0.19,0.47,1.32c-1.42,1.51,1.13-0.1,3.3-0.57C64.72,75.07,64.15,77.62,60.48,79.88z"/>
			<path class="st21" d="M58.29,69.19c0,0-3.75,5.81-7.8,6.19c-4.05,0.38,2.91-10.1,2.83-6.89c-0.08,3.21,1.07-2.22,3.06-5.05
				c1.99-2.83,1.22,1.69-0.08,4.21C55,70.18,60.43,65.51,58.29,69.19z"/>
			<path class="st21" d="M59.78,58.52c0,0,0.34-2.3,0.91-3.79c0.57-1.49-1.37-0.46-2.06,2.41C57.94,60,59.66,60.69,59.78,58.52z"/>
			<path class="st21" d="M56.68,57.02c0,0,0.23-2.75,0.8-4.24c0.57-1.49-1.84-0.8-2.06,2.18C55.19,57.94,56.68,58.86,56.68,57.02z"
				/>
			<path class="st21" d="M60.47,61.15c0,0,4.02-2.29,5.05-3.79c1.03-1.49,0.57,2.41-3.21,4.48C59.78,63.22,59.66,61.73,60.47,61.15z
				"/>
			<path class="st21" d="M61.61,67.69c0,0,2.98-1.38,4.93-2.98c1.95-1.61,1.38,0.8-1.38,2.87C62.42,69.64,59.55,68.73,61.61,67.69z"
				/>
			<path class="st21" d="M42.34,58.74c0,0-0.8-2.64-0.69-5.05c0.11-2.41-2.07-0.92-1.84,2.53C40.04,59.66,43.03,62.07,42.34,58.74z"
				/>
			<path class="st21" d="M39.59,61.73c0,0-1.26-1.72-1.49-5.96c-0.23-4.25-1.83-0.46-0.8,4.13C38.32,64.48,40.16,63.79,39.59,61.73z
				"/>
			<path class="st18" d="M60.3,79.4c-0.54,0.36-1.11,0.67-1.69,0.97c-0.59,0.28-1.18,0.55-1.83,0.73c-0.16,0.04-0.33,0.08-0.51,0.09
				c-0.09,0.01-0.18,0.01-0.27,0l-0.07,0c-0.01,0-0.01,0-0.05,0l-0.03-0.01c-0.04-0.01-0.08-0.01-0.15-0.05
				c-0.11-0.04-0.25-0.14-0.29-0.3c-0.03-0.15,0-0.27,0.04-0.36c0.07-0.19,0.18-0.33,0.28-0.47c0.21-0.27,0.45-0.5,0.69-0.73
				c0.24-0.23,0.49-0.44,0.76-0.64l0.27,0.37c-0.28,0.19-0.56,0.34-0.87,0.46c-0.31,0.11-0.66,0.19-1.03,0.12
				c-0.09-0.03-0.19-0.05-0.27-0.1c-0.05-0.03-0.06-0.03-0.14-0.09c-0.03-0.03-0.05-0.03-0.11-0.13c-0.09-0.16-0.05-0.31-0.01-0.4
				c0.04-0.1,0.09-0.18,0.15-0.25c0.22-0.27,0.46-0.46,0.71-0.65c0.49-0.38,0.98-0.74,1.46-1.12c0.24-0.19,0.48-0.38,0.7-0.59
				c0.22-0.21,0.43-0.44,0.57-0.71c-0.1,0.29-0.29,0.55-0.49,0.79c-0.2,0.24-0.42,0.46-0.64,0.68c-0.45,0.42-0.93,0.81-1.38,1.22
				c-0.22,0.2-0.45,0.41-0.61,0.63c-0.09,0.1-0.1,0.24-0.1,0.19c-0.03-0.03,0.01,0.02,0.04,0.04c-0.02-0.02,0.04,0.02,0.06,0.02
				c0.05,0.03,0.11,0.04,0.17,0.06c0.24,0.04,0.52-0.01,0.78-0.11c0.26-0.1,0.53-0.25,0.75-0.41l0.27,0.37
				c-0.49,0.39-0.99,0.81-1.38,1.28c-0.09,0.11-0.18,0.24-0.23,0.35c-0.02,0.05-0.03,0.1-0.02,0.11c0,0,0,0.01,0.03,0.03
				c0,0,0.05,0.02,0.09,0.03l0.03,0.01c-0.02-0.01,0.01,0,0.01,0l0.05,0c0.07,0,0.13,0.02,0.21,0c0.15,0,0.3-0.03,0.45-0.05
				c0.61-0.12,1.22-0.35,1.82-0.59C59.12,79.94,59.71,79.67,60.3,79.4z"/>
			<path class="st18" d="M56.45,70.22c0,0-0.11,0.2-0.33,0.55c-0.22,0.33-0.53,0.83-0.98,1.37c-0.44,0.54-0.97,1.17-1.64,1.74
				c-0.33,0.29-0.7,0.56-1.11,0.8c-0.43,0.21-0.87,0.43-1.39,0.46c-0.07,0.01-0.12,0.01-0.2,0.02l-0.17-0.01
				c-0.12-0.01-0.27-0.03-0.39-0.07c-0.26-0.07-0.53-0.25-0.66-0.51c-0.14-0.26-0.15-0.53-0.13-0.78c0.02-0.24,0.08-0.47,0.14-0.69
				c0.14-0.44,0.34-0.82,0.53-1.17c0.2-0.35,0.41-0.67,0.6-0.96c0.39-0.58,0.78-1.01,1.04-1.32c0.27-0.3,0.44-0.46,0.44-0.46
				s-0.13,0.19-0.37,0.52c-0.23,0.33-0.54,0.81-0.89,1.4c-0.35,0.59-0.73,1.31-0.96,2.1c-0.11,0.39-0.17,0.84-0.01,1.14
				c0.16,0.28,0.58,0.38,1.01,0.33c0.42-0.01,0.82-0.2,1.21-0.38c0.38-0.22,0.74-0.46,1.07-0.73c0.66-0.53,1.23-1.09,1.7-1.6
				c0.46-0.51,0.84-0.94,1.1-1.25C56.3,70.4,56.45,70.22,56.45,70.22z"/>
			<path class="st18" d="M41.31,79.17c0,0-0.14-0.03-0.37-0.11c-0.23-0.09-0.56-0.2-0.92-0.4c-0.37-0.19-0.79-0.45-1.21-0.76
				c-0.21-0.16-0.42-0.33-0.63-0.51c-0.21-0.18-0.4-0.38-0.61-0.57c-0.19-0.21-0.37-0.42-0.55-0.62c-0.18-0.21-0.33-0.43-0.49-0.64
				c-0.15-0.21-0.28-0.43-0.41-0.63c-0.13-0.2-0.23-0.4-0.33-0.59c-0.21-0.36-0.32-0.69-0.42-0.91c-0.09-0.22-0.14-0.36-0.14-0.36
				s0.08,0.11,0.22,0.31c0.07,0.1,0.15,0.22,0.24,0.36c0.09,0.14,0.21,0.29,0.33,0.45c0.12,0.17,0.24,0.35,0.39,0.54
				c0.14,0.18,0.29,0.38,0.45,0.58c0.16,0.19,0.34,0.39,0.5,0.59c0.18,0.19,0.37,0.39,0.55,0.59c0.19,0.19,0.38,0.39,0.57,0.56
				c0.2,0.18,0.38,0.36,0.58,0.52c0.38,0.33,0.76,0.61,1.09,0.85c0.33,0.23,0.62,0.42,0.83,0.54C41.18,79.1,41.31,79.17,41.31,79.17
				z"/>
		</g>
		<path class="st22" d="M60.58,19.16c0,0-6.54-4.47-8.61-0.23C51.17,21.11,51.75,11.58,60.58,19.16z"/>
		<path class="st22" d="M42.03,26.96c0,0-3.64-2.1-8.67,0.7C35.32,24.73,38.82,24.73,42.03,26.96z"/>
		<g>
			<path class="st23" d="M31.74,27.42c-0.76,1.84-2.44,3.82,0,3.52c2.45-0.31,2.91-0.92,1.84,0.15c-1.07,1.07-3.82,3.52,0.77,1.68
				c6.88-2.6,13.92-2.6,13.92-2.6c2.45,0.15-0.77-1.38-5.97-0.62c-5.2,0.77-4.13-0.61-1.53-1.83c2.6-1.22,1.69-2.6-2.29-2.45
				C34.5,25.43,32.51,25.58,31.74,27.42z"/>
			<path class="st23" d="M56.37,24.82c4.59-0.76,6.42-0.61,2.75,0.92c-3.67,1.53-8.57,2.29-3.98,3.21c4.59,0.92,8.87,3.82,8.87,3.82
				c1.84,0.77,1.23-0.15-0.61-2.44c-1.83-2.3-1.68-3.67,0.61-2.6c2.3,1.07,1.68-2.6-0.3-4.59c-1.99-1.99-0.61-4.44-5.81-6.73
				c-5.2-2.29-7.65,1.23-7.65,5.81C50.25,26.81,51.79,25.58,56.37,24.82z"/>
			<path class="st10" d="M52.03,13.97c-2.18,0.11,0.46-2.64,2.75-2.64c2.29,0,3.89,2.17,2.52,2.06c-1.38-0.11-2.29,0.11-0.23,0.8
				c1.46,0.6,2.97,1.7,4.16,2.71c-0.25-0.58-0.48-1.18-0.7-1.77c-0.89-2.5-2.56-3.39-3.65-4.41s-2.69-1.28-4.86-0.9
				c-2.18,0.38-1.98,1.79-2.88,4.22c-0.49,1.31-1.03,4.12-1.42,7.07c0.07-0.13,0.12-0.33,0.17-0.61
				C48.48,17.18,49.51,15.81,52.03,13.97z"/>
			<path class="st10" d="M29,30.25c0,0,2.06-4.24,3.21-4.7c1.14-0.46,3.32-0.92,2.06-1.26c-1.26-0.35-0.46-1.03,4.13-0.92
				c2.22,0.05,4.13,0.7,5.53,1.35c-0.42-0.51-0.86-0.95-1.36-1.27c-1.66-1.02-5.38-2.05-7.68-1.02c-2.3,1.02-3.71,2.63-5.25,6.14
				c-0.24,0.55-0.49,1.11-0.74,1.66L29,30.25z"/>
		</g>
		<path class="st14" d="M61.45,42.2c0,0-10.5-9.53-24.87,1.11C31.19,46.89,46.95,29.62,61.45,42.2z"/>
		<path class="st14" d="M56.07,34.76c0,0-5.97-2.3-14.99,0.92C36.79,36.9,46.89,30.17,56.07,34.76z"/>
	</g>
</g>
</svg>
