<?xml version="1.0" encoding="utf-8"?>
<!-- Generator: Adobe Illustrator 23.0.3, SVG Export Plug-In . SVG Version: 6.00 Build 0)  -->
<svg version="1.1" id="Слой_1" xmlns="http://www.w3.org/2000/svg" xmlns:xlink="http://www.w3.org/1999/xlink" x="0px" y="0px"
	 viewBox="0 0 100 67" style="enable-background:new 0 0 100 67;" xml:space="preserve">
<style type="text/css">
	.st0{fill:#878286;}
	.st1{fill:#5B575B;}
	.st2{fill:#6D696D;}
	.st3{fill:#999698;}
	.st4{fill:#A5A0A4;}
	.st5{fill:#BCB7BB;}
	.st6{opacity:0.5;fill:#6D696D;}
</style>
<g>
	<g>
		<g>
			<path class="st0" d="M72.11,40.64c-0.08-2.18-0.8-8.26-1.1-10.22c-0.39,0.05-0.71,0.17-1.14,0.5c-0.71,0.53-1.2,1.1-1.93,1.35
				c0.4,2.39,0.33,4.93,0.39,7.34c0.05,1.73,0.09,3.47,0.14,5.2c1.16-0.55,2.94-1.71,3.61-1.79C72.12,42.22,72.14,41.38,72.11,40.64
				z"/>
			<path class="st0" d="M76.93,40c-0.01-0.53-0.04-1.06-0.07-1.59c-0.34-1.87-0.76-4.14-1.13-5.74c-0.19-0.81-0.55-2.79-0.56-2.85
				c0,0-0.1-0.11-0.25-0.28c-0.62,0.35-1.16,0.58-1.75,0.71c0.25,2.28,1.04,5.55,1.34,7.42c0.14,0.88,0.36,1.75,0.47,2.63
				c0.11,0.85-0.17,2.08-0.18,3c0.44,0.04,0.87,0.04,1.24-0.05c0.4-0.1,0.57-0.61,0.83-0.97C76.73,41.54,76.94,40.51,76.93,40z"/>
			<path class="st1" d="M75.73,32.67c0.41,1.75,0.87,4.34,1.23,6.29c0.2-0.98,0.39-2.8,0.24-4.49c-0.19-2.3-0.59-4.86-0.99-6.29
				c-0.66,0.13-1.19,0.21-1.51,0.2c0.01,0.58-0.15,0.9,0.28,1.13c-0.02,0.01-0.04,0.02-0.06,0.03c0.15,0.16,0.25,0.28,0.25,0.28
				C75.19,29.89,75.55,31.87,75.73,32.67z"/>
			<path class="st2" d="M74.98,40.31c-0.11-0.88-0.33-1.75-0.47-2.63c-0.3-1.87-1.09-5.15-1.34-7.42c-0.44,0.1-0.9,0.15-1.45,0.14
				c-0.28,0-0.51,0-0.72,0.02c0.29,1.96,1.01,8.04,1.1,10.22c0.03,0.73,0.01,1.57-0.02,2.38c0.01,0,0.03-0.01,0.04-0.01
				c0.8-0.04,1.77,0.21,2.67,0.29C74.81,42.39,75.09,41.16,74.98,40.31z"/>
			<path class="st2" d="M67.94,32.27c-0.3,0.1-0.63,0.16-1.03,0.13c-0.9-0.07-2.86-0.46-2.85-0.42c0.15,0.63,0.06,1.12-0.49,1.29
				c-0.18,0.06-0.42,0.08-0.68,0.09c0.76,2.86,1.09,5.83,1.22,8.78c0.04,0.95,0.06,1.91,0.07,2.87c0.01,0.52-0.11,1.21,0,1.76
				c0.05-0.02,0.1-0.03,0.15-0.05c0.74-0.28,1.35-1.43,1.35-1.43s1.25,0.13,2.37-0.29c0.13-0.05,0.27-0.11,0.42-0.18
				c-0.05-1.73-0.1-3.47-0.14-5.2C68.27,37.2,68.34,34.66,67.94,32.27z"/>
		</g>
		<g>
			<path class="st2" d="M79.01,37.4c0.05-1.15-0.12-1.86,0.84-1.57c0.48,0.15,0.27-1.4,0.37-2.26c0.09-0.77,0.61-1.51,0.58-2.28
				c-0.04-1.39-0.12-2.78-0.11-4.17c-1.61,0.38-3.27,0.81-4.48,1.05c0.4,1.44,0.79,4,0.99,6.29c0.14,1.69-0.05,3.51-0.24,4.49
				c-0.03-0.18-0.07-0.36-0.1-0.55c0.04,0.53,0.06,1.06,0.07,1.59c0.01,0.51-0.2,1.53-0.06,2.28c0.11-0.15,0.23-0.27,0.4-0.33
				c0.56-0.18,1.11-0.36,1.67-0.54C78.92,40.13,78.96,38.56,79.01,37.4z"/>
			<path class="st1" d="M82.52,33.4c-0.07-1.79,0-4.34-0.14-6.65c-0.54,0.11-1.11,0.24-1.68,0.37c-0.01,1.39,0.06,2.78,0.11,4.17
				c0.02,0.77-0.49,1.51-0.58,2.28c-0.11,0.86,0.11,2.41-0.37,2.26c-0.95-0.29-0.78,0.42-0.84,1.57c-0.05,1.16-0.09,2.73-0.07,4.01
				c1.2-0.39,2.41-0.79,3.66-1.07C82.63,38.03,82.61,35.71,82.52,33.4z"/>
		</g>
		<g>
			<path class="st3" d="M74.71,28.38c1.1,0.05,4.77-1.03,7.67-1.63c0-0.01,0-0.02,0-0.04c-2.21-0.8-4.37-1.72-6.47-2.78
				c-0.7-0.36-1.54-0.71-2.17-1.24c-1.22,0.17-2.42-0.44-3.52-0.94c-1.13-0.51-2.39-1.09-3.58-0.39c-0.77,0.45-1.3,1.19-2.14,1.55
				c-1.07,0.45-2.26,0.33-3.26,0.98c-0.84,0.55-1.46,1.46-1.68,2.44c-0.44,1.92,0.77,3.62,2.44,4.3c0.35-0.02,1.64,1.17,2.09,2.11
				c0.05-0.21,0.04-0.47-0.03-0.75c-0.01-0.04,1.95,0.35,2.85,0.42c1.4,0.1,1.97-0.74,2.96-1.48c0.66-0.5,1.05-0.53,1.86-0.52
				c1.3,0.02,2.15-0.25,3.26-0.88C74.56,29.28,74.72,28.96,74.71,28.38z"/>
			<path class="st4" d="M62,30.62c-1.68-0.68-2.88-2.38-2.44-4.3c0.23-0.98,0.84-1.89,1.68-2.44c1-0.65,2.19-0.54,3.26-0.98
				c0.84-0.35,1.37-1.09,2.14-1.55c1.19-0.69,2.45-0.12,3.58,0.39c1.1,0.5,2.3,1.11,3.52,0.94c-0.18-0.15-0.34-0.31-0.48-0.49
				c-0.72-0.95,0.21-1.93-0.2-2.92c-0.49-1.19-2.15-1.17-3.21-1.16c-2.47,0.03-4.95,0.16-7.42,0.35c-4.78,0.37-9.55,1.01-14.25,1.93
				c-2.3,0.45-4.6,0.94-6.86,1.53c-1.02,0.27-1.88,0.62-2.45,1.32c-0.41,1.58,3.07,2.94,4.11,3.46c1.69,0.85,3.44,1.57,5.21,2.24
				c3.28,1.24,9.43,3.38,12.77,4.44c0.83-0.11,2,0.07,2.62-0.12c0.3-0.09,0.46-0.28,0.52-0.54C63.64,31.8,62.36,30.6,62,30.62z"/>
		</g>
		<g>
			<path class="st2" d="M61.4,44.42c-0.16-0.51-0.38-0.93-0.9-1.12c-0.06-0.02-0.12-0.04-0.18-0.05c-0.04,1.16-0.07,2.31-0.09,3.47
				c1.11,0.03,1.99,0.27,2.9,0.24C62.2,46.32,61.73,45.51,61.4,44.42z"/>
			<path class="st2" d="M60.19,46.71c0.01,0,0.02,0,0.03,0c0.02-1.16,0.05-2.31,0.09-3.47c-0.47-0.1-1,0.03-1.41,0.26
				c-0.25,0.14-0.45,0.33-0.64,0.55c-0.49,0.56-0.82,0.62-1.55,0.55c-2.4-0.23-4.79-0.67-7.12-1.3c-1.15-0.31-2.28-0.66-3.4-1.07
				c-1.12-0.4-2.29-0.89-2.8-2.04c-0.1-0.23-0.18-1.23-0.42-0.39c-0.43,1.47-1.28,1.48-2.26,1.32c-0.32-0.05-0.64-0.08-0.96-0.11
				c2.53,0.92,5.85,2.1,7.96,2.82C51.08,45,56.59,46.6,60.19,46.71z"/>
		</g>
		<g>
			<path class="st0" d="M64.18,45c-0.01-0.96-0.03-1.91-0.07-2.87c-0.13-2.95-0.46-5.92-1.22-8.78c-0.61,0.02-1.36-0.04-1.94,0.04
				c-3.34-1.06-9.49-3.2-12.77-4.44c-1.49-0.56-2.97-1.17-4.41-1.85c-0.08,0.21-0.12,0.41-0.05,0.57c0.17,0.38,0.26,1.16,0.53,1.42
				c0.19,0.18,0.19,0.58-0.1,0.41c-0.35-0.18-0.53,0.05-0.63,0.39c-0.15,0.48-0.55,0.84-0.85,1.26c-0.6,0.85-0.73,1.68-0.83,2.7
				c-0.17,1.64-0.9,3.06-1.67,4.49c-0.08,0.15-0.29,0.1-0.34-0.04c-0.49-1.35-0.78-2.82-0.66-4.24c0.21-2.56-0.45-4.62-0.45-4.78
				c0-0.08,0.12-0.1,0.14-0.02c0.01,0.05,0.02,0.09,0.03,0.14c0.58-1.27,1.22-2.51,1.91-3.73c0,0,0-0.01,0-0.01
				c-1.13-0.64-2.17-1.48-1.94-2.38c-0.27,0.32-0.48,0.71-0.6,1.21c-0.64,2.5-0.82,5.2-1.2,7.76c-0.28,1.91-0.63,5.53-0.85,7.46
				c-0.13-0.01,1.43,0.57,3.54,1.33c0.32,0.03,0.64,0.06,0.96,0.11c0.98,0.15,1.83,0.14,2.26-1.32c0.25-0.84,0.32,0.17,0.42,0.39
				c0.52,1.15,1.69,1.64,2.8,2.04c1.12,0.4,2.25,0.76,3.4,1.07c2.33,0.63,4.71,1.07,7.12,1.3c0.73,0.07,1.05,0.01,1.55-0.55
				c0.19-0.22,0.39-0.41,0.64-0.55c0.41-0.23,0.94-0.36,1.41-0.26c0.06,0.01,0.12,0.03,0.18,0.05c0.52,0.19,0.75,0.61,0.9,1.12
				c0.34,1.09,0.81,1.9,1.72,2.53c0.35-0.01,0.7-0.06,1.07-0.19C64.07,46.21,64.19,45.52,64.18,45z"/>
			<path class="st2" d="M38.71,29.26c0,0.16,0.66,2.22,0.45,4.78c-0.12,1.42,0.16,2.89,0.66,4.24c0.05,0.14,0.26,0.2,0.34,0.04
				c0.77-1.43,1.51-2.85,1.67-4.49c0.1-1.02,0.23-1.84,0.83-2.7c0.3-0.42,0.7-0.78,0.85-1.26c0.1-0.33,0.28-0.56,0.63-0.39
				c0.29,0.18,0.3-0.23,0.1-0.41c-0.28-0.26-0.37-1.03-0.53-1.42c-0.07-0.15-0.03-0.35,0.05-0.57c-0.27-0.13-0.53-0.25-0.8-0.38
				c-0.44-0.22-1.33-0.6-2.17-1.08c0,0,0,0.01,0,0.01C40.11,26.86,38.72,29.18,38.71,29.26z"/>
		</g>
		<path class="st5" d="M79.84,25.6c-1.61-0.65-3.27-1.27-4.76-2.14c-0.39-0.23-1.41-0.97-1.67-1.51c-0.18-0.39-0.21-0.72-0.15-1.15
			c0.1-0.62,0.12-1.31-0.2-1.52c0.11,0.84-0.77,2-1.03,2.48c-0.1,0.18-0.04,0.59,1.28,1.13c0.97,0.39,2.03,1.11,2.34,1.27
			c1.28,0.64,2.59,1.03,3.83,1.74c0.37,0.22,0.7,0.9-0.28,1.15c-0.15,0.04-0.95,0.28-1.1,0.3c-0.93,0.09-1.86,0.2-2.78,0.23
			c-1.35,0.05-0.9-0.83-0.81-1.52c-1,0.16-0.96,0.58-0.99,1.02c-0.03,0.41,0.22,0.86,0.47,1.26c0.38,0.6,0.05,1.13-0.29,1.29
			c-0.52,0.24-2.02,0.15-2.5,0.2c-1.18,0.11-1.91,0.94-2.5,1.57c-0.1,0.1-0.2,0.21-0.29,0.31c-0.17,0.13-0.36,0.24-0.54,0.34
			c-1.54,0.51-5.94-1.73-6.77-1.86c0.66,0.39,1.22,0.9,1.79,1.29c0.56,0.38,0.33,0.74,0.24,0.86c-0.52,0.65-2.35,0.56-3.1,0.45
			c-2.14-0.32-4.18-1.11-6.24-1.8c-4.07-1.35-7.77-3.44-11.67-5.24c-0.43-0.2-1.67-1.03-1.9-1.33c-0.48-0.63-0.11-1.76,0.68-2.37
			c-0.34,0.03-0.95,0.27-1.12,0.36c-0.39,0.21-0.95,0.69-1,0.94c-0.08,0.44,0.24,0.98,0.55,1.3c0.05,0.06,0.19,0.21,0.29,0.33
			c0.2,0.26,0.18,0.69,0.14,0.95c-0.16,0.97-0.32,1.19-0.66,2.17c-0.12,0.35-0.39,1.14-0.39,1.14c1.17-0.84,1.91-2.12,2.19-2.95
			c0.03-0.09,0.17-0.41,0.4-0.31c1.48,0.64,7.1,3.43,10.24,4.63c2.01,0.76,4.04,1.45,6.11,2.02c1.43,0.4,4.73,0.62,5.36,2.3
			c0.29,0.76,0.57,2.45,0.69,3.24c0.28,1.94,0.19,4.09,0.46,6.03c0.24-1.93,0.27-4.37-0.03-6.36c-0.18-1.17-0.41-2.12-0.23-3.3
			c0.09-0.57,0.27-1.27,0.29-1.95c0.49,0.24,2.86,0.3,3.4,0.13c0.5-0.1,0.95-0.33,1.31-0.71c0.66-0.46,1.35-1.38,2.1-1.54
			c0.58-0.12,0.83-0.06,1.38-0.02c0.18,0.01,0.93,0.04,1.09,0.03c0.61-0.04,1.45-0.2,1.69-0.67c-0.08-0.57-0.45-1.08-0.44-1.36
			c0.24-0.01,0.44-0.06,0.95-0.12c0.66-0.08,1.6-0.28,2.17-0.39c1.49-0.27,3.03-0.91,4.52-1.19C81.78,26.42,80.02,25.67,79.84,25.6z
			"/>
		<path class="st2" d="M62.77,40.04c-0.02-0.79,0.07-2.39-0.68-2.69c-0.74-0.3-0.4-1.14-1.16-1.79c-0.53-0.46-1.21,0.05-1.37-0.21
			c-0.39-0.64-0.83-1.14-1.24-1.06c-0.19,1.64-0.07,2.7,0.8,4.12c0.15,0.24,0.71,0.56,0.86,0.8c0.22,0.35-0.11,1.05,0.53,1.37
			c0.78,0.39,1.12,0.46,1.16,1.3c0.04,0.97,0.21,2.34,1.22,2.34c0.17,0-0.35-0.97-0.18-1.93C62.9,41.24,62.79,41.09,62.77,40.04z"/>
	</g>
	<path class="st6" d="M63.24,22.59c-4.8-0.44-10.64-1.05-15.26,0.52c-0.98,0.26-1.91,0.68-2.3,1.43c-0.61,1.19,0.57,2.33,1.84,2.92
		c3.87,1.78,9.42,2.15,13.9,1.88c2.25-0.14,4.57-0.43,6.68-1.08c1.42-0.44,3.85-1.33,4.34-2.55C73.47,23.14,64.94,22.74,63.24,22.59
		z"/>
	<g>
		<g>
			<path class="st4" d="M64.64,18.37c0.64,0.38,1.03,1.06,1.49,1.74c2.64,3.91,6.57-1.02,8.99-3.28c-0.29-0.94-0.81-1.78-1.48-2.52
				c-1.77-0.78-3.6-1.38-5.6-1.52C65.77,12.63,64.95,15.82,64.64,18.37z"/>
			<path class="st4" d="M54.11,14.7c-0.24-2.16-0.87-4.5-2.34-6.16c-1.1-1.24-2.44-1.67-3.88-1.72c-2.48,1.36-5.78,4.21-7.69,6.44
				c-0.38,0.44-0.61,0.95-0.73,1.49c2.87,2.36,5.88,4.49,9.21,6.17c1.4,0.71,2.9,1.38,4.45,1.69C54.05,20.1,54.41,17.38,54.11,14.7z
				"/>
			<path class="st3" d="M66.16,9.74c-5.24-2.26-10.82-3.95-16.59-3.62c-0.48,0.12-1.05,0.37-1.67,0.71
				c1.43,0.04,2.78,0.48,3.88,1.72c1.47,1.66,2.1,4,2.34,6.16c0.3,2.69-0.06,5.4-0.98,7.91c0.44,0.09,0.89,0.15,1.34,0.17
				c2.51,0.12,3.87-1.14,5.48-2.85c0.95-1.02,2.19-1.99,3.67-1.88c0.41,0.03,0.74,0.15,1.02,0.31c0.31-2.55,1.13-5.74,3.4-5.58
				c1.99,0.14,3.83,0.73,5.6,1.52C71.74,12.19,68.63,10.8,66.16,9.74z"/>
		</g>
		<path class="st0" d="M56.29,22.59c-0.54,0.15-1.13,0.22-1.81,0.19c-2.04-0.1-3.99-0.95-5.79-1.86c-3.33-1.68-6.34-3.82-9.21-6.17
			c-0.28,1.21-0.02,2.59,0.31,3.78c0.43,1.56,0.92,3.15,1.74,4.56c2.03,3.48,5.81,3.89,9.49,4.32c1.11,0.13,3.27,0.34,5.85,0.36
			c-0.07-0.87-0.16-1.75-0.24-2.62C56.54,24.35,56.61,23.34,56.29,22.59z"/>
		<g>
			<path class="st3" d="M59.86,22.2c0.04-0.75,0.07-1.55,0.16-2.34c-0.02,0.02-0.04,0.05-0.07,0.07c-1.17,1.25-2.21,2.25-3.66,2.66
				c0.33,0.75,0.26,1.76,0.33,2.56c0.09,0.87,0.17,1.75,0.24,2.62c0.98,0.01,2.02-0.01,3.09-0.08c-0.01-0.02-0.01-0.05-0.02-0.07
				C59.56,25.9,59.78,23.95,59.86,22.2z"/>
			<path class="st2" d="M75.12,16.83c-2.14,2-5.47,6.09-8.04,4.29c-0.16,0.48-0.32,0.95-0.48,1.43c-0.49,1.46-0.91,2.99-1.44,4.45
				c1.95-0.44,3.79-1.11,5.28-2.1c1.52-1.01,4.3-2.8,4.74-4.94c0.04-0.06,0.08-0.12,0.09-0.19C75.47,18.69,75.39,17.71,75.12,16.83z
				"/>
		</g>
		<g>
			<path class="st0" d="M62.5,23.83c0.04-0.81,0.21-1.66,0.17-2.47c-0.06-1.1-0.48-1.52-1.08-2.19c-0.01,0-0.02,0.01-0.03,0.01
				c-0.25,0.07-0.41-0.14-0.39-0.34c-0.42,0.3-0.81,0.66-1.16,1.02c-0.09,0.79-0.12,1.59-0.16,2.34c-0.08,1.74-0.3,3.7,0.08,5.42
				c0.01,0.02,0.01,0.05,0.02,0.07c0.8-0.05,1.62-0.12,2.43-0.22C62.23,26.32,62.45,24.87,62.5,23.83z"/>
			<path class="st0" d="M66.04,20.82c0.21,0.6,0.39,1.26,0.5,1.94c0.02-0.07,0.05-0.14,0.07-0.21c0.16-0.48,0.32-0.95,0.48-1.43
				c-0.33-0.23-0.65-0.56-0.95-1.01c-0.67-0.99-1.19-1.95-2.51-2.06c-0.65-0.05-1.24,0.11-1.79,0.38
				C63.86,17.9,65.27,18.68,66.04,20.82z"/>
			<path class="st0" d="M66.54,22.76c-0.11-0.68-0.29-1.35-0.5-1.94c-0.77-2.14-2.18-2.92-4.21-2.38c-0.23,0.11-0.45,0.25-0.66,0.4
				c-0.02,0.2,0.13,0.41,0.39,0.34c0.01,0,0.02-0.01,0.03-0.01c0.6,0.67,1.02,1.08,1.08,2.19c0.04,0.81-0.13,1.66-0.17,2.47
				c-0.05,1.04-0.27,2.49-0.12,3.65c0.94-0.12,1.88-0.27,2.79-0.48C65.68,25.61,66.08,24.16,66.54,22.76z"/>
		</g>
		<path class="st5" d="M71,19.6c-0.55,0.37-1.07,0.77-1.61,1.15c-0.9,0.62-1.86,0.83-2.45-0.24c-0.19-0.34-0.71-1.85-1.64-2.57
			c-0.45-0.35-1.18-0.24-1.74-0.16c-1.14,0.15-2.17,0.75-3.08,1.42c-0.54,0.4-2.11,1.89-3.71,2.44c-1.6,0.54-3.23,0.33-3.92,0.24
			c-1.43-0.18-3.25-1.13-4.75-1.95c-1.6-0.86-2.78-1.94-3.25-2.15c-0.85-0.38-3.38-1.39-4.52-2.53c-0.64-0.64-0.29-1.77-0.3-1.76
			c-0.83,0.89-0.87,1.75,0.28,2.8c1.27,1.15,2.94,1.78,3.83,2.51c0.52,0.43,1.14,1.43,2.05,1.78c0.7,0.27,1.91,0.18,2.46,0.32
			c0.13,0.1,0.28,0.16,0.45,0.17c0.41,0.22,0.85,0.48,0.99,0.72c0.11,0.2,0.68,2.1,0.98,2.88c0.05,0.16,0.1,0.33,0.17,0.49
			c0.14,0.34,0.02-2.06,0.02-2.45c0.18,0.09,0.4,0.15,0.58,0.2c1.32,0.35,2.73,0.11,3.99-0.35c0.26,1.02,0.92,3.7,0.92,3.7
			c0.19-1.49,0.32-2.68,0.11-3.35c0.6-0.83,1.64-1.4,2.24-1.85c1.09-0.83,2.22-2.21,4.29-2.08c1.27,0.08,2.48,1.29,2.73,2.51
			c0.28,1.36-0.31,3.07-0.43,4.07c0.89-0.94,2.43-2.65,3.39-3.53c1.21-1.11,3.79-2.23,4.9-4.04C74.17,17.63,71.61,19.13,71,19.6z"/>
		<path class="st2" d="M51.44,26.59c-0.47-0.21-0.55-0.74-1.02-0.91c-0.7-0.26-1.44-0.3-2.17-0.38c-0.69-0.08-0.69-0.53-0.88-0.84
			c-0.43-0.69-0.96-1.49-1.65-1.49c-0.26,0-0.35,0.3-0.19,0.48c0.36,0.41,0.99,1.65,0.42,1.65c-0.28,0-0.96-0.55-1.21-0.61
			c-0.71-0.23-1.93-0.36-3.24-2.23c-0.38-0.54-0.66-1.75-1.26-2.15c0.45,1.35,0.74,2.18,1.15,2.89c0.11,0.28,0.27,0.55,0.5,0.77
			c0.48,0.65,1.21,1.31,1.93,1.75c1.68,1.05,2.64,1.24,3.09,1.37c1.03,0.3,6.05,0.79,7.15,0.81C53.8,27.07,52.21,26.93,51.44,26.59z
			"/>
		<path class="st5" d="M66.16,9.74c-2.84-1.71-6.67-3.01-9.95-3.55c-1.56-0.26-3.18-0.32-4.75-0.21c-1.42,0.1-3.36,0.07-4.48,1
			c-0.7,0.59-1.75,1.44-2.59,2.28c1.59-0.52,2.02-1.06,3-1.45c0.5,0.02,1-0.52,1.52-0.5c1.03,0.06,1.87,1.27,2.53,1.95
			c1.69,1.74,2.58,4.17,2.77,6.58c0.55-1.2,0.39-2.94,0.14-4.24c-0.17-0.89-0.51-2.03,0.25-2.74c0.36-0.34,1.24-0.53,1.72-0.63
			C59.36,7.63,64.7,10.13,66.16,9.74z"/>
	</g>
	<g>
		<g>
			<path class="st2" d="M68.84,50.57c0.49-0.77,2.02-0.81,2.23-1.76c0.25-1.15,0.72-2.36,0.73-4.01c-1.34,0.81-3.12,1.63-4.13,2.14
				c-1.38,0.7-2.82,0.96-3.06,2.63c-0.14,1-0.14,2.01-0.18,3.02c-0.03,0.62,0.26,2.21,0.8,2.71c0.04,0.04,0.08,0.07,0.13,0.1
				c0.23,0.01,0.44,0.01,0.62,0.02c0.33,0.01,0.85-0.15,1.46-0.41C67.3,53.3,68.26,51.48,68.84,50.57z"/>
			<path class="st1" d="M72.93,51.15c1.22-1.63,1.18-5.03,0.85-7.04c-0.05-0.31-0.13-0.58-0.23-0.82c-0.17,0.44-0.87,0.98-1.75,1.51
				c-0.02,1.64-0.48,2.85-0.73,4.01c-0.21,0.94-1.74,0.99-2.23,1.76c-0.58,0.91-1.54,2.73-1.4,4.45
				C69.26,54.23,71.94,52.47,72.93,51.15z"/>
		</g>
		<g>
			<path class="st0" d="M71.82,41.56c-1.46-0.67-3.36-0.79-5.03-0.76c-0.74-0.01-1.48,0.03-2.2,0.08c-2.3,0.16-5.84,1.03-8.06,1.65
				c-1,1-1.11,4.23-0.98,5.39c0.05,0.47,0.14,0.91,0.24,1.33c0.18-0.29,0.39-0.57,0.43-0.9c-0.13-0.91,0.03-1.32,0.33-0.91
				c0.54,0.73,0.31,1.26,1.42,1.58c0.52,0.15,0.38,1.23,0.46,1.38c0.58,1.06,0.76,0.31,1.15,0.7c1.05,1.06,1.82,0.59,3.11,1.03
				c0.43,0.15,1.01,0.97,1.76,0.99c-0.02-0.2-0.03-0.38-0.03-0.51c0.05-1.01,0.04-2.02,0.18-3.02c0.23-1.67,1.68-1.94,3.06-2.63
				c1.68-0.85,5.46-2.54,5.88-3.66C73.09,42.18,72.22,41.74,71.82,41.56z"/>
			<path class="st2" d="M59.59,51.1c-0.39-0.39-0.58,0.36-1.15-0.7c-0.08-0.15,0.06-1.23-0.46-1.38c-1.11-0.31-0.88-0.85-1.42-1.58
				c-0.3-0.41-0.46,0-0.33,0.91c-0.04,0.33-0.24,0.61-0.43,0.9c1.38,5.59,6.89,6.08,9.55,6.17c-0.04-0.03-0.09-0.07-0.13-0.1
				c-0.42-0.39-0.69-1.46-0.78-2.2c-0.75-0.02-1.32-0.84-1.76-0.99C61.41,51.69,60.64,52.16,59.59,51.1z"/>
		</g>
		<g>
			<path class="st3" d="M73.21,42.53c-0.94-1.01-2.72-1.63-4.01-1.78c-4-0.46-10.83,1.05-12.66,1.78c0.38,0.97,0.91,1.86,1.54,2.63
				c-0.01-0.14,0-0.28,0.06-0.44c0.05-0.15,0.21-0.27,0.37-0.27c0.7-0.54,1.82-0.65,2.62-0.88c1.41-0.41,2.85-0.68,4.26-1.08
				c0.19-0.06,0.33,0.12,0.3,0.3c-0.07,0.4-0.19,0.56-0.56,0.75c-0.22,0.11-0.71,0.44-0.52,1.56c0.18,1.03-0.24,2.32-0.26,3.05
				c1.92-0.11,4.85-1.42,7.23-3.48c0.18-0.16,1.08-0.44,1.27-0.56C73.55,43.65,73.87,43.24,73.21,42.53z"/>
			<path class="st4" d="M64.62,45.1c-0.19-1.12,0.3-1.45,0.52-1.56c0.36-0.19,0.49-0.35,0.56-0.75c0.03-0.18-0.11-0.36-0.3-0.3
				c-1.4,0.4-2.85,0.67-4.26,1.08c-0.8,0.23-1.92,0.35-2.62,0.88c-0.16,0-0.32,0.12-0.37,0.27c-0.05,0.15-0.07,0.3-0.06,0.44
				c1.5,1.82,3.63,2.99,5.99,3.01c0.09,0,0.19,0,0.28-0.01C64.37,47.43,64.79,46.14,64.62,45.1z"/>
		</g>
		<path class="st5" d="M70.72,44.75c-1.48,1.28-3.74,2.24-4.28,2.51c-1.39,0.71-2.56,0.82-3.48,0.41c-1.43-0.64-2.52-0.66-2.99-1.15
			c-0.54-0.57-1.4-2.12-1.64-2.43c-0.27-0.35-0.98-1.09-1.79-1.55c0.33,0.79,0.51,2.28,2.88,4.26c0.35,0.29,0.94,0.89,1.35,0.9
			c0.22,0.07,1.61,0.2,2.1,0.42c0.32,0.14,0.76,0.29,1.03,0.93c0.37,0.87,0.2,1.86,0.18,2.26c-0.05,1.5-0.2,2.78,0.86,3.61
			c-0.39-0.9-0.21-3.39-0.03-5.14c0.06-0.62,0.36-1.45,0.74-1.45c1.88,0.04,2.58-0.97,3.49-1.71c1.35-1.09,1.63-0.32,2.47-1.08
			c0.27-0.25,0.48-0.8,0.73-0.91c0.85-0.37,1.21-0.62,1.24-1.4C72.96,44.05,71.79,43.82,70.72,44.75z"/>
		<path class="st0" d="M71.73,45.87c-0.21,1.39-0.47,2.62-1.76,3.29c-0.72,0.38-1.6,1.81-2.15,2.16c-1.26,0.81-0.91,2.37-0.4,3.26
			c0.21-1.88,0.61-2.27,1.36-2.87c0.8-0.64,0.86-1.66,1.7-2.18C71.93,48.62,71.99,47.15,71.73,45.87z"/>
	</g>
	<g>
		<path class="st2" d="M49.18,15.79c-0.22-2.18-7.34-4.22-9.81-4.89c-2.76-0.75-5.57-1.39-8.41-1.71c-2.75-0.31-5.53-0.37-8.28-0.08
			c-2.58,0.27-5.74,0.71-8.02,2.04c-0.82,0.48-1.35,1.1-1.64,1.79c1.73,5.2,7.84,6.98,12.86,8.22c4.9,1.21,10.16,2.37,15.03,0.85
			c0.85-0.42,3.43-1.4,4.3-1.72c0.7,1.73-1.84,3.2-2.63,3.7c-3.25,2.08-3.45,6.26-3.66,9.75c-0.14,2.26-0.59,4.45-0.77,6.7
			c-0.12,1.51-0.17,3.03-0.21,4.56c2.13-0.62,4.16-1.5,5.12-2.49c3.31-3.4,4.82-12.88,5.29-15.96
			C48.94,22.66,49.58,19.72,49.18,15.79z"/>
		<g>
			<path class="st3" d="M43.91,11.14c-0.61-0.27-1.23-0.5-1.85-0.71c-0.19,0.43-0.56,0.78-1.06,1.01c-2.73,1.26-6.37,0.16-9.13-0.33
				c-1.06-0.19-5.17-1.13-6.03-0.09c-0.89,1.06,0.83,1.6,1.43,2.11c0.46,0.39,0.76,0.73,1.08,1.25c0.29,0.48,0.11,1.17-0.38,1.44
				c-1.97,1.09-3.85,2.53-5.98,3.28c-0.26,0.21-0.52,0.42-0.78,0.62c4.35,1.63,9.31,2.27,13.63,2.3c3.05,0.02,6.33-0.19,9.22-1.25
				c1.95-0.71,4.94-2.22,5.17-4.57C49.48,13.56,45.89,12.02,43.91,11.14z"/>
			<path class="st4" d="M27.97,15.81c0.49-0.27,0.67-0.96,0.38-1.44c-0.32-0.51-0.61-0.86-1.08-1.25c-0.61-0.51-2.32-1.05-1.43-2.11
				c0.86-1.04,4.96-0.1,6.03,0.09c2.76,0.49,6.4,1.59,9.13,0.33c0.5-0.23,0.87-0.58,1.06-1.01c-2.22-0.74-4.53-1.13-6.85-1.43
				c-4.05-0.53-8.17-1-12.25-0.87c-2.58,0.08-7.4-0.09-8.62,2.77c-0.03,0.08-0.06,0.16-0.08,0.24c-0.13,0.22-0.25,0.46-0.34,0.72
				c-0.76,2.19,0.6,4.12,2.34,5.33c1.49,1.04,3.17,1.87,4.96,2.54c0.26-0.21,0.53-0.41,0.78-0.62C24.12,18.34,26,16.91,27.97,15.81z
				"/>
		</g>
		<g>
			<path class="st0" d="M23.59,22.06c-0.08-0.5,0.12-1.14,0.65-1.31c-4.63-1.24-9.67-3.16-11.22-7.8c-0.53,1.24,0.64,4.82,0.76,5.27
				c1,3.68,2.51,7.32,3.78,10.84c1.44,3.99,4.17,9.47,6.42,13.14c1.06,0.71,2.17,1.33,3.24,1.86c-0.61-1.81-1.03-3.61-1.24-5.01
				C25.27,34.13,24.37,26.96,23.59,22.06z"/>
			<path class="st0" d="M45.2,20.29c-0.87,0.32-3.45,1.3-4.3,1.72c-4.6,1.44-9.56,0.47-14.23-0.66c0.36,0.38,0.6,0.9,0.71,1.54
				c0.43,2.49,0.02,5.24,0.27,7.78c0.39,3.99,1.24,10.15,2.38,14.56c1.32,0.45,2.47,0.68,3.28,0.63c1.31-0.08,2.99-0.39,4.62-0.86
				c0.04-1.52,0.09-3.04,0.21-4.56c0.18-2.25,0.63-4.44,0.77-6.7c0.21-3.49,0.41-7.67,3.66-9.75C43.37,23.49,45.9,22.02,45.2,20.29z
				"/>
			<path class="st2" d="M26.67,21.36c-0.55-0.58-1.35-0.82-2.32-0.65c-0.04,0.01-0.07,0.02-0.11,0.03c0.55,0.15,1.1,0.29,1.64,0.42
				C26.14,21.23,26.41,21.3,26.67,21.36z"/>
			<path class="st2" d="M27.39,22.9c-0.11-0.65-0.36-1.16-0.71-1.54c-0.27-0.06-0.53-0.13-0.79-0.19c-0.54-0.13-1.09-0.27-1.64-0.42
				c-0.54,0.17-0.73,0.81-0.65,1.31c0.79,4.91,1.68,12.07,2.4,16.99c0.21,1.41,0.63,3.2,1.24,5.01c0.98,0.48,1.93,0.88,2.81,1.18
				c-1.14-4.41-1.99-10.56-2.38-14.56C27.41,28.14,27.82,25.39,27.39,22.9z"/>
		</g>
		<path class="st1" d="M44.66,20.27c-1.6,1.85-3.43,2.57-5.89,2.53c-1.03-0.02-2.08-0.09-3.14-0.17c-0.03-0.04-0.05-0.08-0.08-0.11
			c-0.63-0.89-1.78-0.71-2.32-0.08c-0.39-0.03-0.79-0.07-1.17-0.09c-0.76-0.05-2.85,0.86,1.75,2.67c1.79,3.45,2.34,7.6,2.18,11.46
			c-0.12,3.06-0.31,6.03,0,9.03c1.6-0.21,2.65-0.64,3.66-1.05c0.04-2.81-0.5-5.52-0.26-8.31c0.19-2.26,0.53-4.51,1.06-6.72
			c0.33-1.37,0.76-2.63,1.29-4.43c1.88-0.8,3.28-2.24,3.8-4.19C45.68,20.3,45.02,19.85,44.66,20.27z"/>
		<path class="st5" d="M40.2,21.04c-2.56,0.08-12.03,0.28-13.74-1.96c-0.83,0.42-3.08,0.98-3.08,0.98s0.57-1.1,1.17-2.03
			c-0.98,0.1-5.18-0.24-5.51-0.39c-1.59-0.7-3.37-1.5-4.39-2.91c-1.28-1.78-0.2-3.63,0.6-4.38c1.42-1.34,5.4-1.66,8.01-2.23
			c-2.61-0.06-5.37-0.16-7.86,0.98c-2.79,1.28-3.47,5.24-1.28,7.26c1.27,1.17,3.48,3.78,8.17,5.03c0.05,2.7,0.63,5.45,1.47,8.03
			c0.2,1.1,0.97,3.69,1.45,4.61c0.23-1.25-0.27-11.18-0.26-11.93c1.56,0.65,4.11,1.06,4.72,1.19c2.74,0.57,5.83,0.14,8.58-0.2
			c3.63-0.44,10.57-2.28,10.96-6.88C46.92,17.29,44.38,20.9,40.2,21.04z"/>
		<path class="st5" d="M36.38,33.45c-0.15-1.53,0.09-2.33-0.38-3.8c-0.56-1.73-1.03-3.2-2.18-4.66c1.13,2.86,0.9,4.74,1.4,7.8
			c0.54,3.28,0,9.33,0.78,11.78C36.27,41.27,36.7,36.73,36.38,33.45z"/>
	</g>
	<g>
		<g>
			<path class="st0" d="M2.4,50.23c0.29,0.2,0.86-0.13,1.22-0.95c1.68-3.86,1.76-8.97,4.62-12.04c0.89-0.95,0.54,0.16,0.48,0.56
				c-0.55,4.23,0.7,6.34,0.6,10.11c-0.02,0.74-0.74,2.9-0.85,3.79c-0.17,1.47-0.09,2.9-0.38,4.34c0.01,0.01,0.02,0.02,0.03,0.03
				c0.15,0.13,0.31,0.24,0.47,0.35c0.21-0.31,0.48-0.8,0.85-1.59c0.61-1.29,1.56-1.23,1.48-0.92c-0.04,0.23-0.08,0.46-0.13,0.69
				c-0.1,0.73-0.12,1.22-0.02,1.96c0.27-0.03,1.53,0.17,1.84,0.22c0.23,0.04,1.13,0.85,1.84,1.56c1.23,0.35,2.45,0.69,3.68,1.03
				c-0.16-5.05-0.94-10.06-2.39-14.9c-1.42-4.75-4.14-9.82-3.4-16.48c-2.27,2.17-6.5,7.02-8.4,10.12C1.64,41.89,0.35,46.17,0,50.57
				c-0.02,0.28,0.21,0.53,0.46,0.62c0.26-0.5,0.55-0.94,0.81-1.21C1.55,49.7,1.98,49.94,2.4,50.23z"/>
			<path class="st2" d="M12.62,56.78c-0.3-0.05-1.57-0.25-1.84-0.22c-0.1-0.74-0.08-1.23,0.02-1.96c0.05-0.23,0.09-0.46,0.13-0.69
				c0.07-0.3-0.88-0.36-1.48,0.92c-0.37,0.79-0.63,1.28-0.85,1.59c1.11,0.72,2.52,0.98,3.77,1.33c0.69,0.2,1.39,0.39,2.08,0.59
				C13.75,57.63,12.85,56.81,12.62,56.78z"/>
			<path class="st2" d="M5.31,52.82c1.3,0.76,1.7,2.26,2.79,3.22c0.29-1.44,0.21-2.87,0.38-4.34c0.1-0.89,0.83-3.05,0.85-3.79
				c0.09-3.77-1.16-5.88-0.6-10.11c0.05-0.4,0.4-1.51-0.48-0.56c-2.87,3.07-2.94,8.18-4.62,12.04C3.26,50.1,2.7,50.42,2.4,50.23
				c-0.43-0.29-0.85-0.53-1.13-0.25c-0.26,0.26-0.55,0.71-0.81,1.21c0,0,0.01,0,0.01,0C2.04,51.67,3.9,51.99,5.31,52.82z"/>
		</g>
		<path class="st3" d="M23.53,43.16c0.92-0.67,1.91-1.24,2.95-1.73c1.26-0.59,3.01-1.6,3.97-2.82c-0.03-0.04-0.07-0.09-0.1-0.13
			c-3.73-3.05-8.23-6.1-10.67-7.58c-1.91-1.16-4.95-3.17-7.26-2.98c-0.02,0.02-0.04,0.04-0.06,0.06c-0.74,6.66,1.98,11.74,3.4,16.48
			c0.72,2.41,1.27,4.86,1.67,7.33c0.87-1.84,1.98-3.86,2.56-4.79C20.91,45.53,22.11,44.2,23.53,43.16z"/>
		<path class="st0" d="M23.13,36.49c-0.78-0.57-1.98-0.43-2.74,0.08c-0.18-0.12-1.34-0.71-1.59-0.72c-0.72-0.03-3.39,0.69-4.15-0.31
			c-0.55-0.72-0.71-0.59-0.59,0.3c0.27,1.89,0.84,3.24,2.17,4.62c0.3,0.31,0.8-0.08,1.19-0.27c1.71-0.82,3.76-2.36,5.81-2.27
			C23.87,37.35,23.36,36.66,23.13,36.49z"/>
		<g>
			<path class="st2" d="M34.85,46.7c-1.17-2.68-2.53-5.82-4.41-8.08c-0.22,0.28-0.48,0.54-0.76,0.79c0.05,0.03,0.09,0.07,0.11,0.12
				c0.45,1.08,1.24,1.92,1.21,3.15c-0.03,1.21-0.63,2.31-1.01,3.42c-0.24,0.71-0.2,1.43-0.34,2.15c-0.15,0.76-0.44,1.28-0.29,2.09
				c0.22,1.15,0.64,2.91,1.17,4.21c1.57-0.56,3.12-1.24,4.28-2.39C36.5,50.51,35.68,48.59,34.85,46.7z"/>
			<path class="st2" d="M24.57,42.83c-0.12-0.01-0.23-0.13-0.19-0.23c-0.29,0.18-0.57,0.37-0.84,0.57
				c-1.42,1.04-2.62,2.36-3.56,3.85c-0.58,0.92-1.69,2.94-2.56,4.79c0.4,2.5,0.64,5.03,0.72,7.57c0,0,0,0,0,0
				c1.79-1.08,4.79-2.21,7.42-3.14c-0.46-1.73-0.42-3.54-0.46-5.35C25.03,48.27,24.14,45.44,24.57,42.83z"/>
			<path class="st1" d="M29.68,39.41c-0.08-0.04-0.17-0.05-0.24,0.03c-0.66,0.77-1.8,1.03-2.67,1.5c-0.83,0.45-1.61,0.98-2.34,1.58
				c-0.03,0.03-0.05,0.05-0.06,0.08c0.68-0.43,1.38-0.82,2.1-1.16C27.45,40.98,28.71,40.27,29.68,39.41z"/>
			<path class="st1" d="M29.65,48.25c0.14-0.72,0.1-1.45,0.34-2.15c0.38-1.11,0.98-2.22,1.01-3.42c0.03-1.23-0.76-2.07-1.21-3.15
				c-0.02-0.05-0.06-0.09-0.11-0.12c-0.97,0.86-2.23,1.57-3.2,2.03c-0.73,0.34-1.43,0.73-2.1,1.16c-0.03,0.11,0.07,0.23,0.19,0.23
				c-0.42,2.61,0.46,5.44,0.52,8.06c0.05,1.81,0,3.62,0.46,5.35c0.89-0.31,1.73-0.6,2.48-0.85c0.8-0.27,1.66-0.53,2.5-0.83
				c-0.53-1.3-0.95-3.06-1.17-4.21C29.21,49.53,29.5,49.01,29.65,48.25z"/>
		</g>
		<path class="st4" d="M28.36,36.91c-1.03-0.01-2.05-0.14-3.08-0.04c-1.29,0.12-2.55,0.51-3.76,0.95c-1.04,0.38-1.86,1.07-2.86,1.48
			c-1.37,0.56-2.74-0.17-3.47-1.03c-0.8-1.19-1.13-3.88-1.46-5.47c-0.16-0.79-1.5-3.49-1.3-4.87c-0.64-0.01-4.93,4.76-5.73,6.4
			c1.29-0.62,2.92-3.73,4.28-1.74c0.83,1.22,1.28,3.56,1.54,4.78c0.42,1.97,1.19,5.29,2.79,7.57c0.73,1.03,1.37,3.53,1.29,4.31
			c-0.19,1.7-0.17,3.02,1.2,5.19c0.23-1.35,0.83-1.89,1.3-3.98c0.43-1.92,1.87-3.51,2.93-5.07c1.52-2.24,4.87-3.71,6.77-4.79
			c0.53-0.3,1.61-0.68,2.23-1.27C30.14,37.82,29.03,37.43,28.36,36.91z"/>
		<path class="st5" d="M30.01,37.98c-0.71-0.56-11.09-8.21-12.85-8.93c-0.62-0.26-3.15-1.82-5.13-1.08
			c-1.07,0.4-2.37,2.26-3.13,3.34c0.66-0.55,2.2-1.44,2.99-1.32c0.78,0.12,1.14,1.57,1.47,2.3c0.61,1.91,0.87,3.96,1.59,5.82
			c0.53,1.38,1.72,2.55,2.62,3.27c0.22,0.18,1.03,0.87,0.8,1.84c-0.18,0.74-0.17,1.49,0.05,2.28c0.06,0.21,0.18,0.09,0.26-0.12
			c0.41-1.12,0.45-2.26,1.08-3.35c0.07-0.12,0.03-0.3-0.09-0.36c-0.65-0.33,0.03-0.87,0.41-1.23c0.47-0.45,0.61-1.13,1.15-1.5
			c0.66-0.46,2.53-1.34,4.33-0.99c0.97,0.19,1.59-0.18,2.46,0.09c1.17,0.36,2.46,1.15,2.99,1.28
			C31.16,39.22,30.21,38.13,30.01,37.98z M23.33,37.07c-1.02,0.26-3.82,1.71-4.24,1.93c-1.45,0.72-2.83,0.21-3.42-0.75
			c-0.89-2.37-1.18-4.54-2.15-6.86c-0.08-0.22-0.27-0.8-0.36-1.15c-0.08-0.29,0.06-1.17,0.36-1.32c1.16-0.58,4.21,0.95,4.98,1.41
			c1.91,1.15,6.89,5.1,7.56,5.67c0.15,0.13,0.14,0.52-0.2,0.6C25.19,36.75,24.15,36.94,23.33,37.07z"/>
	</g>
	<path class="st6" d="M39.72,12.15c-3.78-0.58-8.38-1.37-12.06,0.06c-0.78,0.23-1.53,0.62-1.85,1.36c-0.51,1.17,0.39,2.35,1.38,2.97
		c3.01,1.9,7.39,2.44,10.93,2.3c1.78-0.07,3.62-0.29,5.3-0.88c1.13-0.39,3.07-1.22,3.49-2.42C47.78,13.01,41.06,12.36,39.72,12.15z"
		/>
	<g>
		<path class="st4" d="M40.9,41.61c1.22-0.47,2.47-0.86,3.74-1.15c0.96-0.22,1.78-0.29,2.5-0.21c0.87,0.29,1.95,0.79,1.61,1.77
			c-0.51,1.51-1.51,3.05-1.51,3.05s-3.69-0.68-4.41-0.84c-0.42-0.09-2.4-0.7-4.15-1.49c0.04-0.08,0.08-0.15,0.13-0.21
			C39.14,42.08,40.33,41.83,40.9,41.61z"/>
		<g>
			<path class="st2" d="M47.43,43.88c-0.19,0.37-0.44,0.73-0.73,1.09C46.69,44.96,47.03,44.52,47.43,43.88z"/>
			<path class="st3" d="M47.69,46.96c-0.31-0.68-1.14-1.63-1.52-2.09c0.3-0.35,1.07-0.62,1.25-0.99c0.32-0.53,0.67-1.18,0.9-1.86
				c0.34-0.98-0.33-1.48-1.2-1.77c0.89,0.1,1.63,0.42,2.29,1c1.15,0.78,2.05,2.01,2.78,3.34c-0.76,0.76-1.98,1.44-2.9,1.81
				C48.85,46.58,48.19,47.02,47.69,46.96z"/>
		</g>
		<path class="st1" d="M37.61,48.17c-0.08-0.03,0.17-2.15,0.55-3.82c0.03,0.01,0.06,0,0.1,0.01c1.11,0.41,2.17,0.97,3.24,1.48
			c0.97,0.46,2.21,0.83,3.05,1.49c0.84,0.67,1.39,2.26,1.32,3.41c-0.06,0-0.12,0-0.17,0C43.06,50.49,40.12,48.97,37.61,48.17z"/>
		<g>
			<path class="st2" d="M47.69,46.96c0.51,0.06,1.16-0.37,1.62-0.56c0.92-0.37,2.13-1.05,2.9-1.81c0.65,1.19,1.16,2.45,1.56,3.54
				c0.04,0.11-2.64,1.43-5.12,2.16c-0.21-0.62-0.36-1.56-0.51-2.04C48.01,47.82,47.97,47.32,47.69,46.96z"/>
			<path class="st2" d="M45.83,44.81c0.5,0.09,0.86,0.16,0.86,0.16c0.37,0.46,0.68,1.31,1,1.99c-0.55-0.71-1.03-1.6-1.2-1.77
				C46.39,45.08,46.15,44.95,45.83,44.81z"/>
			<path class="st2" d="M38.67,42.74c1.75,0.79,3.73,1.4,4.15,1.49c0.1,0.02,0.24,0.05,0.42,0.08c0.28,0.59,0.64,1.49,1.1,1.92
				c0.38,0.36,1.07,0.46,1.39,0.61c0.24,0.12,0.74,0.3,0.97,0.43c0.56,0.98,0.74,1.92,0.95,3.03c0.02,0.08,0.03,0.15,0.06,0.22
				c-0.68,0.16-1.32,0.25-1.84,0.22c0.07-1.15-0.48-2.75-1.32-3.41c-0.83-0.66-2.08-1.03-3.05-1.49c-1.07-0.51-2.12-1.07-3.24-1.48
				c-0.03-0.01-0.06-0.01-0.1-0.01C38.31,43.69,38.49,43.1,38.67,42.74z"/>
			<path class="st1" d="M43.17,44.17c-0.2-0.39,1.62,0.16,2.66,0.63c-0.79-0.15-1.92-0.36-2.6-0.49
				C43.22,44.27,43.19,44.21,43.17,44.17z"/>
			<path class="st1" d="M46.69,47.28c-0.23-0.13-0.73-0.31-0.97-0.43c-0.32-0.16-1.01-0.25-1.39-0.61c-0.46-0.43-0.81-1.33-1.1-1.92
				c0.68,0.13,1.81,0.34,2.6,0.49c0.31,0.14,0.56,0.28,0.66,0.38c0.17,0.18,0.65,1.06,1.2,1.77c0.28,0.36,0.32,0.86,0.45,1.29
				c0.15,0.48,0.3,1.42,0.51,2.04c-0.32,0.09-0.64,0.18-0.95,0.25c-0.02-0.06-0.04-0.13-0.06-0.22
				C47.43,49.2,47.26,48.26,46.69,47.28z"/>
		</g>
		<path class="st5" d="M38.92,42.85c1.76,0.16,3.62,0.84,5.21,1.24c1.38,0.35,2.57,0.19,3.56-0.91c0.41-0.45,0.84-1.58,0.34-2.47
			c0.75,0.1,0.49,1.65,0.32,2.07c-0.15,0.37-0.25,0.79-0.5,1.09c-0.37,0.48-0.41,1-0.41,1c-0.04,0.92,0.41,1.33,0.26,2.07
			c-0.96-1.16-1.33-1.77-2.79-2.19c-1-0.29-3.75-1-3.9-1.05C40.42,43.54,39.48,43.26,38.92,42.85z"/>
		<path class="st5" d="M40.97,44.81c0.69,0.3,0.43,0.47,1.06,0.87c0.24,0.16,1.11,0.57,1.43,0.8c0.36,0.16,1.29,0.31,1.45,0.58
			c0.03,0.05,0.54,1.2,0.53,1.55c-0.39-0.36-0.7-1-1.29-1.4c-0.77-0.12-1.3-0.39-1.87-0.81c-1.17-0.86-2.29-1.16-3.59-1.8
			C39.48,44.57,40.25,44.49,40.97,44.81z"/>
	</g>
	<g>
		<path class="st3" d="M49.26,56.23c-0.65-1.81-1.61-3.77-2.89-5.22c-0.44-0.5-0.94-0.97-1.47-1.4c-0.14,0.05-0.27,0.09-0.41,0.11
			c-0.31,0.1-0.6,0.22-0.9,0.34c-0.06,0.02-0.11,0.02-0.16-0.01c-0.02,0.01-0.03,0.02-0.05,0.03c-0.15,0.05-0.28-0.08-0.29-0.22
			c-0.02-0.25,0.08-0.48,0.13-0.72c0.05-0.23,0.07-0.48,0.06-0.72c-0.96-0.64-1.97-1.22-2.93-1.76c-1.85-1.03-5.99-3.3-8.25-0.49
			c-1.14,2.81-0.31,6.89,0.81,9.2c1.69,3.48,5.03,6.19,8.82,7.09c2.77-0.32,4.93-0.99,6.31-1.89
			C49.61,59.54,49.87,57.92,49.26,56.23z"/>
		<g>
			<path class="st0" d="M30.92,56.53c1.07,0.83,1.5,2.23,2.54,3.12c1.57,1.33,2.67,2.26,3.59,3c1.7,0.03,3.27-0.04,4.69-0.2
				c-3.79-0.89-7.12-3.6-8.82-7.09c-1.12-2.31-1.95-6.39-0.81-9.2c-0.13,0.17-0.26,0.35-0.38,0.55c-2.08,2.64-3.39,5.74-4.05,9.02
				c0.09-0.04,0.19-0.07,0.3-0.09C28.97,55.42,30.15,55.93,30.92,56.53z"/>
			<path class="st2" d="M33.24,62.42c1.33,0.14,2.6,0.21,3.81,0.23c-0.92-0.75-2.02-1.67-3.59-3c-1.04-0.88-1.47-2.29-2.54-3.12
				c-0.77-0.6-1.95-1.11-2.95-0.89c-0.11,0.02-0.2,0.06-0.3,0.09c-0.25,1.25-0.41,2.52-0.49,3.8C28.04,60.15,31.11,62.2,33.24,62.42
				z"/>
		</g>
		<path class="st4" d="M42.47,48.33c-0.69-0.93-2.18-1.47-3.22-1.87c-1.47-0.58-3.07-0.94-4.65-0.87c-0.59,0.03-2.42,1.02-2.17,1.39
			c-0.98,2.05,0.14,2.7,1.02,5.25c0.8,2.32,1.99,4.05,3.98,2.35c1.04-0.9,3.17-2.87,4.34-3.56C43.42,50.05,43.16,49.26,42.47,48.33z
			"/>
		<path class="st5" d="M47.45,52.46c-0.64-1.23-1.66-2.31-2.75-3.21c-0.28,0.17-1.13,0.52-1.13,0.52s0.03-1.12-0.04-1.42
			c-1.54-1.06-3.16-1.87-3.68-2.11c-1.72-0.78-3.89-2.12-5.83-1.57c-0.58,0.17-1.4,0.65-1.8,0.98c-0.77,0.63-3.57,5.34-3.82,7.25
			c0.61-1.26,2.1-3.61,2.61-3.01c0.4,0.47,0.77,2.94,1.05,3.79c1.17,3.51,4.96,8.31,9.03,8.6c-0.75-0.24-2.94-1.54-3.14-1.66
			c-2.23-1.37-3.83-3.95-4.7-6.53c-0.62-1.83-1.23-4.4-0.26-6.22c0.7-1.33,1.96-1.91,3.29-1.82c1.57,0.11,4.13,1.45,5.05,1.84
			c0.97,0.42,1.69,0.65,1.32,1.93c-0.1,0.33-0.7,0.91-0.89,1.18c0.74,0.02,1.95-0.61,2.72-0.72C44.68,50.56,46.44,52.52,47.45,52.46
			z"/>
	</g>
	<g>
		<path class="st0" d="M30.01,14.84c0.23-0.23,0.46-1.09,0.72-1.34c0.53-0.51,0.34,0.25,0.39,0.63c0.06,0.54-0.04,0.93,0.26,1.31
			c0.09,0.11,0.42-0.14,0.81,0.3c0.6,0.67,1.11,1.13,3.3,1.31c-0.41-0.85-0.65-1.75-0.66-2.71c-0.02-0.97,0.37-1.77,1.01-2.36
			c2.38-2.21,5.31-3.78,8.01-5.6c-0.32-1.04-0.63-1.83-0.89-2.09c-1.47-1.47-3.35-2.67-5.11-3.77c-2.95,0.65-5.79,2.45-7.08,3.56
			c-0.57,0.49-1.94,2.22-1.94,2.22s-0.45,4.89-0.42,6.68c0.01,0.33-0.02,0.84-0.01,1.23C28.92,14.45,29.92,14.93,30.01,14.84z"/>
		<path class="st3" d="M41.79,2.9c-1.05-0.79-2.84-2.36-4.06-2.82c-0.07,0.01-0.14,0.02-0.21,0.04c0,0.05-0.03,0.1-0.1,0.12
			c-0.52,0.11-1.06,0.27-1.58,0.48c-0.52,0.23-1.07,0.51-1.61,0.81c-0.3,0.19-0.59,0.39-0.87,0.6c0.01,0.04,0.01,0.09-0.04,0.13
			c-0.13,0.11-0.26,0.21-0.41,0.29c-0.11,0.08-0.21,0.17-0.32,0.26c-0.1,0.08-0.21,0.01-0.23-0.08c-0.02-0.01-0.04-0.03-0.06-0.05
			c-0.56,0.37-1.02,0.72-1.27,0.97c-0.63,0.61-1.64,1.36-2.21,2.64c1.26,2.45,3.88,5.78,6.02,7.51c1.27-0.89,6.64-5.22,8.98-7.43
			C43.5,5.09,43.16,3.92,41.79,2.9z"/>
		<path class="st4" d="M40,2.52c-0.76-0.85-1.73-1.83-2.87-2.22c-1.32,0.32-2.16,2.01-1.73,2.57c0.61,0.8-0.06,1.27-0.11,1.8
			c-0.04,0.4,0.22,0.95,0.48,1.17C35.97,6,36.2,6.1,36.43,6.21c0.63,0.28,0.93,0.51,1.16,1.19c0.31,0.92,0.55,1.87,0.77,2.82
			c0.02,0.1,0.15,0.15,0.23,0.09c1.23-0.8,2.6-1.74,3.01-3.24C42.06,5.37,41.09,3.74,40,2.52z"/>
		<g>
			<path class="st2" d="M37.05,12.76c-0.07-0.09-0.33-0.73-0.53-1.39c-0.23,0.2-0.47,0.4-0.7,0.61c-0.64,0.6-1.03,1.39-1.01,2.36
				c0.01,0.96,0.26,1.86,0.66,2.71c-2.19-0.18-2.7-0.64-3.3-1.31c-0.39-0.44-0.72-0.19-0.81-0.3c-0.3-0.38-0.2-0.77-0.26-1.31
				c-0.04-0.38,0.15-1.14-0.39-0.63c-0.26,0.25-0.48,1.11-0.72,1.34c-0.1,0.1-1.09-0.39-1.61-0.62c0.01,0.24,0.03,0.43,0.08,0.5
				c2.37,3.33,6.16,3.66,9.86,2.75c-0.2-0.6-0.45-1.54-0.47-2.52C37.85,13.93,37.35,13.16,37.05,12.76z"/>
			<path class="st2" d="M42.93,9.02c-0.72,1-0.81,2.34-0.94,3.57c-0.09,0.89-0.11,2.42-0.03,3.62c1.37-0.61,2.65-1.32,3.73-2.03
				c-0.22-1.07-1.07-5.2-1.87-7.8c-0.21,0.14-0.43,0.28-0.64,0.42C43.25,7.62,43.25,8.58,42.93,9.02z"/>
			<path class="st1" d="M42,12.59c0.13-1.23,0.22-2.56,0.94-3.57c0.31-0.44,0.32-1.4,0.26-2.22c-2.26,1.47-4.62,2.83-6.67,4.57
				c0.2,0.66,0.46,1.31,0.53,1.39c0.3,0.39,0.8,1.17,0.81,2.19c0.02,0.98,0.27,1.92,0.47,2.52c1.24-0.3,2.47-0.75,3.63-1.27
				C41.89,15.01,41.91,13.47,42,12.59z"/>
		</g>
		<path class="st5" d="M42.09,2.98c-1.3-1-2.84-2.32-4.33-2.98c-0.66,0.08-2.42,0.49-2.83,0.75c-1.56,0.98-3.27,1.88-4.37,3.35
			c1.07-0.7,2.15-0.84,2.98-1.62c0.69-0.66,2.47-1.9,3.52-1.84c0.61,0.53,1.53,1.64,2.2,2.1c0.42,0.78,1.33,1.76,1.37,2.67
			c0.05,1.12,0.12,2.17-0.69,3.05c-0.96,1.04-2.91,1.86-3.9,2.62c-0.84,0.64-1.6,1.1-2.34,0.69c-1.06-0.58-2.02-2.26-2.22-2.49
			c0.36-0.38,0.89-1.03,1.41-1.23c-0.78,0.09-1.33,0.12-1.95,0.59c-0.62-0.36-0.47-0.87-1.63-1.45c0.01,0.49,1.64,2.33,3.12,4.39
			c0.58,0.82,1.52,1.43,1.75,2.24c0.33,1.17,0.79,1.74,0.85,2.02c0.37-0.2,0.54-0.6,0.55-1.01c0.02-0.48,0.34-0.48,0.54-0.74
			c0.21-0.29,0.15-0.5,0.21-0.74c0.04-0.14,0.3-0.66,0.45-0.81c0.86-0.86,3.06-1.97,3.56-2.38c1.24-1.03,2.91-2.16,3.49-3.76
			C44.05,5.79,43.22,3.85,42.09,2.98z"/>
	</g>
	<g>
		<path class="st4" d="M96.7,38.6c-1.22-0.47-2.47-0.86-3.74-1.15c-0.96-0.22-1.78-0.29-2.5-0.21c-0.87,0.29-1.95,0.79-1.61,1.77
			c0.51,1.51,1.51,3.05,1.51,3.05s3.69-0.68,4.41-0.84c0.42-0.09,2.4-0.7,4.15-1.49c-0.04-0.08-0.08-0.15-0.13-0.21
			C98.45,39.07,97.27,38.82,96.7,38.6z"/>
		<g>
			<path class="st2" d="M90.17,40.87c0.19,0.37,0.44,0.73,0.73,1.09C90.9,41.95,90.56,41.51,90.17,40.87z"/>
			<path class="st0" d="M89.91,43.95c0.31-0.68,1.14-1.63,1.52-2.09c-0.3-0.35-1.07-0.62-1.25-0.99c-0.32-0.53-0.67-1.18-0.9-1.86
				c-0.34-0.98,0.33-1.48,1.2-1.77c-0.89,0.1-1.63,0.42-2.29,1c-1.15,0.78-2.05,2.01-2.78,3.34c0.76,0.76,1.98,1.44,2.9,1.81
				C88.75,43.57,89.4,44.01,89.91,43.95z"/>
		</g>
		<path class="st1" d="M99.98,45.16c0.08-0.03-0.17-2.15-0.55-3.82c-0.03,0.01-0.06,0-0.1,0.01c-1.11,0.41-2.17,0.97-3.24,1.48
			c-0.97,0.46-2.21,0.83-3.05,1.49c-0.84,0.67-1.39,2.26-1.32,3.41c0.06,0,0.12,0,0.17,0C94.53,47.48,97.48,45.96,99.98,45.16z"/>
		<g>
			<path class="st2" d="M89.91,43.95c-0.51,0.06-1.16-0.37-1.62-0.56c-0.92-0.37-2.13-1.05-2.9-1.81c-0.65,1.19-1.16,2.45-1.56,3.54
				c-0.04,0.11,2.64,1.43,5.12,2.16c0.21-0.62,0.36-1.56,0.51-2.04C89.59,44.81,89.63,44.31,89.91,43.95z"/>
			<path class="st2" d="M91.76,41.8c-0.5,0.09-0.86,0.16-0.86,0.16c-0.37,0.46-0.68,1.31-1,1.99c0.55-0.71,1.03-1.6,1.2-1.77
				C91.2,42.07,91.45,41.94,91.76,41.8z"/>
			<path class="st2" d="M98.93,39.73c-1.75,0.79-3.73,1.4-4.15,1.49c-0.1,0.02-0.24,0.05-0.42,0.08c-0.28,0.59-0.64,1.49-1.1,1.92
				c-0.38,0.36-1.07,0.46-1.39,0.61c-0.24,0.12-0.74,0.3-0.97,0.43c-0.56,0.98-0.74,1.92-0.95,3.03c-0.02,0.08-0.04,0.15-0.06,0.22
				c0.68,0.16,1.32,0.25,1.84,0.22c-0.07-1.15,0.48-2.75,1.32-3.41c0.83-0.66,2.08-1.03,3.05-1.49c1.07-0.51,2.12-1.07,3.24-1.48
				c0.03-0.01,0.06-0.01,0.1-0.01C99.28,40.68,99.11,40.09,98.93,39.73z"/>
			<path class="st1" d="M94.43,41.16c0.2-0.39-1.62,0.16-2.66,0.63c0.79-0.15,1.92-0.36,2.6-0.49C94.38,41.26,94.4,41.2,94.43,41.16
				z"/>
			<path class="st1" d="M90.9,44.27c0.23-0.13,0.73-0.31,0.97-0.43c0.32-0.16,1.01-0.25,1.39-0.61c0.46-0.43,0.81-1.33,1.1-1.92
				c-0.68,0.13-1.81,0.34-2.6,0.49c-0.31,0.14-0.56,0.28-0.66,0.38c-0.17,0.18-0.65,1.06-1.2,1.77c-0.28,0.36-0.32,0.86-0.45,1.29
				c-0.15,0.48-0.3,1.42-0.51,2.04c0.32,0.09,0.64,0.18,0.95,0.25c0.02-0.06,0.04-0.13,0.06-0.22
				C90.16,46.19,90.34,45.25,90.9,44.27z"/>
		</g>
		<path class="st5" d="M98.68,39.84c-1.76,0.16-3.62,0.84-5.21,1.24c-1.38,0.35-2.57,0.19-3.56-0.91c-0.41-0.45-0.84-1.58-0.34-2.47
			c-0.75,0.1-0.49,1.65-0.32,2.07c0.15,0.37,0.25,0.79,0.5,1.09c0.37,0.48,0.41,1,0.41,1c0.04,0.92-0.41,1.33-0.26,2.07
			c0.96-1.16,1.33-1.77,2.79-2.19c1-0.29,3.75-1,3.9-1.05C97.17,40.53,98.12,40.25,98.68,39.84z"/>
		<path class="st5" d="M96.62,41.8c-0.69,0.3-0.43,0.47-1.06,0.87c-0.24,0.16-1.11,0.57-1.43,0.8c-0.36,0.16-1.29,0.31-1.45,0.58
			c-0.03,0.05-0.54,1.2-0.53,1.55c0.39-0.36,0.7-1,1.29-1.4c0.77-0.12,1.3-0.39,1.87-0.81c1.17-0.86,2.29-1.16,3.59-1.8
			C98.12,41.56,97.34,41.48,96.62,41.8z"/>
	</g>
	<g>
		<path class="st4" d="M24.31,58.33c0.42,0.3,1.66,0.38,2.1,0.64c0.72,0.43,0.69,1.29,1.39,2.35c1.11,1.7,2.03,1.76,4.64,1.12
			c-0.87-1.21-2.12-2.07-3.08-3.07c-0.93-0.97-2.04-2.53-3.5-2.54c-0.5,0-0.95-0.12-1.45,0.1c-0.3,0.13-0.55,0.33-0.78,0.56
			c0,0.02,0,0.04,0.01,0.06C23.71,57.89,24.04,58.14,24.31,58.33z"/>
		<g>
			<path class="st0" d="M30.51,63.46c0.62-0.12,1.39-0.28,1.93,0.03c0.43,0.25,0.58,1.64,0.63,2.06c0.01,0.09,0.02,0.18,0.02,0.27
				c0.12-0.03,0.24-0.06,0.37-0.1c0.01-1.4-0.41-2.43-1.02-3.29c-2.61,0.64-3.53,0.57-4.64-1.12c-0.7-1.06-0.66-1.92-1.39-2.35
				c-0.44-0.26-1.68-0.34-2.1-0.64c-0.26-0.19-0.59-0.43-0.67-0.77c-0.01-0.02,0-0.04-0.01-0.06c-0.27,0.27-0.51,0.58-0.72,0.88
				c-0.31,0.44-0.62,0.95-0.9,1.47c0.62,0.18,1.76,0.77,2.24,1.19c0.89,0.76,2.4,1.43,2.54,2.61c0.09,0.79,0.27,1.81,0.17,3.09
				c0.25,0.01,0.51-0.01,0.77-0.02c0.03-0.59,0.62-1.2,1.2-2.12C29.26,64.09,29.94,63.57,30.51,63.46z"/>
			<path class="st1" d="M33.07,65.54c-0.05-0.42-0.2-1.81-0.63-2.06c-0.53-0.31-1.31-0.15-1.93-0.03c-0.56,0.11-1.25,0.63-1.56,1.13
				c-0.59,0.93-1.18,1.54-1.2,2.12c1.64-0.05,3.42-0.36,5.35-0.9C33.08,65.72,33.08,65.63,33.07,65.54z"/>
		</g>
		<g>
			<path class="st2" d="M25.44,62.81c0.82,0.16,1.04,0.18,1.36,0.87c0-0.01,0-0.03,0-0.04c-0.14-1.18-1.65-1.85-2.54-2.61
				c-0.49-0.42-1.62-1-2.24-1.19c-0.61,1.14-1.09,2.41-1.15,3.59c0.44,0.43,1.01,0.99,1.65,1.54c0.04-0.39,0.33-2.02,0.69-2.33
				C23.77,62.16,24.87,62.7,25.44,62.81z"/>
			<path class="st1" d="M26.8,63.68c-0.32-0.69-0.54-0.72-1.36-0.87c-0.58-0.11-1.68-0.65-2.25-0.17c-0.36,0.31-0.65,1.94-0.69,2.33
				c0.9,0.76,1.92,1.47,2.87,1.63c0.49,0.08,1,0.12,1.51,0.13c0.03,0,0.06,0,0.09,0c0.02-0.24,0.07-0.45,0.07-0.67
				C27.05,65.12,26.88,64.32,26.8,63.68z"/>
		</g>
		<path class="st5" d="M31.67,62.61c-0.44-0.04-1.25,0.01-1.69-0.06c-1.09-0.19-1.32-0.74-1.39-0.82c-0.59-0.75-0.77-0.93-1.19-1.75
			c-0.14-0.27-0.18-0.96-0.46-1.08c-0.09-0.04-0.7-0.29-0.92-0.4c-0.22-0.11-0.88-0.12-1.24-0.38c-0.35-0.25-0.4-0.76-0.39-0.85
			c0.02-0.2,0.7-0.46,0.65-0.47c-0.65-0.06-0.96,0.16-1.49,0.76c-0.19,0.22,0.75,0.89,0.78,0.9c0.51,0.33,1.68,0.47,1.93,0.82
			c0.31,0.42,0.07,1.15-0.09,1.62c-0.33,0.94-0.25,2.16-0.21,2.28c0.2,0.6,0.51,0.38,0.61,0.47c0.26,0.23,0.08,1.26,0.43,1.65
			c0.05-0.44-0.12-1.92,0.36-2.49c0.14-0.17,0.45-0.09,1.38,0C29.55,62.89,29.97,63.19,31.67,62.61z"/>
	</g>
	<g>
		<g>
			<path class="st0" d="M55.17,58.21c0.07-0.01,0.04-0.4,0.12-0.43c0.28-0.11,0.45-0.14,0.75-0.21c0.51-0.13,1.15,0,1.67-0.02
				c0.78-0.03,1.56-0.16,2.32-0.33c-0.36,0.03-0.47-0.16-0.42-0.24c-0.33-0.78-0.48-1.19-1.35-1.21c-1.11-0.02-2.2,0.39-3.21,0.82
				c-0.22,0.1-0.59,0.22-0.91,0.39c-0.05,0.19-0.13,0.4-0.15,0.54C53.92,57.93,54.83,58.24,55.17,58.21z"/>
			<path class="st2" d="M53.45,57.84c0.01,0.59,0.84,0.9,1.27,1.06c1,0.39,2.04,0.35,3.08,0.37c0.6,0.01,1.48,0.03,2-0.32
				c0.51-0.34,0.62-1.07,0.29-1.59c-0.77,0.17-1.61,0.16-2.4,0.19c-0.52,0.02-1.16-0.11-1.67,0.02c-0.3,0.08-0.47,0.1-0.75,0.21
				c-0.08,0.03-0.04,0.42-0.12,0.43c-0.34,0.03-1.25-0.28-1.19-0.68c0.02-0.13,0.1-0.35,0.15-0.54
				C53.76,57.19,53.44,57.45,53.45,57.84z"/>
		</g>
		<path class="st3" d="M59.39,56.5c-0.7,0.18-1.42,0.67-2.14,0.71c-0.36,0.02-1.01-0.09-1.33,0.11c-0.02,0.01-0.23,0.35-0.63,0.46
			c0.45,0.36,1.46,0.02,2.01,0c0.34-0.01,0.72,0.1,1.23,0.04c0.55-0.06,1.23-0.29,1.58-0.46c-0.07-0.2-0.38-0.26-0.5-0.37
			C59.55,56.86,59.48,56.64,59.39,56.5z"/>
		<path class="st5" d="M59.18,56.17c-0.58-0.79-2.14-0.36-2.6-0.22c-0.63,0.19-1.51,0.5-2.06,0.86c-0.28,0.18,0.33-0.02,0.4-0.04
			c0.64-0.16,1.57-0.57,2.22-0.7C57.53,56,58.94,56.31,59.18,56.17z"/>
	</g>
</g>
</svg>
